  0
SECTION
  2
BLOCKS
  0
ENDSEC
  0
SECTION
  2
ENTITIES
  0
LINE
  8
0
 10
-4.99173
 20
-0.287415
 11
-4.82288
 21
-1.31897
  0
LINE
  8
0
 10
-4.82288
 20
-1.31897
 11
-4.44325
 21
-2.29288
  0
LINE
  8
0
 10
-4.44325
 20
-2.29288
 11
-3.86945
 21
-3.1666
  0
LINE
  8
0
 10
-3.86945
 20
-3.1666
 11
-3.12651
 21
-3.90189
  0
LINE
  8
0
 10
-3.12651
 20
-3.90189
 11
-2.24695
 21
-4.46667
  0
LINE
  8
0
 10
-2.24695
 20
-4.46667
 11
0.86113
 21
-5.6414
  0
LINE
  8
0
 10
0.86113
 20
-5.6414
 11
1.89438
 21
-5.79959
  0
LINE
  8
0
 10
1.89438
 20
-5.79959
 11
2.93794
 21
-5.73952
  0
LINE
  8
0
 10
2.93794
 20
-5.73952
 11
3.9462
 21
-5.46376
  0
LINE
  8
0
 10
3.9462
 20
-5.46376
 11
4.87509
 21
-4.98444
  0
LINE
  8
0
 10
4.87509
 20
-4.98444
 11
5.68404
 21
-4.32243
  0
LINE
  8
0
 10
5.68404
 20
-4.32243
 11
6.33765
 21
-3.50671
  0
LINE
  8
0
 10
6.33765
 20
-3.50671
 11
6.80739
 21
-2.57292
  0
LINE
  8
0
 10
6.80739
 20
-2.57292
 11
7.07272
 21
-1.56187
  0
LINE
  8
0
 10
7.07272
 20
-1.56187
 11
7.12206
 21
-0.517761
  0
LINE
  8
0
 10
7.12206
 20
-0.517761
 11
6.9532
 21
0.513794
  0
LINE
  8
0
 10
6.9532
 20
0.513794
 11
6.57358
 21
1.4877
  0
LINE
  8
0
 10
6.57358
 20
1.4877
 11
5.99977
 21
2.3614
  0
LINE
  8
0
 10
5.99977
 20
2.3614
 11
5.25684
 21
3.09671
  0
LINE
  8
0
 10
5.25684
 20
3.09671
 11
4.37727
 21
3.6615
  0
LINE
  8
0
 10
4.37727
 20
3.6615
 11
2.24695
 21
4.46667
  0
LINE
  8
0
 10
2.24695
 20
4.46667
 11
1.26917
 21
4.83623
  0
LINE
  8
0
 10
1.26917
 20
4.83623
 11
0.235931
 21
4.99442
  0
LINE
  8
0
 10
0.235931
 20
4.99442
 11
-0.807617
 21
4.93434
  0
LINE
  8
0
 10
-0.807617
 20
4.93434
 11
-1.81587
 21
4.65858
  0
LINE
  8
0
 10
-1.81587
 20
4.65858
 11
-2.74477
 21
4.17924
  0
LINE
  8
0
 10
-2.74477
 20
4.17924
 11
-3.55371
 21
3.51724
  0
LINE
  8
0
 10
-3.55371
 20
3.51724
 11
-4.20734
 21
2.70154
  0
LINE
  8
0
 10
-4.20734
 20
2.70154
 11
-4.67706
 21
1.76775
  0
LINE
  8
0
 10
-4.67706
 20
1.76775
 11
-4.9424
 21
0.756699
  0
LINE
  8
0
 10
-4.9424
 20
0.756699
 11
-4.99173
 21
-0.287415
  0
ENDSEC
  0
SECTION
  2
OBJECTS
  0
DICTIONARY
  0
ENDSEC
  0
EOF
