  0
SECTION
  2
BLOCKS
  0
ENDSEC
  0
SECTION
  2
ENTITIES
  0
LINE
  8
0
 10
-31.4999
 20
135.273
 11
-31.3851
 21
134.234
  0
LINE
  8
0
 10
-31.3851
 20
134.234
 11
-4.88506
 21
-1.06587
  0
LINE
  8
0
 10
-4.88506
 20
-1.06587
 11
-4.5567
 21
-2.05824
  0
LINE
  8
0
 10
-4.5567
 20
-2.05824
 11
-4.02919
 21
-2.96066
  0
LINE
  8
0
 10
-4.02919
 20
-2.96066
 11
-3.32559
 21
-3.73367
  0
LINE
  8
0
 10
-3.32559
 20
-3.73367
 11
-2.47664
 21
-4.34352
  0
LINE
  8
0
 10
-2.47664
 20
-4.34352
 11
-1.51945
 21
-4.76352
  0
LINE
  8
0
 10
-1.51945
 20
-4.76352
 11
-0.49585
 21
-4.97534
  0
LINE
  8
0
 10
-0.49585
 20
-4.97534
 11
0.549408
 21
-4.96971
  0
LINE
  8
0
 10
0.549408
 20
-4.96971
 11
1.57066
 21
-4.74689
  0
LINE
  8
0
 10
1.57066
 20
-4.74689
 11
2.52327
 21
-4.31659
  0
LINE
  8
0
 10
2.52327
 20
-4.31659
 11
3.3656
 21
-3.69765
  0
LINE
  8
0
 10
3.3656
 20
-3.69765
 11
4.06085
 21
-2.9171
  0
LINE
  8
0
 10
4.06085
 20
-2.9171
 11
75.7094
 21
77.5237
  0
LINE
  8
0
 10
75.7094
 20
77.5237
 11
76.2272
 21
78.4317
  0
LINE
  8
0
 10
76.2272
 20
78.4317
 11
76.5449
 21
79.4276
  0
LINE
  8
0
 10
76.5449
 20
79.4276
 11
76.6485
 21
80.4677
  0
LINE
  8
0
 10
76.6485
 20
80.4677
 11
76.5337
 21
81.5067
  0
LINE
  8
0
 10
76.5337
 20
81.5067
 11
76.2053
 21
82.499
  0
LINE
  8
0
 10
76.2053
 20
82.499
 11
75.6778
 21
83.4015
  0
LINE
  8
0
 10
75.6778
 20
83.4015
 11
74.9742
 21
84.1745
  0
LINE
  8
0
 10
74.9742
 20
84.1745
 11
74.1252
 21
84.7843
  0
LINE
  8
0
 10
74.1252
 20
84.7843
 11
-24.0233
 21
139.644
  0
LINE
  8
0
 10
-24.0233
 20
139.644
 11
-24.9805
 21
140.064
  0
LINE
  8
0
 10
-24.9805
 20
140.064
 11
-26.0041
 21
140.275
  0
LINE
  8
0
 10
-26.0041
 20
140.275
 11
-27.0494
 21
140.27
  0
LINE
  8
0
 10
-27.0494
 20
140.27
 11
-28.0707
 21
140.047
  0
LINE
  8
0
 10
-28.0707
 20
140.047
 11
-29.0233
 21
139.617
  0
LINE
  8
0
 10
-29.0233
 20
139.617
 11
-29.8656
 21
138.998
  0
LINE
  8
0
 10
-29.8656
 20
138.998
 11
-30.5609
 21
138.217
  0
LINE
  8
0
 10
-30.5609
 20
138.217
 11
-31.0786
 21
137.309
  0
LINE
  8
0
 10
-31.0786
 20
137.309
 11
-31.3963
 21
136.313
  0
LINE
  8
0
 10
-31.3963
 20
136.313
 11
-31.4999
 21
135.273
  0
ENDSEC
  0
SECTION
  2
OBJECTS
  0
DICTIONARY
  0
ENDSEC
  0
EOF
