  0
SECTION
  2
BLOCKS
  0
ENDSEC
  0
SECTION
  2
ENTITIES
  0
LINE
  8
0
 10
-31.4996
 20
135.239
 11
-31.3777
 21
134.201
  0
LINE
  8
0
 10
-31.3777
 20
134.201
 11
-4.87766
 21
-1.09923
  0
LINE
  8
0
 10
-4.87766
 20
-1.09923
 11
-4.54253
 21
-2.08934
  0
LINE
  8
0
 10
-4.54253
 20
-2.08934
 11
-4.00887
 21
-2.98813
  0
LINE
  8
0
 10
-4.00887
 20
-2.98813
 11
-3.29999
 21
-3.75632
  0
LINE
  8
0
 10
-3.29999
 20
-3.75632
 11
-2.4469
 21
-4.36035
  0
LINE
  8
0
 10
-2.4469
 20
-4.36035
 11
-1.48686
 21
-4.7738
  0
LINE
  8
0
 10
-1.48686
 20
-4.7738
 11
-0.461823
 21
-4.97862
  0
LINE
  8
0
 10
-0.461823
 20
-4.97862
 11
0.583359
 21
-4.96584
  0
LINE
  8
0
 10
0.583359
 20
-4.96584
 11
1.60307
 21
-4.73604
  0
LINE
  8
0
 10
1.60307
 20
-4.73604
 11
2.55272
 21
-4.29924
  0
LINE
  8
0
 10
2.55272
 20
-4.29924
 11
3.39081
 21
-3.67456
  0
LINE
  8
0
 10
3.39081
 20
-3.67456
 11
74.8681
 21
77.6868
  0
LINE
  8
0
 10
74.8681
 20
77.6868
 11
75.3797
 21
78.5984
  0
LINE
  8
0
 10
75.3797
 20
78.5984
 11
75.6905
 21
79.5964
  0
LINE
  8
0
 10
75.6905
 20
79.5964
 11
75.787
 21
80.6372
  0
LINE
  8
0
 10
75.787
 20
80.6372
 11
75.6651
 21
81.6753
  0
LINE
  8
0
 10
75.6651
 20
81.6753
 11
75.33
 21
82.6654
  0
LINE
  8
0
 10
75.33
 20
82.6654
 11
74.7963
 21
83.5642
  0
LINE
  8
0
 10
74.7963
 20
83.5642
 11
74.0874
 21
84.3324
  0
LINE
  8
0
 10
74.0874
 20
84.3324
 11
73.2343
 21
84.9364
  0
LINE
  8
0
 10
73.2343
 20
84.9364
 11
-24.0531
 21
139.66
  0
LINE
  8
0
 10
-24.0531
 20
139.66
 11
-25.0131
 21
140.074
  0
LINE
  8
0
 10
-25.0131
 20
140.074
 11
-26.0382
 21
140.279
  0
LINE
  8
0
 10
-26.0382
 20
140.279
 11
-27.0834
 21
140.266
  0
LINE
  8
0
 10
-27.0834
 20
140.266
 11
-28.1031
 21
140.036
  0
LINE
  8
0
 10
-28.1031
 20
140.036
 11
-29.0527
 21
139.599
  0
LINE
  8
0
 10
-29.0527
 20
139.599
 11
-29.8908
 21
138.975
  0
LINE
  8
0
 10
-29.8908
 20
138.975
 11
-30.5807
 21
138.189
  0
LINE
  8
0
 10
-30.5807
 20
138.189
 11
-31.0922
 21
137.278
  0
LINE
  8
0
 10
-31.0922
 20
137.278
 11
-31.4031
 21
136.28
  0
LINE
  8
0
 10
-31.4031
 20
136.28
 11
-31.4996
 21
135.239
  0
ENDSEC
  0
SECTION
  2
OBJECTS
  0
DICTIONARY
  0
ENDSEC
  0
EOF
