  0
SECTION
  2
BLOCKS
  0
ENDSEC
  0
SECTION
  2
ENTITIES
  0
LINE
  8
0
 10
-4.98572
 20
-0.377548
 11
-4.79826
 21
-1.40588
  0
LINE
  8
0
 10
-4.79826
 20
-1.40588
 11
-4.40111
 21
-2.37279
  0
LINE
  8
0
 10
-4.40111
 20
-2.37279
 11
-3.8116
 21
-3.23598
  0
LINE
  8
0
 10
-3.8116
 20
-3.23598
 11
-3.05551
 21
-3.95775
  0
LINE
  8
0
 10
-3.05551
 20
-3.95775
 11
-2.16588
 21
-4.50653
  0
LINE
  8
0
 10
-2.16588
 20
-4.50653
 11
-1.18158
 21
-4.85837
  0
LINE
  8
0
 10
-1.18158
 20
-4.85837
 11
120.259
 21
-21.2117
  0
LINE
  8
0
 10
120.259
 20
-21.2117
 11
121.295
 21
-21.3512
  0
LINE
  8
0
 10
121.295
 20
-21.3512
 11
122.337
 21
-21.2722
  0
LINE
  8
0
 10
122.337
 20
-21.2722
 11
123.34
 21
-20.9783
  0
LINE
  8
0
 10
123.34
 20
-20.9783
 11
124.26
 21
-20.4823
  0
LINE
  8
0
 10
124.26
 20
-20.4823
 11
125.057
 21
-19.8058
  0
LINE
  8
0
 10
125.057
 20
-19.8058
 11
125.696
 21
-18.9783
  0
LINE
  8
0
 10
125.696
 20
-18.9783
 11
126.148
 21
-18.0362
  0
LINE
  8
0
 10
126.148
 20
-18.0362
 11
126.395
 21
-17.0206
  0
LINE
  8
0
 10
126.395
 20
-17.0206
 11
126.426
 21
-15.9757
  0
LINE
  8
0
 10
126.426
 20
-15.9757
 11
126.238
 21
-14.9474
  0
LINE
  8
0
 10
126.238
 20
-14.9474
 11
125.841
 21
-13.9805
  0
LINE
  8
0
 10
125.841
 20
-13.9805
 11
125.252
 21
-13.1173
  0
LINE
  8
0
 10
125.252
 20
-13.1173
 11
83.8116
 21
33.236
  0
LINE
  8
0
 10
83.8116
 20
33.236
 11
83.0555
 21
33.9577
  0
LINE
  8
0
 10
83.0555
 20
33.9577
 11
82.1659
 21
34.5065
  0
LINE
  8
0
 10
82.1659
 20
34.5065
 11
81.1816
 21
34.8584
  0
LINE
  8
0
 10
81.1816
 20
34.8584
 11
80.1457
 21
34.9979
  0
LINE
  8
0
 10
80.1457
 20
34.9979
 11
79.1034
 21
34.9189
  0
LINE
  8
0
 10
79.1034
 20
34.9189
 11
78.1002
 21
34.625
  0
LINE
  8
0
 10
78.1002
 20
34.625
 11
-1.89975
 21
4.62503
  0
LINE
  8
0
 10
-1.89975
 20
4.62503
 11
-2.81982
 21
4.12897
  0
LINE
  8
0
 10
-2.81982
 20
4.12897
 11
-3.61667
 21
3.45247
  0
LINE
  8
0
 10
-3.61667
 20
3.45247
 11
-4.25545
 21
2.62508
  0
LINE
  8
0
 10
-4.25545
 20
2.62508
 11
-4.70825
 21
1.68295
  0
LINE
  8
0
 10
-4.70825
 20
1.68295
 11
-4.95526
 21
0.667282
  0
LINE
  8
0
 10
-4.95526
 20
0.667282
 11
-4.98572
 21
-0.377548
  0
ENDSEC
  0
SECTION
  2
OBJECTS
  0
DICTIONARY
  0
ENDSEC
  0
EOF
