  0
SECTION
  2
BLOCKS
  0
ENDSEC
  0
SECTION
  2
ENTITIES
  0
LINE
  8
0
 10
-4.99644
 20
0.18808
 11
-4.92638
 21
-0.854843
  0
LINE
  8
0
 10
-4.92638
 20
-0.854843
 11
-4.64099
 21
-1.86041
  0
LINE
  8
0
 10
-4.64099
 20
-1.86041
 11
-4.15277
 21
-2.78467
  0
LINE
  8
0
 10
-4.15277
 20
-2.78467
 11
-3.48305
 21
-3.58723
  0
LINE
  8
0
 10
-3.48305
 20
-3.58723
 11
-2.66112
 21
-4.23302
  0
LINE
  8
0
 10
-2.66112
 20
-4.23302
 11
-1.72287
 21
-4.69379
  0
LINE
  8
0
 10
-1.72287
 20
-4.69379
 11
-0.70932
 21
-4.94942
  0
LINE
  8
0
 10
-0.70932
 20
-4.94942
 11
0.335205
 21
-4.98874
  0
LINE
  8
0
 10
0.335205
 20
-4.98874
 11
1.36511
 21
-4.81003
  0
LINE
  8
0
 10
1.36511
 20
-4.81003
 11
2.33533
 21
-4.4211
  0
LINE
  8
0
 10
2.33533
 20
-4.4211
 11
3.20351
 21
-3.83894
  0
LINE
  8
0
 10
3.20351
 20
-3.83894
 11
3.93166
 21
-3.089
  0
LINE
  8
0
 10
3.93166
 20
-3.089
 11
4.48799
 21
-2.20407
  0
LINE
  8
0
 10
4.48799
 20
-2.20407
 11
4.84816
 21
-1.22279
  0
LINE
  8
0
 10
4.84816
 20
-1.22279
 11
4.99881
 21
-0.812347
  0
LINE
  8
0
 10
4.99881
 20
-0.812347
 11
5.14711
 21
0.222336
  0
LINE
  8
0
 10
5.14711
 20
0.222336
 11
5.07703
 21
1.26527
  0
LINE
  8
0
 10
5.07703
 20
1.26527
 11
4.79164
 21
2.27084
  0
LINE
  8
0
 10
4.79164
 20
2.27084
 11
4.30342
 21
3.1951
  0
LINE
  8
0
 10
4.30342
 20
3.1951
 11
3.63371
 21
3.99768
  0
LINE
  8
0
 10
3.63371
 20
3.99768
 11
2.81177
 21
4.64345
  0
LINE
  8
0
 10
2.81177
 20
4.64345
 11
1.87352
 21
5.10423
  0
LINE
  8
0
 10
1.87352
 20
5.10423
 11
0.85997
 21
5.35986
  0
LINE
  8
0
 10
0.85997
 20
5.35986
 11
-0.184555
 21
5.39919
  0
LINE
  8
0
 10
-0.184555
 20
5.39919
 11
-1.21445
 21
5.22047
  0
LINE
  8
0
 10
-1.21445
 20
5.22047
 11
-2.18468
 21
4.83153
  0
LINE
  8
0
 10
-2.18468
 20
4.83153
 11
-3.05286
 21
4.24939
  0
LINE
  8
0
 10
-3.05286
 20
4.24939
 11
-3.78101
 21
3.49944
  0
LINE
  8
0
 10
-3.78101
 20
3.49944
 11
-4.33733
 21
2.6145
  0
LINE
  8
0
 10
-4.33733
 20
2.6145
 11
-4.69751
 21
1.63324
  0
LINE
  8
0
 10
-4.69751
 20
1.63324
 11
-4.84816
 21
1.22279
  0
LINE
  8
0
 10
-4.84816
 20
1.22279
 11
-4.99644
 21
0.18808
  0
ENDSEC
  0
SECTION
  2
OBJECTS
  0
DICTIONARY
  0
ENDSEC
  0
EOF
