  0
SECTION
  2
BLOCKS
  0
ENDSEC
  0
SECTION
  2
ENTITIES
  0
LINE
  8
0
 10
-4.99924
 20
0.0862885
 11
-4.90794
 21
-0.954987
  0
LINE
  8
0
 10
-4.90794
 20
-0.954987
 11
-4.60214
 21
-1.95453
  0
LINE
  8
0
 10
-4.60214
 20
-1.95453
 11
-0.21344
 21
-16.2994
  0
LINE
  8
0
 10
-0.21344
 20
-16.2994
 11
0.293488
 21
-17.2135
  0
LINE
  8
0
 10
0.293488
 20
-17.2135
 11
0.979401
 21
-18.0023
  0
LINE
  8
0
 10
0.979401
 20
-18.0023
 11
1.81433
 21
-18.6312
  0
LINE
  8
0
 10
1.81433
 20
-18.6312
 11
2.76175
 21
-19.0728
  0
LINE
  8
0
 10
2.76175
 20
-19.0728
 11
3.7803
 21
-19.3077
  0
LINE
  8
0
 10
3.7803
 20
-19.3077
 11
4.82542
 21
-19.3258
  0
LINE
  8
0
 10
4.82542
 20
-19.3258
 11
5.85147
 21
-19.1261
  0
LINE
  8
0
 10
5.85147
 20
-19.1261
 11
6.81358
 21
-18.7175
  0
LINE
  8
0
 10
6.81358
 20
-18.7175
 11
7.66971
 21
-18.1178
  0
LINE
  8
0
 10
7.66971
 20
-18.1178
 11
8.38245
 21
-17.3532
  0
LINE
  8
0
 10
8.38245
 20
-17.3532
 11
8.92062
 21
-16.4571
  0
LINE
  8
0
 10
8.92062
 20
-16.4571
 11
9.26076
 21
-15.4687
  0
LINE
  8
0
 10
9.26076
 20
-15.4687
 11
9.38794
 21
-14.4312
  0
LINE
  8
0
 10
9.38794
 20
-14.4312
 11
9.29665
 21
-13.3899
  0
LINE
  8
0
 10
9.29665
 20
-13.3899
 11
4.60214
 21
1.95453
  0
LINE
  8
0
 10
4.60214
 20
1.95453
 11
4.0952
 21
2.86865
  0
LINE
  8
0
 10
4.0952
 20
2.86865
 11
3.40929
 21
3.65742
  0
LINE
  8
0
 10
3.40929
 20
3.65742
 11
2.57436
 21
4.28632
  0
LINE
  8
0
 10
2.57436
 20
4.28632
 11
1.62692
 21
4.72789
  0
LINE
  8
0
 10
1.62692
 20
4.72789
 11
0.608383
 21
4.96284
  0
LINE
  8
0
 10
0.608383
 20
4.96284
 11
-0.436737
 21
4.98088
  0
LINE
  8
0
 10
-0.436737
 20
4.98088
 11
-1.46277
 21
4.78123
  0
LINE
  8
0
 10
-1.46277
 20
4.78123
 11
-2.42488
 21
4.37262
  0
LINE
  8
0
 10
-2.42488
 20
4.37262
 11
-3.28101
 21
3.77292
  0
LINE
  8
0
 10
-3.28101
 20
3.77292
 11
-3.99376
 21
3.00829
  0
LINE
  8
0
 10
-3.99376
 20
3.00829
 11
-4.53194
 21
2.11221
  0
LINE
  8
0
 10
-4.53194
 20
2.11221
 11
-4.87206
 21
1.12381
  0
LINE
  8
0
 10
-4.87206
 20
1.12381
 11
-4.99924
 21
0.0862885
  0
ENDSEC
  0
SECTION
  2
OBJECTS
  0
DICTIONARY
  0
ENDSEC
  0
EOF
