  0
SECTION
  2
BLOCKS
  0
ENDSEC
  0
SECTION
  2
ENTITIES
  0
LINE
  8
0
 10
-4.99937
 20
-0.0782928
 11
-4.87386
 21
-1.11601
  0
LINE
  8
0
 10
-4.87386
 20
-1.11601
 11
-4.53531
 21
-2.10495
  0
LINE
  8
0
 10
-4.53531
 20
-2.10495
 11
-3.99857
 21
-3.00189
  0
LINE
  8
0
 10
-3.99857
 20
-3.00189
 11
-3.28705
 21
-3.76765
  0
LINE
  8
0
 10
-3.28705
 20
-3.76765
 11
-2.43188
 21
-4.36874
  0
LINE
  8
0
 10
-2.43188
 20
-4.36874
 11
-1.47043
 21
-4.77888
  0
LINE
  8
0
 10
-1.47043
 20
-4.77888
 11
-0.444702
 21
-4.98018
  0
LINE
  8
0
 10
-0.444702
 20
-4.98018
 11
0.600433
 21
-4.96381
  0
LINE
  8
0
 10
0.600433
 20
-4.96381
 11
1.61935
 21
-4.7305
  0
LINE
  8
0
 10
1.61935
 20
-4.7305
 11
2.56749
 21
-4.29044
  0
LINE
  8
0
 10
2.56749
 20
-4.29044
 11
3.40343
 21
-3.66287
  0
LINE
  8
0
 10
3.40343
 20
-3.66287
 11
4.09061
 21
-2.87521
  0
LINE
  8
0
 10
4.09061
 20
-2.87521
 11
4.59901
 21
-1.9619
  0
LINE
  8
0
 10
4.59901
 20
-1.9619
 11
44.599
 21
128.038
  0
LINE
  8
0
 10
44.599
 20
128.038
 11
44.9064
 21
129.037
  0
LINE
  8
0
 10
44.9064
 20
129.037
 11
44.9994
 21
130.078
  0
LINE
  8
0
 10
44.9994
 20
130.078
 11
44.8739
 21
131.116
  0
LINE
  8
0
 10
44.8739
 20
131.116
 11
44.5353
 21
132.105
  0
LINE
  8
0
 10
44.5353
 20
132.105
 11
43.9986
 21
133.002
  0
LINE
  8
0
 10
43.9986
 20
133.002
 11
43.287
 21
133.768
  0
LINE
  8
0
 10
43.287
 20
133.768
 11
42.4319
 21
134.369
  0
LINE
  8
0
 10
42.4319
 20
134.369
 11
41.4704
 21
134.779
  0
LINE
  8
0
 10
41.4704
 20
134.779
 11
40.4447
 21
134.98
  0
LINE
  8
0
 10
40.4447
 20
134.98
 11
39.3996
 21
134.964
  0
LINE
  8
0
 10
39.3996
 20
134.964
 11
38.3806
 21
134.73
  0
LINE
  8
0
 10
38.3806
 20
134.73
 11
37.4325
 21
134.29
  0
LINE
  8
0
 10
37.4325
 20
134.29
 11
36.5966
 21
133.663
  0
LINE
  8
0
 10
36.5966
 20
133.663
 11
35.9094
 21
132.875
  0
LINE
  8
0
 10
35.9094
 20
132.875
 11
35.401
 21
131.962
  0
LINE
  8
0
 10
35.401
 20
131.962
 11
-4.59901
 21
1.9619
  0
LINE
  8
0
 10
-4.59901
 20
1.9619
 11
-4.90642
 21
0.96283
  0
LINE
  8
0
 10
-4.90642
 20
0.96283
 11
-4.99937
 21
-0.0782928
  0
ENDSEC
  0
SECTION
  2
OBJECTS
  0
DICTIONARY
  0
ENDSEC
  0
EOF
