  0
SECTION
  2
BLOCKS
  0
ENDSEC
  0
SECTION
  2
ENTITIES
  0
LINE
  8
0
 10
-1055.67
 20
-911.922
 11
-1055.48
 21
-912.948
  0
LINE
  8
0
 10
-1055.48
 20
-912.948
 11
-1055.07
 21
-913.911
  0
LINE
  8
0
 10
-1055.07
 20
-913.911
 11
-1054.47
 21
-914.768
  0
LINE
  8
0
 10
-1054.47
 20
-914.768
 11
-1053.71
 21
-915.482
  0
LINE
  8
0
 10
-1053.71
 20
-915.482
 11
-1052.81
 21
-916.021
  0
LINE
  8
0
 10
-1052.81
 20
-916.021
 11
-1051.82
 21
-916.362
  0
LINE
  8
0
 10
-1051.82
 20
-916.362
 11
-1050.79
 21
-916.491
  0
LINE
  8
0
 10
-1050.79
 20
-916.491
 11
-1049.74
 21
-916.4
  0
LINE
  8
0
 10
-1049.74
 20
-916.4
 11
-1048.74
 21
-916.096
  0
LINE
  8
0
 10
-1048.74
 20
-916.096
 11
-1047.83
 21
-915.59
  0
LINE
  8
0
 10
-1047.83
 20
-915.59
 11
82.8637
 21
25.9013
  0
LINE
  8
0
 10
82.8637
 20
25.9013
 11
83.6533
 21
26.5863
  0
LINE
  8
0
 10
83.6533
 20
26.5863
 11
84.2832
 21
27.4205
  0
LINE
  8
0
 10
84.2832
 20
27.4205
 11
84.7259
 21
28.3674
  0
LINE
  8
0
 10
84.7259
 20
28.3674
 11
84.9621
 21
29.3856
  0
LINE
  8
0
 10
84.9621
 20
29.3856
 11
84.9814
 21
30.4307
  0
LINE
  8
0
 10
84.9814
 20
30.4307
 11
84.783
 21
31.457
  0
LINE
  8
0
 10
84.783
 20
31.457
 11
84.3755
 21
32.4196
  0
LINE
  8
0
 10
84.3755
 20
32.4196
 11
83.7769
 21
33.2765
  0
LINE
  8
0
 10
83.7769
 20
33.2765
 11
83.0131
 21
33.9901
  0
LINE
  8
0
 10
83.0131
 20
33.9901
 11
82.1177
 21
34.5294
  0
LINE
  8
0
 10
82.1177
 20
34.5294
 11
81.1297
 21
34.8707
  0
LINE
  8
0
 10
81.1297
 20
34.8707
 11
80.0923
 21
34.9991
  0
LINE
  8
0
 10
80.0923
 20
34.9991
 11
79.0509
 21
34.9091
  0
LINE
  8
0
 10
79.0509
 20
34.9091
 11
78.051
 21
34.6045
  0
LINE
  8
0
 10
78.051
 20
34.6045
 11
-1.94901
 21
4.60448
  0
LINE
  8
0
 10
-1.94901
 20
4.60448
 11
-2.86374
 21
4.09865
  0
LINE
  8
0
 10
-2.86374
 20
4.09865
 11
-3.65332
 21
3.41368
  0
LINE
  8
0
 10
-3.65332
 20
3.41368
 11
-1054.35
 21
-908.078
  0
LINE
  8
0
 10
-1054.35
 20
-908.078
 11
-1054.98
 21
-908.912
  0
LINE
  8
0
 10
-1054.98
 20
-908.912
 11
-1055.42
 21
-909.859
  0
LINE
  8
0
 10
-1055.42
 20
-909.859
 11
-1055.66
 21
-910.877
  0
LINE
  8
0
 10
-1055.66
 20
-910.877
 11
-1055.67
 21
-911.922
  0
ENDSEC
  0
SECTION
  2
OBJECTS
  0
DICTIONARY
  0
ENDSEC
  0
EOF
