  0
SECTION
  2
BLOCKS
  0
ENDSEC
  0
SECTION
  2
ENTITIES
  0
LINE
  8
0
 10
-14.9119
 20
81.6786
 11
-4.87355
 21
-1.11734
  0
LINE
  8
0
 10
-4.87355
 20
-1.11734
 11
-4.53473
 21
-2.10619
  0
LINE
  8
0
 10
-4.53473
 20
-2.10619
 11
-3.99774
 21
-3.00299
  0
LINE
  8
0
 10
-3.99774
 20
-3.00299
 11
-3.28601
 21
-3.76855
  0
LINE
  8
0
 10
-3.28601
 20
-3.76855
 11
-2.43069
 21
-4.3694
  0
LINE
  8
0
 10
-2.43069
 20
-4.3694
 11
-1.46912
 21
-4.7793
  0
LINE
  8
0
 10
-1.46912
 20
-4.7793
 11
-0.443344
 21
-4.9803
  0
LINE
  8
0
 10
-0.443344
 20
-4.9803
 11
0.601791
 21
-4.96364
  0
LINE
  8
0
 10
0.601791
 20
-4.96364
 11
1.62065
 21
-4.73006
  0
LINE
  8
0
 10
1.62065
 20
-4.73006
 11
2.56866
 21
-4.28973
  0
LINE
  8
0
 10
2.56866
 20
-4.28973
 11
3.40442
 21
-3.66193
  0
LINE
  8
0
 10
3.40442
 20
-3.66193
 11
4.09138
 21
-2.8741
  0
LINE
  8
0
 10
4.09138
 20
-2.8741
 11
4.59955
 21
-1.96063
  0
LINE
  8
0
 10
4.59955
 20
-1.96063
 11
4.90668
 21
-0.961487
  0
LINE
  8
0
 10
4.90668
 20
-0.961487
 11
4.99936
 21
0.0796509
  0
LINE
  8
0
 10
4.99936
 20
0.0796509
 11
4.87355
 21
1.11734
  0
LINE
  8
0
 10
4.87355
 20
1.11734
 11
-5.039
 21
82.8756
  0
LINE
  8
0
 10
-5.039
 20
82.8756
 11
-5.37781
 21
83.8645
  0
LINE
  8
0
 10
-5.37781
 20
83.8645
 11
-5.91481
 21
84.7613
  0
LINE
  8
0
 10
-5.91481
 20
84.7613
 11
-6.62653
 21
85.5269
  0
LINE
  8
0
 10
-6.62653
 20
85.5269
 11
-7.48186
 21
86.1277
  0
LINE
  8
0
 10
-7.48186
 20
86.1277
 11
-8.44344
 21
86.5376
  0
LINE
  8
0
 10
-8.44344
 20
86.5376
 11
-9.46921
 21
86.7386
  0
LINE
  8
0
 10
-9.46921
 20
86.7386
 11
-10.5144
 21
86.7219
  0
LINE
  8
0
 10
-10.5144
 20
86.7219
 11
-11.5332
 21
86.4884
  0
LINE
  8
0
 10
-11.5332
 20
86.4884
 11
-12.4812
 21
86.048
  0
LINE
  8
0
 10
-12.4812
 20
86.048
 11
-13.317
 21
85.4202
  0
LINE
  8
0
 10
-13.317
 20
85.4202
 11
-14.004
 21
84.6324
  0
LINE
  8
0
 10
-14.004
 20
84.6324
 11
-14.5121
 21
83.7189
  0
LINE
  8
0
 10
-14.5121
 20
83.7189
 11
-14.8192
 21
82.7198
  0
LINE
  8
0
 10
-14.8192
 20
82.7198
 11
-14.9119
 21
81.6786
  0
ENDSEC
  0
SECTION
  2
OBJECTS
  0
DICTIONARY
  0
ENDSEC
  0
EOF
