  0
SECTION
  2
BLOCKS
  0
ENDSEC
  0
SECTION
  2
ENTITIES
  0
LINE
  8
0
 10
-4.99945
 20
0.0735931
 11
-4.9055
 21
-0.967453
  0
LINE
  8
0
 10
-4.9055
 20
-0.967453
 11
-4.59715
 21
-1.96623
  0
LINE
  8
0
 10
-4.59715
 20
-1.96623
 11
-4.08789
 21
-2.87906
  0
LINE
  8
0
 10
-4.08789
 20
-2.87906
 11
-3.39996
 21
-3.66608
  0
LINE
  8
0
 10
-3.39996
 20
-3.66608
 11
-2.56346
 21
-4.29286
  0
LINE
  8
0
 10
-2.56346
 20
-4.29286
 11
-1.6149
 21
-4.73203
  0
LINE
  8
0
 10
-1.6149
 20
-4.73203
 11
-0.595764
 21
-4.96437
  0
LINE
  8
0
 10
-0.595764
 20
-4.96437
 11
0.449387
 21
-4.97975
  0
LINE
  8
0
 10
0.449387
 20
-4.97975
 11
1.47493
 21
-4.7775
  0
LINE
  8
0
 10
1.47493
 20
-4.7775
 11
2.43599
 21
-4.36644
  0
LINE
  8
0
 10
2.43599
 20
-4.36644
 11
3.2906
 21
-3.76456
  0
LINE
  8
0
 10
3.2906
 20
-3.76456
 11
4.00139
 21
-2.99814
  0
LINE
  8
0
 10
4.00139
 20
-2.99814
 11
4.53729
 21
-2.10068
  0
LINE
  8
0
 10
4.53729
 20
-2.10068
 11
8.40286
 21
9.22624
  0
LINE
  8
0
 10
8.40286
 20
9.22624
 11
8.5274
 21
10.2641
  0
LINE
  8
0
 10
8.5274
 20
10.2641
 11
8.43346
 21
11.3051
  0
LINE
  8
0
 10
8.43346
 20
11.3051
 11
8.12511
 21
12.3039
  0
LINE
  8
0
 10
8.12511
 20
12.3039
 11
7.61586
 21
13.2167
  0
LINE
  8
0
 10
7.61586
 20
13.2167
 11
6.92793
 21
14.0038
  0
LINE
  8
0
 10
6.92793
 20
14.0038
 11
6.09142
 21
14.6305
  0
LINE
  8
0
 10
6.09142
 20
14.6305
 11
5.14285
 21
15.0697
  0
LINE
  8
0
 10
5.14285
 20
15.0697
 11
4.12372
 21
15.302
  0
LINE
  8
0
 10
4.12372
 20
15.302
 11
3.07855
 21
15.3174
  0
LINE
  8
0
 10
3.07855
 20
15.3174
 11
2.05302
 21
15.1152
  0
LINE
  8
0
 10
2.05302
 20
15.1152
 11
1.09195
 21
14.7041
  0
LINE
  8
0
 10
1.09195
 20
14.7041
 11
0.23735
 21
14.1022
  0
LINE
  8
0
 10
0.23735
 20
14.1022
 11
-0.473419
 21
13.3358
  0
LINE
  8
0
 10
-0.473419
 20
13.3358
 11
-1.00934
 21
12.4384
  0
LINE
  8
0
 10
-1.00934
 20
12.4384
 11
-4.53729
 21
2.10068
  0
LINE
  8
0
 10
-4.53729
 20
2.10068
 11
-4.87489
 21
1.11142
  0
LINE
  8
0
 10
-4.87489
 20
1.11142
 11
-4.99945
 21
0.0735931
  0
ENDSEC
  0
SECTION
  2
OBJECTS
  0
DICTIONARY
  0
ENDSEC
  0
EOF
