  0
SECTION
  2
BLOCKS
  0
ENDSEC
  0
SECTION
  2
ENTITIES
  0
LINE
  8
0
 10
-96.9633
 20
-206.186
 11
-96.9632
 21
-207.231
  0
LINE
  8
0
 10
-96.9632
 20
-207.231
 11
-96.7457
 21
-208.253
  0
LINE
  8
0
 10
-96.7457
 20
-208.253
 11
-96.3203
 21
-209.208
  0
LINE
  8
0
 10
-96.3203
 20
-209.208
 11
-95.7058
 21
-210.054
  0
LINE
  8
0
 10
-95.7058
 20
-210.054
 11
-94.9289
 21
-210.753
  0
LINE
  8
0
 10
-94.9289
 20
-210.753
 11
-94.0235
 21
-211.275
  0
LINE
  8
0
 10
-94.0235
 20
-211.275
 11
-93.0294
 21
-211.598
  0
LINE
  8
0
 10
-93.0294
 20
-211.598
 11
-91.9898
 21
-211.707
  0
LINE
  8
0
 10
-91.9898
 20
-211.707
 11
-90.9502
 21
-211.598
  0
LINE
  8
0
 10
-90.9502
 20
-211.598
 11
-89.9562
 21
-211.275
  0
LINE
  8
0
 10
-89.9562
 20
-211.275
 11
-89.051
 21
-210.752
  0
LINE
  8
0
 10
-89.051
 20
-210.752
 11
-88.2743
 21
-210.052
  0
LINE
  8
0
 10
-88.2743
 20
-210.052
 11
-87.6601
 21
-209.207
  0
LINE
  8
0
 10
-87.6601
 20
-209.207
 11
4.75554
 21
-1.54428
  0
LINE
  8
0
 10
4.75554
 20
-1.54428
 11
4.97269
 21
-0.521805
  0
LINE
  8
0
 10
4.97269
 20
-0.521805
 11
4.97252
 21
0.523468
  0
LINE
  8
0
 10
4.97252
 20
0.523468
 11
4.755
 21
1.54587
  0
LINE
  8
0
 10
4.755
 20
1.54587
 11
4.3297
 21
2.50072
  0
LINE
  8
0
 10
4.3297
 20
2.50072
 11
3.71515
 21
3.34627
  0
LINE
  8
0
 10
3.71515
 20
3.34627
 11
2.93825
 21
4.04556
  0
LINE
  8
0
 10
2.93825
 20
4.04556
 11
2.03291
 21
4.56805
  0
LINE
  8
0
 10
2.03291
 20
4.56805
 11
1.03873
 21
4.8909
  0
LINE
  8
0
 10
1.03873
 20
4.8909
 11
-0.000823975
 21
5
  0
LINE
  8
0
 10
-0.000823975
 20
5
 11
-1.04037
 21
4.89055
  0
LINE
  8
0
 10
-1.04037
 20
4.89055
 11
-2.03444
 21
4.56737
  0
LINE
  8
0
 10
-2.03444
 20
4.56737
 11
-2.93959
 21
4.04459
  0
LINE
  8
0
 10
-2.93959
 20
4.04459
 11
-3.71628
 21
3.34502
  0
LINE
  8
0
 10
-3.71628
 20
3.34502
 11
-4.33054
 21
2.49927
  0
LINE
  8
0
 10
-4.33054
 20
2.49927
 11
-4.75554
 21
1.54428
  0
LINE
  8
0
 10
-4.75554
 20
1.54428
 11
-96.7462
 21
-205.163
  0
LINE
  8
0
 10
-96.7462
 20
-205.163
 11
-96.9633
 21
-206.186
  0
ENDSEC
  0
SECTION
  2
OBJECTS
  0
DICTIONARY
  0
ENDSEC
  0
EOF
