  0
SECTION
  2
BLOCKS
  0
ENDSEC
  0
SECTION
  2
ENTITIES
  0
LINE
  8
0
 10
-5
 20
2.83277e-15
 11
-4.89074
 21
-1.03956
  0
LINE
  8
0
 10
-4.89074
 20
-1.03956
 11
-4.56773
 21
-2.03368
  0
LINE
  8
0
 10
-4.56773
 20
-2.03368
 11
-4.04508
 21
-2.93893
  0
LINE
  8
0
 10
-4.04508
 20
-2.93893
 11
-3.34565
 21
-3.71572
  0
LINE
  8
0
 10
-3.34565
 20
-3.71572
 11
-2.5
 21
-4.33013
  0
LINE
  8
0
 10
-2.5
 20
-4.33013
 11
-1.54508
 21
-4.75528
  0
LINE
  8
0
 10
-1.54508
 20
-4.75528
 11
-0.522642
 21
-4.97261
  0
LINE
  8
0
 10
-0.522642
 20
-4.97261
 11
0.522642
 21
-4.97261
  0
LINE
  8
0
 10
0.522642
 20
-4.97261
 11
1.54508
 21
-4.75528
  0
LINE
  8
0
 10
1.54508
 20
-4.75528
 11
2.5
 21
-4.33013
  0
LINE
  8
0
 10
2.5
 20
-4.33013
 11
3.34565
 21
-3.71572
  0
LINE
  8
0
 10
3.34565
 20
-3.71572
 11
4.04508
 21
-2.93893
  0
LINE
  8
0
 10
4.04508
 20
-2.93893
 11
4.56773
 21
-2.03368
  0
LINE
  8
0
 10
4.56773
 20
-2.03368
 11
4.89074
 21
-1.03956
  0
LINE
  8
0
 10
4.89074
 20
-1.03956
 11
27.3003
 21
132.22
  0
LINE
  8
0
 10
27.3003
 20
132.22
 11
27.4095
 21
133.26
  0
LINE
  8
0
 10
27.4095
 20
133.26
 11
27.3003
 21
134.3
  0
LINE
  8
0
 10
27.3003
 20
134.3
 11
26.9772
 21
135.294
  0
LINE
  8
0
 10
26.9772
 20
135.294
 11
26.4546
 21
136.199
  0
LINE
  8
0
 10
26.4546
 20
136.199
 11
25.7552
 21
136.976
  0
LINE
  8
0
 10
25.7552
 20
136.976
 11
24.9095
 21
137.59
  0
LINE
  8
0
 10
24.9095
 20
137.59
 11
23.9546
 21
138.015
  0
LINE
  8
0
 10
23.9546
 20
138.015
 11
22.9322
 21
138.233
  0
LINE
  8
0
 10
22.9322
 20
138.233
 11
21.8869
 21
138.233
  0
LINE
  8
0
 10
21.8869
 20
138.233
 11
20.8644
 21
138.015
  0
LINE
  8
0
 10
20.8644
 20
138.015
 11
19.9095
 21
137.59
  0
LINE
  8
0
 10
19.9095
 20
137.59
 11
19.0639
 21
136.976
  0
LINE
  8
0
 10
19.0639
 20
136.976
 11
18.3644
 21
136.199
  0
LINE
  8
0
 10
18.3644
 20
136.199
 11
17.8418
 21
135.294
  0
LINE
  8
0
 10
17.8418
 20
135.294
 11
17.5188
 21
134.3
  0
LINE
  8
0
 10
17.5188
 20
134.3
 11
-4.89074
 21
1.03956
  0
LINE
  8
0
 10
-4.89074
 20
1.03956
 11
-5
 21
2.83277e-15
  0
ENDSEC
  0
SECTION
  2
OBJECTS
  0
DICTIONARY
  0
ENDSEC
  0
EOF
