  0
SECTION
  2
BLOCKS
  0
ENDSEC
  0
SECTION
  2
ENTITIES
  0
LINE
  8
0
 10
-40.2655
 20
-165.894
 11
-40.049
 21
-166.916
  0
LINE
  8
0
 10
-40.049
 20
-166.916
 11
-39.6246
 21
-167.872
  0
LINE
  8
0
 10
-39.6246
 20
-167.872
 11
-39.0109
 21
-168.718
  0
LINE
  8
0
 10
-39.0109
 20
-168.718
 11
-38.2347
 21
-169.418
  0
LINE
  8
0
 10
-38.2347
 20
-169.418
 11
-37.3299
 21
-169.941
  0
LINE
  8
0
 10
-37.3299
 20
-169.941
 11
-36.336
 21
-170.265
  0
LINE
  8
0
 10
-36.336
 20
-170.265
 11
-35.2966
 21
-170.375
  0
LINE
  8
0
 10
-35.2966
 20
-170.375
 11
-34.2569
 21
-170.267
  0
LINE
  8
0
 10
-34.2569
 20
-170.267
 11
-33.2625
 21
-169.945
  0
LINE
  8
0
 10
-33.2625
 20
-169.945
 11
-32.3569
 21
-169.423
  0
LINE
  8
0
 10
-32.3569
 20
-169.423
 11
-31.5795
 21
-168.724
  0
LINE
  8
0
 10
-31.5795
 20
-168.724
 11
-30.9644
 21
-167.879
  0
LINE
  8
0
 10
-30.9644
 20
-167.879
 11
-30.5385
 21
-166.924
  0
LINE
  8
0
 10
-30.5385
 20
-166.924
 11
4.75401
 21
-1.54895
  0
LINE
  8
0
 10
4.75401
 20
-1.54895
 11
4.97217
 21
-0.526688
  0
LINE
  8
0
 10
4.97217
 20
-0.526688
 11
4.97302
 21
0.51857
  0
LINE
  8
0
 10
4.97302
 20
0.51857
 11
4.75653
 21
1.5412
  0
LINE
  8
0
 10
4.75653
 20
1.5412
 11
4.33215
 21
2.49646
  0
LINE
  8
0
 10
4.33215
 20
2.49646
 11
3.71844
 21
3.34261
  0
LINE
  8
0
 10
3.71844
 20
3.34261
 11
2.94221
 21
4.04268
  0
LINE
  8
0
 10
2.94221
 20
4.04268
 11
2.0374
 21
4.56606
  0
LINE
  8
0
 10
2.0374
 20
4.56606
 11
1.04353
 21
4.88988
  0
LINE
  8
0
 10
1.04353
 20
4.88988
 11
0.0040741
 21
5
  0
LINE
  8
0
 10
0.0040741
 20
5
 11
-1.03555
 21
4.89157
  0
LINE
  8
0
 10
-1.03555
 20
4.89157
 11
-2.02995
 21
4.56937
  0
LINE
  8
0
 10
-2.02995
 20
4.56937
 11
-2.93562
 21
4.04747
  0
LINE
  8
0
 10
-2.93562
 20
4.04747
 11
-3.713
 21
3.34868
  0
LINE
  8
0
 10
-3.713
 20
3.34868
 11
-4.32808
 21
2.50351
  0
LINE
  8
0
 10
-4.32808
 20
2.50351
 11
-4.75401
 21
1.54895
  0
LINE
  8
0
 10
-4.75401
 20
1.54895
 11
-40.0465
 21
-163.826
  0
LINE
  8
0
 10
-40.0465
 20
-163.826
 11
-40.2647
 21
-164.848
  0
LINE
  8
0
 10
-40.2647
 20
-164.848
 11
-40.2655
 21
-165.894
  0
ENDSEC
  0
SECTION
  2
OBJECTS
  0
DICTIONARY
  0
ENDSEC
  0
EOF
