  0
SECTION
  2
BLOCKS
  0
ENDSEC
  0
SECTION
  2
ENTITIES
  0
LINE
  8
0
 10
-4.99808
 20
-0.138229
 11
-4.86012
 21
-1.17438
  0
LINE
  8
0
 10
-4.86012
 20
-1.17438
 11
-4.50975
 21
-2.15919
  0
LINE
  8
0
 10
-4.50975
 20
-2.15919
 11
-3.96227
 21
-3.04964
  0
LINE
  8
0
 10
-3.96227
 20
-3.04964
 11
-3.24164
 21
-3.80679
  0
LINE
  8
0
 10
-3.24164
 20
-3.80679
 11
-2.3793
 21
-4.39758
  0
LINE
  8
0
 10
-2.3793
 20
-4.39758
 11
-1.41301
 21
-4.79617
  0
LINE
  8
0
 10
-1.41301
 20
-4.79617
 11
-0.384949
 21
-4.98515
  0
LINE
  8
0
 10
-0.384949
 20
-4.98515
 11
0.659927
 21
-4.95625
  0
LINE
  8
0
 10
0.659927
 20
-4.95625
 11
1.67596
 21
-4.71074
  0
LINE
  8
0
 10
1.67596
 20
-4.71074
 11
2.61876
 21
-4.25934
  0
LINE
  8
0
 10
2.61876
 20
-4.25934
 11
3.4471
 21
-3.6218
  0
LINE
  8
0
 10
3.4471
 20
-3.6218
 11
4.12479
 21
-2.82596
  0
LINE
  8
0
 10
4.12479
 20
-2.82596
 11
4.62221
 21
-1.9066
  0
LINE
  8
0
 10
4.62221
 20
-1.9066
 11
4.9176
 21
-0.903931
  0
LINE
  8
0
 10
4.9176
 20
-0.903931
 11
6.10281
 21
14.4445
  0
LINE
  8
0
 10
6.10281
 20
14.4445
 11
6.18329
 21
15.4866
  0
LINE
  8
0
 10
6.18329
 20
15.4866
 11
6.04532
 21
16.5228
  0
LINE
  8
0
 10
6.04532
 20
16.5228
 11
5.69496
 21
17.5076
  0
LINE
  8
0
 10
5.69496
 20
17.5076
 11
5.14748
 21
18.3981
  0
LINE
  8
0
 10
5.14748
 20
18.3981
 11
4.42685
 21
19.1552
  0
LINE
  8
0
 10
4.42685
 20
19.1552
 11
3.56451
 21
19.746
  0
LINE
  8
0
 10
3.56451
 20
19.746
 11
2.59822
 21
20.1446
  0
LINE
  8
0
 10
2.59822
 20
20.1446
 11
1.57016
 21
20.3336
  0
LINE
  8
0
 10
1.57016
 20
20.3336
 11
0.525269
 21
20.3047
  0
LINE
  8
0
 10
0.525269
 20
20.3047
 11
-0.490753
 21
20.0592
  0
LINE
  8
0
 10
-0.490753
 20
20.0592
 11
-1.43355
 21
19.6078
  0
LINE
  8
0
 10
-1.43355
 20
19.6078
 11
-2.26189
 21
18.9702
  0
LINE
  8
0
 10
-2.26189
 20
18.9702
 11
-2.93958
 21
18.1744
  0
LINE
  8
0
 10
-2.93958
 20
18.1744
 11
-3.437
 21
17.255
  0
LINE
  8
0
 10
-3.437
 20
17.255
 11
-3.73239
 21
16.2523
  0
LINE
  8
0
 10
-3.73239
 20
16.2523
 11
-4.9176
 21
0.903931
  0
LINE
  8
0
 10
-4.9176
 20
0.903931
 11
-4.99808
 21
-0.138229
  0
ENDSEC
  0
SECTION
  2
OBJECTS
  0
DICTIONARY
  0
ENDSEC
  0
EOF
