  0
SECTION
  2
BLOCKS
  0
ENDSEC
  0
SECTION
  2
ENTITIES
  0
LINE
  8
0
 10
-5
 20
2.83277e-15
 11
-4.89074
 21
-1.03956
  0
LINE
  8
0
 10
-4.89074
 20
-1.03956
 11
-4.56773
 21
-2.03368
  0
LINE
  8
0
 10
-4.56773
 20
-2.03368
 11
-4.04508
 21
-2.93893
  0
LINE
  8
0
 10
-4.04508
 20
-2.93893
 11
-3.34565
 21
-3.71572
  0
LINE
  8
0
 10
-3.34565
 20
-3.71572
 11
-2.5
 21
-4.33013
  0
LINE
  8
0
 10
-2.5
 20
-4.33013
 11
-1.54508
 21
-4.75528
  0
LINE
  8
0
 10
-1.54508
 20
-4.75528
 11
-0.522642
 21
-4.97261
  0
LINE
  8
0
 10
-0.522642
 20
-4.97261
 11
0.522642
 21
-4.97261
  0
LINE
  8
0
 10
0.522642
 20
-4.97261
 11
1.54508
 21
-4.75528
  0
LINE
  8
0
 10
1.54508
 20
-4.75528
 11
2.5
 21
-4.33013
  0
LINE
  8
0
 10
2.5
 20
-4.33013
 11
3.34565
 21
-3.71572
  0
LINE
  8
0
 10
3.34565
 20
-3.71572
 11
4.04508
 21
-2.93893
  0
LINE
  8
0
 10
4.04508
 20
-2.93893
 11
4.56773
 21
-2.03368
  0
LINE
  8
0
 10
4.56773
 20
-2.03368
 11
4.89074
 21
-1.03956
  0
LINE
  8
0
 10
4.89074
 20
-1.03956
 11
18.114
 21
101.791
  0
LINE
  8
0
 10
18.114
 20
101.791
 11
18.2232
 21
102.831
  0
LINE
  8
0
 10
18.2232
 20
102.831
 11
18.114
 21
103.871
  0
LINE
  8
0
 10
18.114
 20
103.871
 11
17.791
 21
104.865
  0
LINE
  8
0
 10
17.791
 20
104.865
 11
17.2683
 21
105.77
  0
LINE
  8
0
 10
17.2683
 20
105.77
 11
16.5689
 21
106.547
  0
LINE
  8
0
 10
16.5689
 20
106.547
 11
15.7232
 21
107.161
  0
LINE
  8
0
 10
15.7232
 20
107.161
 11
14.7683
 21
107.586
  0
LINE
  8
0
 10
14.7683
 20
107.586
 11
13.7459
 21
107.804
  0
LINE
  8
0
 10
13.7459
 20
107.804
 11
12.7006
 21
107.804
  0
LINE
  8
0
 10
12.7006
 20
107.804
 11
11.6781
 21
107.586
  0
LINE
  8
0
 10
11.6781
 20
107.586
 11
10.7232
 21
107.161
  0
LINE
  8
0
 10
10.7232
 20
107.161
 11
9.87758
 21
106.547
  0
LINE
  8
0
 10
9.87758
 20
106.547
 11
9.17814
 21
105.77
  0
LINE
  8
0
 10
9.17814
 20
105.77
 11
8.6555
 21
104.865
  0
LINE
  8
0
 10
8.6555
 20
104.865
 11
8.33249
 21
103.871
  0
LINE
  8
0
 10
8.33249
 20
103.871
 11
-4.89074
 21
1.03956
  0
LINE
  8
0
 10
-4.89074
 20
1.03956
 11
-5
 21
2.83277e-15
  0
ENDSEC
  0
SECTION
  2
OBJECTS
  0
DICTIONARY
  0
ENDSEC
  0
EOF
