  0
SECTION
  2
BLOCKS
  0
ENDSEC
  0
SECTION
  2
ENTITIES
  0
LINE
  8
0
 10
2.1375
 20
-0.0581818
 11
2.31799
 21
-0.040741
  0
LINE
  8
0
 10
2.31799
 20
-0.040741
 11
2.48749
 21
-0.011673
  0
LINE
  8
0
 10
2.48749
 20
-0.011673
 11
2.646
 21
0.0289917
  0
LINE
  8
0
 10
2.646
 20
0.0289917
 11
2.79324
 21
0.0808105
  0
LINE
  8
0
 10
2.79324
 20
0.0808105
 11
2.92799
 21
0.14325
  0
LINE
  8
0
 10
2.92799
 20
0.14325
 11
3.05025
 21
0.216309
  0
LINE
  8
0
 10
3.05025
 20
0.216309
 11
3.15999
 21
0.299988
  0
LINE
  8
0
 10
3.15999
 20
0.299988
 11
3.25774
 21
0.393936
  0
LINE
  8
0
 10
3.25774
 20
0.393936
 11
3.34299
 21
0.497742
  0
LINE
  8
0
 10
3.34299
 20
0.497742
 11
3.41574
 21
0.611435
  0
LINE
  8
0
 10
3.41574
 20
0.611435
 11
3.476
 21
0.734985
  0
LINE
  8
0
 10
3.476
 20
0.734985
 11
3.52324
 21
0.868362
  0
LINE
  8
0
 10
3.52324
 20
0.868362
 11
3.55699
 21
1.0105
  0
LINE
  8
0
 10
3.55699
 20
1.0105
 11
3.57724
 21
1.16136
  0
LINE
  8
0
 10
3.57724
 20
1.16136
 11
3.584
 21
1.321
  0
LINE
  8
0
 10
3.584
 20
1.321
 11
3.57956
 21
1.42468
  0
LINE
  8
0
 10
3.57956
 20
1.42468
 11
3.56624
 21
1.52574
  0
LINE
  8
0
 10
3.56624
 20
1.52574
 11
3.54405
 21
1.62418
  0
LINE
  8
0
 10
3.54405
 20
1.62418
 11
3.51299
 21
1.71999
  0
LINE
  8
0
 10
3.51299
 20
1.71999
 11
3.47356
 21
1.81242
  0
LINE
  8
0
 10
3.47356
 20
1.81242
 11
3.42525
 21
1.89975
  0
LINE
  8
0
 10
3.42525
 20
1.89975
 11
3.36806
 21
1.98193
  0
LINE
  8
0
 10
3.36806
 20
1.98193
 11
3.30199
 21
2.05899
  0
LINE
  8
0
 10
3.30199
 20
2.05899
 11
3.22725
 21
2.13043
  0
LINE
  8
0
 10
3.22725
 20
2.13043
 11
3.14299
 21
2.19574
  0
LINE
  8
0
 10
3.14299
 20
2.19574
 11
3.04924
 21
2.25493
  0
LINE
  8
0
 10
3.04924
 20
2.25493
 11
2.946
 21
2.308
  0
LINE
  8
0
 10
2.946
 20
2.308
 11
2.8333
 21
2.35362
  0
LINE
  8
0
 10
2.8333
 20
2.35362
 11
2.71124
 21
2.39049
  0
LINE
  8
0
 10
2.71124
 20
2.39049
 11
2.5798
 21
2.41862
  0
LINE
  8
0
 10
2.5798
 20
2.41862
 11
2.439
 21
2.43799
  0
LINE
  8
0
 10
2.439
 20
2.43799
 11
2.439
 21
2.452
  0
LINE
  8
0
 10
2.439
 20
2.452
 11
2.56862
 21
2.48262
  0
LINE
  8
0
 10
2.56862
 20
2.48262
 11
2.68849
 21
2.51949
  0
LINE
  8
0
 10
2.68849
 20
2.51949
 11
2.79861
 21
2.56262
  0
LINE
  8
0
 10
2.79861
 20
2.56262
 11
2.89899
 21
2.612
  0
LINE
  8
0
 10
2.89899
 20
2.612
 11
2.99074
 21
2.66756
  0
LINE
  8
0
 10
2.99074
 20
2.66756
 11
3.07399
 21
2.72824
  0
LINE
  8
0
 10
3.07399
 20
2.72824
 11
3.14874
 21
2.79405
  0
LINE
  8
0
 10
3.14874
 20
2.79405
 11
3.215
 21
2.86499
  0
LINE
  8
0
 10
3.215
 20
2.86499
 11
3.27287
 21
2.94081
  0
LINE
  8
0
 10
3.27287
 20
2.94081
 11
3.32249
 21
3.02124
  0
LINE
  8
0
 10
3.32249
 20
3.02124
 11
3.36386
 21
3.10631
  0
LINE
  8
0
 10
3.36386
 20
3.10631
 11
3.39699
 21
3.196
  0
LINE
  8
0
 10
3.39699
 20
3.196
 11
3.42281
 21
3.28967
  0
LINE
  8
0
 10
3.42281
 20
3.28967
 11
3.44124
 21
3.38675
  0
LINE
  8
0
 10
3.44124
 20
3.38675
 11
3.4523
 21
3.48718
  0
LINE
  8
0
 10
3.4523
 20
3.48718
 11
3.45599
 21
3.59099
  0
LINE
  8
0
 10
3.45599
 20
3.59099
 11
3.45049
 21
3.72055
  0
LINE
  8
0
 10
3.45049
 20
3.72055
 11
3.43399
 21
3.84624
  0
LINE
  8
0
 10
3.43399
 20
3.84624
 11
3.40649
 21
3.96805
  0
LINE
  8
0
 10
3.40649
 20
3.96805
 11
3.368
 21
4.086
  0
LINE
  8
0
 10
3.368
 20
4.086
 11
3.31781
 21
4.19824
  0
LINE
  8
0
 10
3.31781
 20
4.19824
 11
3.25525
 21
4.30299
  0
LINE
  8
0
 10
3.25525
 20
4.30299
 11
3.1803
 21
4.40024
  0
LINE
  8
0
 10
3.1803
 20
4.40024
 11
3.09299
 21
4.48999
  0
LINE
  8
0
 10
3.09299
 20
4.48999
 11
2.99324
 21
4.57193
  0
LINE
  8
0
 10
2.99324
 20
4.57193
 11
2.87999
 21
4.64474
  0
LINE
  8
0
 10
2.87999
 20
4.64474
 11
2.75323
 21
4.70844
  0
LINE
  8
0
 10
2.75323
 20
4.70844
 11
2.61299
 21
4.76299
  0
LINE
  8
0
 10
2.61299
 20
4.76299
 11
2.4593
 21
4.80717
  0
LINE
  8
0
 10
2.4593
 20
4.80717
 11
2.29124
 21
4.83875
  0
LINE
  8
0
 10
2.29124
 20
4.83875
 11
2.10881
 21
4.85768
  0
LINE
  8
0
 10
2.10881
 20
4.85768
 11
1.91199
 21
4.864
  0
LINE
  8
0
 10
1.91199
 20
4.864
 11
1.76062
 21
4.85918
  0
LINE
  8
0
 10
1.76062
 20
4.85918
 11
1.61349
 21
4.84474
  0
LINE
  8
0
 10
1.61349
 20
4.84474
 11
1.47061
 21
4.82068
  0
LINE
  8
0
 10
1.47061
 20
4.82068
 11
1.33199
 21
4.78699
  0
LINE
  8
0
 10
1.33199
 20
4.78699
 11
1.19925
 21
4.74405
  0
LINE
  8
0
 10
1.19925
 20
4.74405
 11
1.07399
 21
4.69124
  0
LINE
  8
0
 10
1.07399
 20
4.69124
 11
0.956238
 21
4.62856
  0
LINE
  8
0
 10
0.956238
 20
4.62856
 11
0.845993
 21
4.556
  0
LINE
  8
0
 10
0.845993
 20
4.556
 11
0.744614
 21
4.4735
  0
LINE
  8
0
 10
0.744614
 20
4.4735
 11
0.652496
 21
4.381
  0
LINE
  8
0
 10
0.652496
 20
4.381
 11
0.569611
 21
4.27849
  0
LINE
  8
0
 10
0.569611
 20
4.27849
 11
0.495987
 21
4.16599
  0
LINE
  8
0
 10
0.495987
 20
4.16599
 11
0.433243
 21
4.04337
  0
LINE
  8
0
 10
0.433243
 20
4.04337
 11
0.382996
 21
3.91049
  0
LINE
  8
0
 10
0.382996
 20
3.91049
 11
0.345245
 21
3.76736
  0
LINE
  8
0
 10
0.345245
 20
3.76736
 11
0.319992
 21
3.614
  0
LINE
  8
0
 10
0.319992
 20
3.614
 11
0.959991
 21
3.56599
  0
LINE
  8
0
 10
0.959991
 20
3.56599
 11
0.993622
 21
3.74249
  0
LINE
  8
0
 10
0.993622
 20
3.74249
 11
1.0535
 21
3.89799
  0
LINE
  8
0
 10
1.0535
 20
3.89799
 11
1.13962
 21
4.03249
  0
LINE
  8
0
 10
1.13962
 20
4.03249
 11
1.252
 21
4.146
  0
LINE
  8
0
 10
1.252
 20
4.146
 11
1.38774
 21
4.23611
  0
LINE
  8
0
 10
1.38774
 20
4.23611
 11
1.543
 21
4.30049
  0
LINE
  8
0
 10
1.543
 20
4.30049
 11
1.71774
 21
4.33911
  0
LINE
  8
0
 10
1.71774
 20
4.33911
 11
1.91199
 21
4.35199
  0
LINE
  8
0
 10
1.91199
 20
4.35199
 11
2.12262
 21
4.338
  0
LINE
  8
0
 10
2.12262
 20
4.338
 11
2.3055
 21
4.29599
  0
LINE
  8
0
 10
2.3055
 20
4.29599
 11
2.46062
 21
4.226
  0
LINE
  8
0
 10
2.46062
 20
4.226
 11
2.588
 21
4.12799
  0
LINE
  8
0
 10
2.588
 20
4.12799
 11
2.68774
 21
4.00587
  0
LINE
  8
0
 10
2.68774
 20
4.00587
 11
2.75899
 21
3.86349
  0
LINE
  8
0
 10
2.75899
 20
3.86349
 11
2.80174
 21
3.70087
  0
LINE
  8
0
 10
2.80174
 20
3.70087
 11
2.81599
 21
3.51799
  0
LINE
  8
0
 10
2.81599
 20
3.51799
 11
2.80962
 21
3.39899
  0
LINE
  8
0
 10
2.80962
 20
3.39899
 11
2.7905
 21
3.29099
  0
LINE
  8
0
 10
2.7905
 20
3.29099
 11
2.75862
 21
3.19398
  0
LINE
  8
0
 10
2.75862
 20
3.19398
 11
2.71399
 21
3.10799
  0
LINE
  8
0
 10
2.71399
 20
3.10799
 11
2.65999
 21
3.03212
  0
LINE
  8
0
 10
2.65999
 20
3.03212
 11
2.599
 21
2.96449
  0
LINE
  8
0
 10
2.599
 20
2.96449
 11
2.53099
 21
2.90512
  0
LINE
  8
0
 10
2.53099
 20
2.90512
 11
2.45599
 21
2.85399
  0
LINE
  8
0
 10
2.45599
 20
2.85399
 11
2.37587
 21
2.81062
  0
LINE
  8
0
 10
2.37587
 20
2.81062
 11
2.29149
 21
2.77449
  0
LINE
  8
0
 10
2.29149
 20
2.77449
 11
2.20287
 21
2.74562
  0
LINE
  8
0
 10
2.20287
 20
2.74562
 11
2.10999
 21
2.724
  0
LINE
  8
0
 10
2.10999
 20
2.724
 11
2.01631
 21
2.70824
  0
LINE
  8
0
 10
2.01631
 20
2.70824
 11
1.92424
 21
2.69699
  0
LINE
  8
0
 10
1.92424
 20
2.69699
 11
1.8338
 21
2.69025
  0
LINE
  8
0
 10
1.8338
 20
2.69025
 11
1.745
 21
2.68799
  0
LINE
  8
0
 10
1.745
 20
2.68799
 11
1.40799
 21
2.68799
  0
LINE
  8
0
 10
1.40799
 20
2.68799
 11
1.40799
 21
2.17599
  0
LINE
  8
0
 10
1.40799
 20
2.17599
 11
1.75899
 21
2.17599
  0
LINE
  8
0
 10
1.75899
 20
2.17599
 11
1.849
 21
2.17406
  0
LINE
  8
0
 10
1.849
 20
2.17406
 11
1.94299
 21
2.16824
  0
LINE
  8
0
 10
1.94299
 20
2.16824
 11
2.04099
 21
2.15855
  0
LINE
  8
0
 10
2.04099
 20
2.15855
 11
2.14299
 21
2.14499
  0
LINE
  8
0
 10
2.14299
 20
2.14499
 11
2.2455
 21
2.12624
  0
LINE
  8
0
 10
2.2455
 20
2.12624
 11
2.34399
 21
2.09999
  0
LINE
  8
0
 10
2.34399
 20
2.09999
 11
2.43849
 21
2.06624
  0
LINE
  8
0
 10
2.43849
 20
2.06624
 11
2.52899
 21
2.02499
  0
LINE
  8
0
 10
2.52899
 20
2.02499
 11
2.61386
 21
1.97556
  0
LINE
  8
0
 10
2.61386
 20
1.97556
 11
2.6915
 21
1.91724
  0
LINE
  8
0
 10
2.6915
 20
1.91724
 11
2.76187
 21
1.85005
  0
LINE
  8
0
 10
2.76187
 20
1.85005
 11
2.825
 21
1.77399
  0
LINE
  8
0
 10
2.825
 20
1.77399
 11
2.87706
 21
1.68742
  0
LINE
  8
0
 10
2.87706
 20
1.68742
 11
2.91425
 21
1.58774
  0
LINE
  8
0
 10
2.91425
 20
1.58774
 11
2.93655
 21
1.47493
  0
LINE
  8
0
 10
2.93655
 20
1.47493
 11
2.94398
 21
1.349
  0
LINE
  8
0
 10
2.94398
 20
1.349
 11
2.92737
 21
1.13924
  0
LINE
  8
0
 10
2.92737
 20
1.13924
 11
2.87749
 21
0.956985
  0
LINE
  8
0
 10
2.87749
 20
0.956985
 11
2.79437
 21
0.802246
  0
LINE
  8
0
 10
2.79437
 20
0.802246
 11
2.67799
 21
0.674988
  0
LINE
  8
0
 10
2.67799
 20
0.674988
 11
2.53293
 21
0.575684
  0
LINE
  8
0
 10
2.53293
 20
0.575684
 11
2.36275
 21
0.504745
  0
LINE
  8
0
 10
2.36275
 20
0.504745
 11
2.16743
 21
0.462173
  0
LINE
  8
0
 10
2.16743
 20
0.462173
 11
1.94699
 21
0.447998
  0
LINE
  8
0
 10
1.94699
 20
0.447998
 11
1.82474
 21
0.451797
  0
LINE
  8
0
 10
1.82474
 20
0.451797
 11
1.711
 21
0.463242
  0
LINE
  8
0
 10
1.711
 20
0.463242
 11
1.60574
 21
0.4823
  0
LINE
  8
0
 10
1.60574
 20
0.4823
 11
1.50899
 21
0.508987
  0
LINE
  8
0
 10
1.50899
 20
0.508987
 11
1.42012
 21
0.542679
  0
LINE
  8
0
 10
1.42012
 20
0.542679
 11
1.33849
 21
0.582748
  0
LINE
  8
0
 10
1.33849
 20
0.582748
 11
1.26411
 21
0.629181
  0
LINE
  8
0
 10
1.26411
 20
0.629181
 11
1.19699
 21
0.681992
  0
LINE
  8
0
 10
1.19699
 20
0.681992
 11
1.13724
 21
0.740677
  0
LINE
  8
0
 10
1.13724
 20
0.740677
 11
1.084
 21
0.804749
  0
LINE
  8
0
 10
1.084
 20
0.804749
 11
1.03725
 21
0.874176
  0
LINE
  8
0
 10
1.03725
 20
0.874176
 11
0.996994
 21
0.94899
  0
LINE
  8
0
 10
0.996994
 20
0.94899
 11
0.962936
 21
1.02911
  0
LINE
  8
0
 10
0.962936
 20
1.02911
 11
0.934738
 21
1.11349
  0
LINE
  8
0
 10
0.934738
 20
1.11349
 11
0.91243
 21
1.20212
  0
LINE
  8
0
 10
0.91243
 20
1.20212
 11
0.895996
 21
1.295
  0
LINE
  8
0
 10
0.895996
 20
1.295
 11
0.255997
 21
1.237
  0
LINE
  8
0
 10
0.255997
 20
1.237
 11
0.275742
 21
1.11349
  0
LINE
  8
0
 10
0.275742
 20
1.11349
 11
0.303986
 21
0.991989
  0
LINE
  8
0
 10
0.303986
 20
0.991989
 11
0.340744
 21
0.872498
  0
LINE
  8
0
 10
0.340744
 20
0.872498
 11
0.385986
 21
0.75499
  0
LINE
  8
0
 10
0.385986
 20
0.75499
 11
0.442123
 21
0.641617
  0
LINE
  8
0
 10
0.442123
 20
0.641617
 11
0.510498
 21
0.534485
  0
LINE
  8
0
 10
0.510498
 20
0.534485
 11
0.59111
 21
0.433624
  0
LINE
  8
0
 10
0.59111
 20
0.433624
 11
0.68399
 21
0.338989
  0
LINE
  8
0
 10
0.68399
 20
0.338989
 11
0.790237
 21
0.252426
  0
LINE
  8
0
 10
0.790237
 20
0.252426
 11
0.909988
 21
0.174744
  0
LINE
  8
0
 10
0.909988
 20
0.174744
 11
1.04324
 21
0.105927
  0
LINE
  8
0
 10
1.04324
 20
0.105927
 11
1.18999
 21
0.04599
  0
LINE
  8
0
 10
1.18999
 20
0.04599
 11
1.35237
 21
-0.00212097
  0
LINE
  8
0
 10
1.35237
 20
-0.00212097
 11
1.53249
 21
-0.036499
  0
LINE
  8
0
 10
1.53249
 20
-0.036499
 11
1.73036
 21
-0.0571136
  0
LINE
  8
0
 10
1.73036
 20
-0.0571136
 11
1.946
 21
-0.0639954
  0
LINE
  8
0
 10
1.946
 20
-0.0639954
 11
2.1375
 21
-0.0581818
  0
ENDSEC
  0
SECTION
  2
OBJECTS
  0
DICTIONARY
  0
ENDSEC
  0
EOF
