  0
SECTION
  2
BLOCKS
  0
ENDSEC
  0
SECTION
  2
ENTITIES
  0
LINE
  8
0
 10
-4.98024
 20
-0.444
 11
-4.7791
 21
-1.46976
  0
LINE
  8
0
 10
-4.7791
 20
-1.46976
 11
16.0219
 21
-107.545
  0
LINE
  8
0
 10
16.0219
 20
-107.545
 11
16.2231
 21
-108.571
  0
LINE
  8
0
 10
16.2231
 20
-108.571
 11
16.6331
 21
-109.533
  0
LINE
  8
0
 10
16.6331
 20
-109.533
 11
17.2341
 21
-110.388
  0
LINE
  8
0
 10
17.2341
 20
-110.388
 11
17.9997
 21
-111.099
  0
LINE
  8
0
 10
17.9997
 20
-111.099
 11
18.8966
 21
-111.636
  0
LINE
  8
0
 10
18.8966
 20
-111.636
 11
19.8855
 21
-111.975
  0
LINE
  8
0
 10
19.8855
 20
-111.975
 11
20.9232
 21
-112.101
  0
LINE
  8
0
 10
20.9232
 20
-112.101
 11
21.9643
 21
-112.008
  0
LINE
  8
0
 10
21.9643
 20
-112.008
 11
22.9634
 21
-111.701
  0
LINE
  8
0
 10
22.9634
 20
-111.701
 11
23.8768
 21
-111.192
  0
LINE
  8
0
 10
23.8768
 20
-111.192
 11
24.6646
 21
-110.505
  0
LINE
  8
0
 10
24.6646
 20
-110.505
 11
25.2923
 21
-109.669
  0
LINE
  8
0
 10
25.2923
 20
-109.669
 11
25.7325
 21
-108.721
  0
LINE
  8
0
 10
25.7325
 20
-108.721
 11
25.9659
 21
-107.702
  0
LINE
  8
0
 10
25.9659
 20
-107.702
 11
25.9824
 21
-106.657
  0
LINE
  8
0
 10
25.9824
 20
-106.657
 11
25.7813
 21
-105.632
  0
LINE
  8
0
 10
25.7813
 20
-105.632
 11
4.7791
 21
1.46976
  0
LINE
  8
0
 10
4.7791
 20
1.46976
 11
4.36908
 21
2.43126
  0
LINE
  8
0
 10
4.36908
 20
2.43126
 11
3.76811
 21
3.28651
  0
LINE
  8
0
 10
3.76811
 20
3.28651
 11
3.00246
 21
3.99814
  0
LINE
  8
0
 10
3.00246
 20
3.99814
 11
2.10559
 21
4.53502
  0
LINE
  8
0
 10
2.10559
 20
4.53502
 11
1.11668
 21
4.8737
  0
LINE
  8
0
 10
1.11668
 20
4.8737
 11
0.0789948
 21
4.99937
  0
LINE
  8
0
 10
0.0789948
 20
4.99937
 11
-0.962143
 21
4.90654
  0
LINE
  8
0
 10
-0.962143
 20
4.90654
 11
-1.96126
 21
4.59929
  0
LINE
  8
0
 10
-1.96126
 20
4.59929
 11
-2.87463
 21
4.091
  0
LINE
  8
0
 10
-2.87463
 20
4.091
 11
-3.6624
 21
3.40393
  0
LINE
  8
0
 10
-3.6624
 20
3.40393
 11
-4.29007
 21
2.56808
  0
LINE
  8
0
 10
-4.29007
 20
2.56808
 11
-4.73027
 21
1.62001
  0
LINE
  8
0
 10
-4.73027
 20
1.62001
 11
-4.96371
 21
0.601135
  0
LINE
  8
0
 10
-4.96371
 20
0.601135
 11
-4.98024
 21
-0.444
  0
ENDSEC
  0
SECTION
  2
OBJECTS
  0
DICTIONARY
  0
ENDSEC
  0
EOF
