  0
SECTION
  2
BLOCKS
  0
ENDSEC
  0
SECTION
  2
ENTITIES
  0
LINE
  8
0
 10
-4.97972
 20
-0.449722
 11
-4.7774
 21
-1.47523
  0
LINE
  8
0
 10
-4.7774
 20
-1.47523
 11
0.427643
 21
-27.8584
  0
LINE
  8
0
 10
0.427643
 20
-27.8584
 11
0.83876
 21
-28.8194
  0
LINE
  8
0
 10
0.83876
 20
-28.8194
 11
1.4407
 21
-29.674
  0
LINE
  8
0
 10
1.4407
 20
-29.674
 11
2.20718
 21
-30.3847
  0
LINE
  8
0
 10
2.20718
 20
-30.3847
 11
3.10466
 21
-30.9206
  0
LINE
  8
0
 10
3.10466
 20
-30.9206
 11
4.09395
 21
-31.2581
  0
LINE
  8
0
 10
4.09395
 20
-31.2581
 11
5.13179
 21
-31.3826
  0
LINE
  8
0
 10
5.13179
 20
-31.3826
 11
6.17284
 21
-31.2886
  0
LINE
  8
0
 10
6.17284
 20
-31.2886
 11
7.1716
 21
-30.9802
  0
LINE
  8
0
 10
7.1716
 20
-30.9802
 11
8.0844
 21
-30.4709
  0
LINE
  8
0
 10
8.0844
 20
-30.4709
 11
82.8793
 21
25.9123
  0
LINE
  8
0
 10
82.8793
 20
25.9123
 11
83.6663
 21
26.6003
  0
LINE
  8
0
 10
83.6663
 20
26.6003
 11
84.293
 21
27.4368
  0
LINE
  8
0
 10
84.293
 20
27.4368
 11
84.7321
 21
28.3854
  0
LINE
  8
0
 10
84.7321
 20
28.3854
 11
84.9644
 21
29.4045
  0
LINE
  8
0
 10
84.9644
 20
29.4045
 11
84.9797
 21
30.4497
  0
LINE
  8
0
 10
84.9797
 20
30.4497
 11
84.7774
 21
31.4752
  0
LINE
  8
0
 10
84.7774
 20
31.4752
 11
84.3663
 21
32.4363
  0
LINE
  8
0
 10
84.3663
 20
32.4363
 11
83.7643
 21
33.2908
  0
LINE
  8
0
 10
83.7643
 20
33.2908
 11
82.9979
 21
34.0016
  0
LINE
  8
0
 10
82.9979
 20
34.0016
 11
82.1004
 21
34.5374
  0
LINE
  8
0
 10
82.1004
 20
34.5374
 11
81.1111
 21
34.875
  0
LINE
  8
0
 10
81.1111
 20
34.875
 11
80.0733
 21
34.9995
  0
LINE
  8
0
 10
80.0733
 20
34.9995
 11
79.0322
 21
34.9054
  0
LINE
  8
0
 10
79.0322
 20
34.9054
 11
78.0335
 21
34.597
  0
LINE
  8
0
 10
78.0335
 20
34.597
 11
-1.96652
 21
4.59703
  0
LINE
  8
0
 10
-1.96652
 20
4.59703
 11
-2.87933
 21
4.08771
  0
LINE
  8
0
 10
-2.87933
 20
4.08771
 11
-3.66629
 21
3.39973
  0
LINE
  8
0
 10
-3.66629
 20
3.39973
 11
-4.29301
 21
2.56317
  0
LINE
  8
0
 10
-4.29301
 20
2.56317
 11
-4.73213
 21
1.61459
  0
LINE
  8
0
 10
-4.73213
 20
1.61459
 11
-4.9644
 21
0.595444
  0
LINE
  8
0
 10
-4.9644
 20
0.595444
 11
-4.97972
 21
-0.449722
  0
ENDSEC
  0
SECTION
  2
OBJECTS
  0
DICTIONARY
  0
ENDSEC
  0
EOF
