  0
SECTION
  2
BLOCKS
  0
ENDSEC
  0
SECTION
  2
ENTITIES
  0
LINE
  8
0
 10
-4.98936
 20
0.325745
 11
-4.94807
 21
-0.718704
  0
LINE
  8
0
 10
-4.94807
 20
-0.718704
 11
-4.69051
 21
-1.73177
  0
LINE
  8
0
 10
-4.69051
 20
-1.73177
 11
-4.22795
 21
-2.66914
  0
LINE
  8
0
 10
-4.22795
 20
-2.66914
 11
-3.58061
 21
-3.48985
  0
LINE
  8
0
 10
-3.58061
 20
-3.48985
 11
-2.77679
 21
-4.15805
  0
LINE
  8
0
 10
-2.77679
 20
-4.15805
 11
-1.85159
 21
-4.6445
  0
LINE
  8
0
 10
-1.85159
 20
-4.6445
 11
-0.84549
 21
-4.92799
  0
LINE
  8
0
 10
-0.84549
 20
-4.92799
 11
0.197556
 21
-4.99609
  0
LINE
  8
0
 10
0.197556
 20
-4.99609
 11
197.845
 21
-17.9003
  0
LINE
  8
0
 10
197.845
 20
-17.9003
 11
198.888
 21
-17.9684
  0
LINE
  8
0
 10
198.888
 20
-17.9684
 11
199.922
 21
-17.8181
  0
LINE
  8
0
 10
199.922
 20
-17.8181
 11
200.903
 21
-17.4561
  0
LINE
  8
0
 10
200.903
 20
-17.4561
 11
201.787
 21
-16.8981
  0
LINE
  8
0
 10
201.787
 20
-16.8981
 11
202.536
 21
-16.1685
  0
LINE
  8
0
 10
202.536
 20
-16.1685
 11
203.116
 21
-15.2993
  0
LINE
  8
0
 10
203.116
 20
-15.2993
 11
203.503
 21
-14.3283
  0
LINE
  8
0
 10
203.503
 20
-14.3283
 11
203.68
 21
-13.298
  0
LINE
  8
0
 10
203.68
 20
-13.298
 11
203.639
 21
-12.2536
  0
LINE
  8
0
 10
203.639
 20
-12.2536
 11
203.381
 21
-11.2405
  0
LINE
  8
0
 10
203.381
 20
-11.2405
 11
202.918
 21
-10.3032
  0
LINE
  8
0
 10
202.918
 20
-10.3032
 11
202.271
 21
-9.48245
  0
LINE
  8
0
 10
202.271
 20
-9.48245
 11
201.467
 21
-8.81425
  0
LINE
  8
0
 10
201.467
 20
-8.81425
 11
200.542
 21
-8.32779
  0
LINE
  8
0
 10
200.542
 20
-8.32779
 11
199.536
 21
-8.04431
  0
LINE
  8
0
 10
199.536
 20
-8.04431
 11
-0.197556
 21
4.99609
  0
LINE
  8
0
 10
-0.197556
 20
4.99609
 11
-1.23198
 21
4.84583
  0
LINE
  8
0
 10
-1.23198
 20
4.84583
 11
-2.21257
 21
4.4838
  0
LINE
  8
0
 10
-2.21257
 20
4.4838
 11
-3.09645
 21
3.92578
  0
LINE
  8
0
 10
-3.09645
 20
3.92578
 11
-3.845
 21
3.19621
  0
LINE
  8
0
 10
-3.845
 20
3.19621
 11
-4.42552
 21
2.32693
  0
LINE
  8
0
 10
-4.42552
 20
2.32693
 11
-4.81261
 21
1.35597
  0
LINE
  8
0
 10
-4.81261
 20
1.35597
 11
-4.98936
 21
0.325745
  0
ENDSEC
  0
SECTION
  2
OBJECTS
  0
DICTIONARY
  0
ENDSEC
  0
EOF
