  0
SECTION
  2
BLOCKS
  0
ENDSEC
  0
SECTION
  2
ENTITIES
  0
LINE
  8
0
 10
-92.3163
 20
-233.102
 11
-92.2528
 21
-234.146
  0
LINE
  8
0
 10
-92.2528
 20
-234.146
 11
-91.9738
 21
-235.153
  0
LINE
  8
0
 10
-91.9738
 20
-235.153
 11
-91.4914
 21
-236.08
  0
LINE
  8
0
 10
-91.4914
 20
-236.08
 11
-90.8268
 21
-236.887
  0
LINE
  8
0
 10
-90.8268
 20
-236.887
 11
-90.009
 21
-237.538
  0
LINE
  8
0
 10
-90.009
 20
-237.538
 11
-89.0737
 21
-238.005
  0
LINE
  8
0
 10
-89.0737
 20
-238.005
 11
-88.0618
 21
-238.267
  0
LINE
  8
0
 10
-88.0618
 20
-238.267
 11
-87.0175
 21
-238.313
  0
LINE
  8
0
 10
-87.0175
 20
-238.313
 11
-85.9865
 21
-238.141
  0
LINE
  8
0
 10
-85.9865
 20
-238.141
 11
-85.0138
 21
-237.758
  0
LINE
  8
0
 10
-85.0138
 20
-237.758
 11
-84.142
 21
-237.181
  0
LINE
  8
0
 10
-84.142
 20
-237.181
 11
-83.4091
 21
-236.436
  0
LINE
  8
0
 10
-83.4091
 20
-236.436
 11
-82.8472
 21
-235.555
  0
LINE
  8
0
 10
-82.8472
 20
-235.555
 11
84.474
 21
27.7676
  0
LINE
  8
0
 10
84.474
 20
27.7676
 11
84.8403
 21
28.7465
  0
LINE
  8
0
 10
84.8403
 20
28.7465
 11
84.9952
 21
29.7803
  0
LINE
  8
0
 10
84.9952
 20
29.7803
 11
84.9317
 21
30.8236
  0
LINE
  8
0
 10
84.9317
 20
30.8236
 11
84.6527
 21
31.831
  0
LINE
  8
0
 10
84.6527
 20
31.831
 11
84.1703
 21
32.7583
  0
LINE
  8
0
 10
84.1703
 20
32.7583
 11
83.5057
 21
33.5651
  0
LINE
  8
0
 10
83.5057
 20
33.5651
 11
82.6879
 21
34.2161
  0
LINE
  8
0
 10
82.6879
 20
34.2161
 11
81.7525
 21
34.6828
  0
LINE
  8
0
 10
81.7525
 20
34.6828
 11
80.7406
 21
34.9448
  0
LINE
  8
0
 10
80.7406
 20
34.9448
 11
79.6964
 21
34.9908
  0
LINE
  8
0
 10
79.6964
 20
34.9908
 11
78.6653
 21
34.8186
  0
LINE
  8
0
 10
78.6653
 20
34.8186
 11
-1.33464
 21
4.81857
  0
LINE
  8
0
 10
-1.33464
 20
4.81857
 11
-2.30731
 21
4.43579
  0
LINE
  8
0
 10
-2.30731
 20
4.43579
 11
-3.17914
 21
3.85915
  0
LINE
  8
0
 10
-3.17914
 20
3.85915
 11
-3.91203
 21
3.11382
  0
LINE
  8
0
 10
-3.91203
 20
3.11382
 11
-4.47395
 21
2.23242
  0
LINE
  8
0
 10
-4.47395
 20
2.23242
 11
-91.7951
 21
-231.09
  0
LINE
  8
0
 10
-91.7951
 20
-231.09
 11
-92.1615
 21
-232.069
  0
LINE
  8
0
 10
-92.1615
 20
-232.069
 11
-92.3163
 21
-233.102
  0
ENDSEC
  0
SECTION
  2
OBJECTS
  0
DICTIONARY
  0
ENDSEC
  0
EOF
