  0
SECTION
  2
BLOCKS
  0
ENDSEC
  0
SECTION
  2
ENTITIES
  0
LINE
  8
0
 10
-79.4941
 20
-91.543
 11
-79.3344
 21
-92.576
  0
LINE
  8
0
 10
-79.3344
 20
-92.576
 11
-78.9635
 21
-93.5533
  0
LINE
  8
0
 10
-78.9635
 20
-93.5533
 11
-78.3975
 21
-94.4321
  0
LINE
  8
0
 10
-78.3975
 20
-94.4321
 11
-77.6611
 21
-95.1739
  0
LINE
  8
0
 10
-77.6611
 20
-95.1739
 11
-76.7866
 21
-95.7465
  0
LINE
  8
0
 10
-76.7866
 20
-95.7465
 11
-75.8121
 21
-96.1248
  0
LINE
  8
0
 10
-75.8121
 20
-96.1248
 11
-74.7803
 21
-96.2921
  0
LINE
  8
0
 10
-74.7803
 20
-96.2921
 11
-73.7363
 21
-96.2413
  0
LINE
  8
0
 10
-73.7363
 20
-96.2413
 11
-72.7256
 21
-95.9746
  0
LINE
  8
0
 10
-72.7256
 20
-95.9746
 11
-71.7925
 21
-95.5035
  0
LINE
  8
0
 10
-71.7925
 20
-95.5035
 11
-70.9777
 21
-94.8487
  0
LINE
  8
0
 10
-70.9777
 20
-94.8487
 11
-70.3168
 21
-94.0388
  0
LINE
  8
0
 10
-70.3168
 20
-94.0388
 11
3.52229
 21
-3.54872
  0
LINE
  8
0
 10
3.52229
 20
-3.54872
 11
4.18314
 21
-2.73885
  0
LINE
  8
0
 10
4.18314
 20
-2.73885
 11
4.66116
 21
-1.80927
  0
LINE
  8
0
 10
4.66116
 20
-1.80927
 11
4.93549
 21
-0.800613
  0
LINE
  8
0
 10
4.93549
 20
-0.800613
 11
4.99408
 21
0.243011
  0
LINE
  8
0
 10
4.99408
 20
0.243011
 11
4.83443
 21
1.27602
  0
LINE
  8
0
 10
4.83443
 20
1.27602
 11
4.46347
 21
2.25328
  0
LINE
  8
0
 10
4.46347
 20
2.25328
 11
3.89746
 21
3.13205
  0
LINE
  8
0
 10
3.89746
 20
3.13205
 11
3.1611
 21
3.87393
  0
LINE
  8
0
 10
3.1611
 20
3.87393
 11
2.28658
 21
4.44652
  0
LINE
  8
0
 10
2.28658
 20
4.44652
 11
1.31213
 21
4.82475
  0
LINE
  8
0
 10
1.31213
 20
4.82475
 11
0.280319
 21
4.99213
  0
LINE
  8
0
 10
0.280319
 20
4.99213
 11
-0.763702
 21
4.94131
  0
LINE
  8
0
 10
-0.763702
 20
4.94131
 11
-1.77437
 21
4.67456
  0
LINE
  8
0
 10
-1.77437
 20
4.67456
 11
-2.7075
 21
4.20349
  0
LINE
  8
0
 10
-2.7075
 20
4.20349
 11
-3.52229
 21
3.54872
  0
LINE
  8
0
 10
-3.52229
 20
3.54872
 11
-78.0223
 21
-87.7513
  0
LINE
  8
0
 10
-78.0223
 20
-87.7513
 11
-78.6831
 21
-88.5611
  0
LINE
  8
0
 10
-78.6831
 20
-88.5611
 11
-79.1612
 21
-89.4907
  0
LINE
  8
0
 10
-79.1612
 20
-89.4907
 11
-79.4355
 21
-90.4994
  0
LINE
  8
0
 10
-79.4355
 20
-90.4994
 11
-79.4941
 21
-91.543
  0
ENDSEC
  0
SECTION
  2
OBJECTS
  0
DICTIONARY
  0
ENDSEC
  0
EOF
