  0
SECTION
  2
BLOCKS
  0
ENDSEC
  0
SECTION
  2
ENTITIES
  0
LINE
  8
0
 10
-4.98274
 20
-0.415009
 11
-4.78757
 21
-1.44193
  0
LINE
  8
0
 10
-4.78757
 20
-1.44193
 11
-4.38315
 21
-2.40581
  0
LINE
  8
0
 10
-4.38315
 20
-2.40581
 11
-3.78717
 21
-3.26454
  0
LINE
  8
0
 10
-3.78717
 20
-3.26454
 11
-3.02568
 21
-3.98061
  0
LINE
  8
0
 10
-3.02568
 20
-3.98061
 11
-2.13194
 21
-4.52269
  0
LINE
  8
0
 10
-2.13194
 20
-4.52269
 11
-1.14502
 21
-4.86711
  0
LINE
  8
0
 10
-1.14502
 20
-4.86711
 11
-0.108078
 21
-4.99883
  0
LINE
  8
0
 10
-0.108078
 20
-4.99883
 11
0.933578
 21
-4.91206
  0
LINE
  8
0
 10
0.933578
 20
-4.91206
 11
1.93446
 21
-4.61061
  0
LINE
  8
0
 10
1.93446
 20
-4.61061
 11
2.85078
 21
-4.10767
  0
LINE
  8
0
 10
2.85078
 20
-4.10767
 11
1095.79
 21
938.003
  0
LINE
  8
0
 10
1095.79
 20
938.003
 11
1096.58
 21
938.685
  0
LINE
  8
0
 10
1096.58
 20
938.685
 11
1097.21
 21
939.517
  0
LINE
  8
0
 10
1097.21
 20
939.517
 11
1097.66
 21
940.463
  0
LINE
  8
0
 10
1097.66
 20
940.463
 11
1097.9
 21
941.48
  0
LINE
  8
0
 10
1097.9
 20
941.48
 11
1097.92
 21
942.525
  0
LINE
  8
0
 10
1097.92
 20
942.525
 11
1097.72
 21
943.552
  0
LINE
  8
0
 10
1097.72
 20
943.552
 11
1097.32
 21
944.516
  0
LINE
  8
0
 10
1097.32
 20
944.516
 11
1096.72
 21
945.375
  0
LINE
  8
0
 10
1096.72
 20
945.375
 11
1095.96
 21
946.091
  0
LINE
  8
0
 10
1095.96
 20
946.091
 11
1095.07
 21
946.633
  0
LINE
  8
0
 10
1095.07
 20
946.633
 11
1094.08
 21
946.977
  0
LINE
  8
0
 10
1094.08
 20
946.977
 11
1093.04
 21
947.109
  0
LINE
  8
0
 10
1093.04
 20
947.109
 11
1092
 21
947.022
  0
LINE
  8
0
 10
1092
 20
947.022
 11
1091
 21
946.721
  0
LINE
  8
0
 10
1091
 20
946.721
 11
1090.09
 21
946.218
  0
LINE
  8
0
 10
1090.09
 20
946.218
 11
1089.29
 21
945.535
  0
LINE
  8
0
 10
1089.29
 20
945.535
 11
-2.85078
 21
4.10767
  0
LINE
  8
0
 10
-2.85078
 20
4.10767
 11
-3.64252
 21
3.42519
  0
LINE
  8
0
 10
-3.64252
 20
3.42519
 11
-4.27505
 21
2.59302
  0
LINE
  8
0
 10
-4.27505
 20
2.59302
 11
-4.72076
 21
1.64752
  0
LINE
  8
0
 10
-4.72076
 20
1.64752
 11
-4.96014
 21
0.630005
  0
LINE
  8
0
 10
-4.96014
 20
0.630005
 11
-4.98274
 21
-0.415009
  0
ENDSEC
  0
SECTION
  2
OBJECTS
  0
DICTIONARY
  0
ENDSEC
  0
EOF
