  0
SECTION
  2
BLOCKS
  0
ENDSEC
  0
SECTION
  2
ENTITIES
  0
LINE
  8
0
 10
-80.4956
 20
-91.5103
 11
-80.3427
 21
-92.5444
  0
LINE
  8
0
 10
-80.3427
 20
-92.5444
 11
-79.9781
 21
-93.524
  0
LINE
  8
0
 10
-79.9781
 20
-93.524
 11
-79.4179
 21
-94.4065
  0
LINE
  8
0
 10
-79.4179
 20
-94.4065
 11
-78.6864
 21
-95.1532
  0
LINE
  8
0
 10
-78.6864
 20
-95.1532
 11
-77.8156
 21
-95.7315
  0
LINE
  8
0
 10
-77.8156
 20
-95.7315
 11
-76.8437
 21
-96.1161
  0
LINE
  8
0
 10
-76.8437
 20
-96.1161
 11
-75.813
 21
-96.2902
  0
LINE
  8
0
 10
-75.813
 20
-96.2902
 11
-74.7686
 21
-96.2462
  0
LINE
  8
0
 10
-74.7686
 20
-96.2462
 11
-73.7562
 21
-95.9861
  0
LINE
  8
0
 10
-73.7562
 20
-95.9861
 11
-72.82
 21
-95.5211
  0
LINE
  8
0
 10
-72.82
 20
-95.5211
 11
-72.001
 21
-94.8717
  0
LINE
  8
0
 10
-72.001
 20
-94.8717
 11
3.49901
 21
-3.57167
  0
LINE
  8
0
 10
3.49901
 20
-3.57167
 11
4.16513
 21
-2.76614
  0
LINE
  8
0
 10
4.16513
 20
-2.76614
 11
4.64923
 21
-1.83971
  0
LINE
  8
0
 10
4.64923
 20
-1.83971
 11
4.93013
 21
-0.832886
  0
LINE
  8
0
 10
4.93013
 20
-0.832886
 11
4.99556
 21
0.210342
  0
LINE
  8
0
 10
4.99556
 20
0.210342
 11
4.84267
 21
1.24438
  0
LINE
  8
0
 10
4.84267
 20
1.24438
 11
4.47812
 21
2.22404
  0
LINE
  8
0
 10
4.47812
 20
2.22404
 11
3.91786
 21
3.10649
  0
LINE
  8
0
 10
3.91786
 20
3.10649
 11
3.18636
 21
3.85318
  0
LINE
  8
0
 10
3.18636
 20
3.85318
 11
2.31561
 21
4.43146
  0
LINE
  8
0
 10
2.31561
 20
4.43146
 11
1.34366
 21
4.81607
  0
LINE
  8
0
 10
1.34366
 20
4.81607
 11
0.312973
 21
4.99019
  0
LINE
  8
0
 10
0.312973
 20
4.99019
 11
-0.731369
 21
4.94621
  0
LINE
  8
0
 10
-0.731369
 20
4.94621
 11
-1.74377
 21
4.68607
  0
LINE
  8
0
 10
-1.74377
 20
4.68607
 11
-2.67995
 21
4.2211
  0
LINE
  8
0
 10
-2.67995
 20
4.2211
 11
-3.49901
 21
3.57167
  0
LINE
  8
0
 10
-3.49901
 20
3.57167
 11
-78.999
 21
-87.7283
  0
LINE
  8
0
 10
-78.999
 20
-87.7283
 11
-79.6651
 21
-88.5338
  0
LINE
  8
0
 10
-79.6651
 20
-88.5338
 11
-80.1492
 21
-89.4603
  0
LINE
  8
0
 10
-80.1492
 20
-89.4603
 11
-80.4301
 21
-90.4671
  0
LINE
  8
0
 10
-80.4301
 20
-90.4671
 11
-80.4956
 21
-91.5103
  0
ENDSEC
  0
SECTION
  2
OBJECTS
  0
DICTIONARY
  0
ENDSEC
  0
EOF
