  0
SECTION
  2
BLOCKS
  0
ENDSEC
  0
SECTION
  2
ENTITIES
  0
LINE
  8
0
 10
-4.98404
 20
0.399017
 11
-4.9581
 21
-0.645935
  0
LINE
  8
0
 10
-4.9581
 20
-0.645935
 11
-4.71544
 21
-1.66266
  0
LINE
  8
0
 10
-4.71544
 20
-1.66266
 11
-4.26672
 21
-2.60672
  0
LINE
  8
0
 10
-4.26672
 20
-2.60672
 11
-3.6315
 21
-3.43687
  0
LINE
  8
0
 10
-3.6315
 20
-3.43687
 11
-2.83759
 21
-4.11681
  0
LINE
  8
0
 10
-2.83759
 20
-4.11681
 11
-1.91965
 21
-4.61681
  0
LINE
  8
0
 10
-1.91965
 20
-4.61681
 11
-0.917801
 21
-4.91504
  0
LINE
  8
0
 10
-0.917801
 20
-4.91504
 11
0.12413
 21
-4.99846
  0
LINE
  8
0
 10
0.12413
 20
-4.99846
 11
1.16066
 21
-4.8634
  0
LINE
  8
0
 10
1.16066
 20
-4.8634
 11
2.14645
 21
-4.51581
  0
LINE
  8
0
 10
2.14645
 20
-4.51581
 11
3.03845
 21
-3.97087
  0
LINE
  8
0
 10
3.03845
 20
-3.97087
 11
3.79764
 21
-3.25235
  0
LINE
  8
0
 10
3.79764
 20
-3.25235
 11
4.39085
 21
-2.39171
  0
LINE
  8
0
 10
4.39085
 20
-2.39171
 11
4.79218
 21
-1.42654
  0
LINE
  8
0
 10
4.79218
 20
-1.42654
 11
8.8604
 21
8.35765
  0
LINE
  8
0
 10
8.8604
 20
8.35765
 11
9.05226
 21
9.38516
  0
LINE
  8
0
 10
9.05226
 20
9.38516
 11
9.02632
 21
10.4301
  0
LINE
  8
0
 10
9.02632
 20
10.4301
 11
8.78366
 21
11.4469
  0
LINE
  8
0
 10
8.78366
 20
11.4469
 11
8.33495
 21
12.3909
  0
LINE
  8
0
 10
8.33495
 20
12.3909
 11
7.69972
 21
13.2211
  0
LINE
  8
0
 10
7.69972
 20
13.2211
 11
6.90581
 21
13.901
  0
LINE
  8
0
 10
6.90581
 20
13.901
 11
5.98787
 21
14.401
  0
LINE
  8
0
 10
5.98787
 20
14.401
 11
4.98602
 21
14.6992
  0
LINE
  8
0
 10
4.98602
 20
14.6992
 11
3.94408
 21
14.7827
  0
LINE
  8
0
 10
3.94408
 20
14.7827
 11
2.90755
 21
14.6476
  0
LINE
  8
0
 10
2.90755
 20
14.6476
 11
1.92175
 21
14.3
  0
LINE
  8
0
 10
1.92175
 20
14.3
 11
1.02977
 21
13.7551
  0
LINE
  8
0
 10
1.02977
 20
13.7551
 11
0.270569
 21
13.0366
  0
LINE
  8
0
 10
0.270569
 20
13.0366
 11
-0.322632
 21
12.1759
  0
LINE
  8
0
 10
-0.322632
 20
12.1759
 11
-4.79218
 21
1.42654
  0
LINE
  8
0
 10
-4.79218
 20
1.42654
 11
-4.98404
 21
0.399017
  0
ENDSEC
  0
SECTION
  2
OBJECTS
  0
DICTIONARY
  0
ENDSEC
  0
EOF
