  0
SECTION
  2
BLOCKS
  0
ENDSEC
  0
SECTION
  2
ENTITIES
  0
LINE
  8
0
 10
-66.606
 20
-26.6985
 11
-66.5064
 21
-27.739
  0
LINE
  8
0
 10
-66.5064
 20
-27.739
 11
-66.1927
 21
-28.7361
  0
LINE
  8
0
 10
-66.1927
 20
-28.7361
 11
-65.6785
 21
-29.6462
  0
LINE
  8
0
 10
-65.6785
 20
-29.6462
 11
-64.9863
 21
-30.4294
  0
LINE
  8
0
 10
-64.9863
 20
-30.4294
 11
-64.1464
 21
-31.0517
  0
LINE
  8
0
 10
-64.1464
 20
-31.0517
 11
-63.1955
 21
-31.4857
  0
LINE
  8
0
 10
-63.1955
 20
-31.4857
 11
-62.1751
 21
-31.7125
  0
LINE
  8
0
 10
-62.1751
 20
-31.7125
 11
-61.1298
 21
-31.7223
  0
LINE
  8
0
 10
-61.1298
 20
-31.7223
 11
-60.1054
 21
-31.5145
  0
LINE
  8
0
 10
-60.1054
 20
-31.5145
 11
-59.1466
 21
-31.0982
  0
LINE
  8
0
 10
-59.1466
 20
-31.0982
 11
1.50078
 21
-4.76944
  0
LINE
  8
0
 10
1.50078
 20
-4.76944
 11
2.45961
 21
-4.35318
  0
LINE
  8
0
 10
2.45961
 20
-4.35318
 11
3.31093
 21
-3.74667
  0
LINE
  8
0
 10
3.31093
 20
-3.74667
 11
4.01756
 21
-2.97643
  0
LINE
  8
0
 10
4.01756
 20
-2.97643
 11
4.5486
 21
-2.07608
  0
LINE
  8
0
 10
4.5486
 20
-2.07608
 11
4.88084
 21
-1.08501
  0
LINE
  8
0
 10
4.88084
 20
-1.08501
 11
4.99977
 21
-0.0464935
  0
LINE
  8
0
 10
4.99977
 20
-0.0464935
 11
4.90019
 21
0.994019
  0
LINE
  8
0
 10
4.90019
 20
0.994019
 11
4.58644
 21
1.9911
  0
LINE
  8
0
 10
4.58644
 20
1.9911
 11
4.07224
 21
2.90117
  0
LINE
  8
0
 10
4.07224
 20
2.90117
 11
3.38007
 21
3.68443
  0
LINE
  8
0
 10
3.38007
 20
3.68443
 11
2.54016
 21
4.30669
  0
LINE
  8
0
 10
2.54016
 20
4.30669
 11
1.58925
 21
4.74069
  0
LINE
  8
0
 10
1.58925
 20
4.74069
 11
0.568863
 21
4.96753
  0
LINE
  8
0
 10
0.568863
 20
4.96753
 11
-0.476364
 21
4.97725
  0
LINE
  8
0
 10
-0.476364
 20
4.97725
 11
-1.50078
 21
4.76944
  0
LINE
  8
0
 10
-1.50078
 20
4.76944
 11
-63.107
 21
-21.9756
  0
LINE
  8
0
 10
-63.107
 20
-21.9756
 11
-64.0658
 21
-22.3918
  0
LINE
  8
0
 10
-64.0658
 20
-22.3918
 11
-64.9171
 21
-22.9983
  0
LINE
  8
0
 10
-64.9171
 20
-22.9983
 11
-65.6238
 21
-23.7686
  0
LINE
  8
0
 10
-65.6238
 20
-23.7686
 11
-66.1548
 21
-24.6689
  0
LINE
  8
0
 10
-66.1548
 20
-24.6689
 11
-66.4871
 21
-25.66
  0
LINE
  8
0
 10
-66.4871
 20
-25.66
 11
-66.606
 21
-26.6985
  0
ENDSEC
  0
SECTION
  2
OBJECTS
  0
DICTIONARY
  0
ENDSEC
  0
EOF
