  0
SECTION
  2
BLOCKS
  0
ENDSEC
  0
SECTION
  2
ENTITIES
  0
LINE
  8
0
 10
-4.99699
 20
0.173019
 11
-4.92378
 21
-0.86969
  0
LINE
  8
0
 10
-4.92378
 20
-0.86969
 11
-4.63536
 21
-1.87439
  0
LINE
  8
0
 10
-4.63536
 20
-1.87439
 11
-4.14436
 21
-2.79718
  0
LINE
  8
0
 10
-4.14436
 20
-2.79718
 11
-3.47223
 21
-3.59772
  0
LINE
  8
0
 10
-3.47223
 20
-3.59772
 11
-2.64835
 21
-4.24101
  0
LINE
  8
0
 10
-2.64835
 20
-4.24101
 11
-1.70871
 21
-4.69896
  0
LINE
  8
0
 10
-1.70871
 20
-4.69896
 11
-0.694397
 21
-4.95154
  0
LINE
  8
0
 10
-0.694397
 20
-4.95154
 11
0.350235
 21
-4.98772
  0
LINE
  8
0
 10
0.350235
 20
-4.98772
 11
1.37961
 21
-4.80589
  0
LINE
  8
0
 10
1.37961
 20
-4.80589
 11
2.34865
 21
-4.41403
  0
LINE
  8
0
 10
2.34865
 20
-4.41403
 11
3.21506
 21
-3.82927
  0
LINE
  8
0
 10
3.21506
 20
-3.82927
 11
3.94095
 21
-3.07713
  0
LINE
  8
0
 10
3.94095
 20
-3.07713
 11
4.49461
 21
-2.19052
  0
LINE
  8
0
 10
4.49461
 20
-2.19052
 11
44.4946
 21
107.809
  0
LINE
  8
0
 10
44.4946
 20
107.809
 11
44.8518
 21
108.792
  0
LINE
  8
0
 10
44.8518
 20
108.792
 11
44.997
 21
109.827
  0
LINE
  8
0
 10
44.997
 20
109.827
 11
44.9238
 21
110.87
  0
LINE
  8
0
 10
44.9238
 20
110.87
 11
44.6354
 21
111.874
  0
LINE
  8
0
 10
44.6354
 20
111.874
 11
44.1444
 21
112.797
  0
LINE
  8
0
 10
44.1444
 20
112.797
 11
43.4722
 21
113.598
  0
LINE
  8
0
 10
43.4722
 20
113.598
 11
42.6483
 21
114.241
  0
LINE
  8
0
 10
42.6483
 20
114.241
 11
41.7087
 21
114.699
  0
LINE
  8
0
 10
41.7087
 20
114.699
 11
40.6944
 21
114.952
  0
LINE
  8
0
 10
40.6944
 20
114.952
 11
39.6497
 21
114.988
  0
LINE
  8
0
 10
39.6497
 20
114.988
 11
38.6204
 21
114.806
  0
LINE
  8
0
 10
38.6204
 20
114.806
 11
37.6513
 21
114.414
  0
LINE
  8
0
 10
37.6513
 20
114.414
 11
36.7849
 21
113.829
  0
LINE
  8
0
 10
36.7849
 20
113.829
 11
36.059
 21
113.077
  0
LINE
  8
0
 10
36.059
 20
113.077
 11
35.5054
 21
112.191
  0
LINE
  8
0
 10
35.5054
 20
112.191
 11
-4.49461
 21
2.19052
  0
LINE
  8
0
 10
-4.49461
 20
2.19052
 11
-4.85182
 21
1.20818
  0
LINE
  8
0
 10
-4.85182
 20
1.20818
 11
-4.99699
 21
0.173019
  0
ENDSEC
  0
SECTION
  2
OBJECTS
  0
DICTIONARY
  0
ENDSEC
  0
EOF
