  0
SECTION
  2
BLOCKS
  0
ENDSEC
  0
SECTION
  2
ENTITIES
  0
LINE
  8
0
 10
5
 20
0
 11
4.89074
 21
1.03956
  0
LINE
  8
0
 10
4.89074
 20
1.03956
 11
4.56773
 21
2.03368
  0
LINE
  8
0
 10
4.56773
 20
2.03368
 11
4.04508
 21
2.93893
  0
LINE
  8
0
 10
4.04508
 20
2.93893
 11
3.34565
 21
3.71572
  0
LINE
  8
0
 10
3.34565
 20
3.71572
 11
2.5
 21
4.33013
  0
LINE
  8
0
 10
2.5
 20
4.33013
 11
1.54508
 21
4.75528
  0
LINE
  8
0
 10
1.54508
 20
4.75528
 11
0.522642
 21
4.97261
  0
LINE
  8
0
 10
0.522642
 20
4.97261
 11
-0.522642
 21
4.97261
  0
LINE
  8
0
 10
-0.522642
 20
4.97261
 11
-1.54508
 21
4.75528
  0
LINE
  8
0
 10
-1.54508
 20
4.75528
 11
-2.5
 21
4.33013
  0
LINE
  8
0
 10
-2.5
 20
4.33013
 11
-3.34565
 21
3.71572
  0
LINE
  8
0
 10
-3.34565
 20
3.71572
 11
-4.04508
 21
2.93893
  0
LINE
  8
0
 10
-4.04508
 20
2.93893
 11
-4.56773
 21
2.03368
  0
LINE
  8
0
 10
-4.56773
 20
2.03368
 11
-4.89074
 21
1.03956
  0
LINE
  8
0
 10
-4.89074
 20
1.03956
 11
-5
 21
2.83277e-15
  0
LINE
  8
0
 10
-5
 20
2.83277e-15
 11
-4.89074
 21
-1.03956
  0
LINE
  8
0
 10
-4.89074
 20
-1.03956
 11
-4.56773
 21
-2.03368
  0
LINE
  8
0
 10
-4.56773
 20
-2.03368
 11
-4.04508
 21
-2.93893
  0
LINE
  8
0
 10
-4.04508
 20
-2.93893
 11
-3.34565
 21
-3.71572
  0
LINE
  8
0
 10
-3.34565
 20
-3.71572
 11
-2.5
 21
-4.33013
  0
LINE
  8
0
 10
-2.5
 20
-4.33013
 11
-1.54508
 21
-4.75528
  0
LINE
  8
0
 10
-1.54508
 20
-4.75528
 11
-0.522642
 21
-4.97261
  0
LINE
  8
0
 10
-0.522642
 20
-4.97261
 11
0.522642
 21
-4.97261
  0
LINE
  8
0
 10
0.522642
 20
-4.97261
 11
1.54508
 21
-4.75528
  0
LINE
  8
0
 10
1.54508
 20
-4.75528
 11
2.5
 21
-4.33013
  0
LINE
  8
0
 10
2.5
 20
-4.33013
 11
3.34565
 21
-3.71572
  0
LINE
  8
0
 10
3.34565
 20
-3.71572
 11
4.04508
 21
-2.93893
  0
LINE
  8
0
 10
4.04508
 20
-2.93893
 11
4.56773
 21
-2.03368
  0
LINE
  8
0
 10
4.56773
 20
-2.03368
 11
4.89074
 21
-1.03956
  0
LINE
  8
0
 10
4.89074
 20
-1.03956
 11
5
 21
0
  0
ENDSEC
  0
SECTION
  2
OBJECTS
  0
DICTIONARY
  0
ENDSEC
  0
EOF
