  0
SECTION
  2
BLOCKS
  0
ENDSEC
  0
SECTION
  2
ENTITIES
  0
LINE
  8
0
 10
-5
 20
2.83277e-15
 11
-4.89074
 21
-1.03956
  0
LINE
  8
0
 10
-4.89074
 20
-1.03956
 11
-0.502042
 21
-15.3845
  0
LINE
  8
0
 10
-0.502042
 20
-15.3845
 11
-0.179031
 21
-16.3786
  0
LINE
  8
0
 10
-0.179031
 20
-16.3786
 11
0.343611
 21
-17.2838
  0
LINE
  8
0
 10
0.343611
 20
-17.2838
 11
1.04304
 21
-18.0606
  0
LINE
  8
0
 10
1.04304
 20
-18.0606
 11
1.8887
 21
-18.675
  0
LINE
  8
0
 10
1.8887
 20
-18.675
 11
2.84361
 21
-19.1002
  0
LINE
  8
0
 10
2.84361
 20
-19.1002
 11
3.86605
 21
-19.3175
  0
LINE
  8
0
 10
3.86605
 20
-19.3175
 11
4.91134
 21
-19.3175
  0
LINE
  8
0
 10
4.91134
 20
-19.3175
 11
5.93378
 21
-19.1002
  0
LINE
  8
0
 10
5.93378
 20
-19.1002
 11
6.8887
 21
-18.675
  0
LINE
  8
0
 10
6.8887
 20
-18.675
 11
7.73435
 21
-18.0606
  0
LINE
  8
0
 10
7.73435
 20
-18.0606
 11
8.43378
 21
-17.2838
  0
LINE
  8
0
 10
8.43378
 20
-17.2838
 11
8.95642
 21
-16.3786
  0
LINE
  8
0
 10
8.95642
 20
-16.3786
 11
9.27943
 21
-15.3845
  0
LINE
  8
0
 10
9.27943
 20
-15.3845
 11
9.3887
 21
-14.3449
  0
LINE
  8
0
 10
9.3887
 20
-14.3449
 11
9.27943
 21
-13.3053
  0
LINE
  8
0
 10
9.27943
 20
-13.3053
 11
4.89074
 21
1.03956
  0
LINE
  8
0
 10
4.89074
 20
1.03956
 11
4.56773
 21
2.03368
  0
LINE
  8
0
 10
4.56773
 20
2.03368
 11
4.04508
 21
2.93893
  0
LINE
  8
0
 10
4.04508
 20
2.93893
 11
3.34565
 21
3.71572
  0
LINE
  8
0
 10
3.34565
 20
3.71572
 11
2.5
 21
4.33013
  0
LINE
  8
0
 10
2.5
 20
4.33013
 11
1.54508
 21
4.75528
  0
LINE
  8
0
 10
1.54508
 20
4.75528
 11
0.522642
 21
4.97261
  0
LINE
  8
0
 10
0.522642
 20
4.97261
 11
-0.522642
 21
4.97261
  0
LINE
  8
0
 10
-0.522642
 20
4.97261
 11
-1.54508
 21
4.75528
  0
LINE
  8
0
 10
-1.54508
 20
4.75528
 11
-2.5
 21
4.33013
  0
LINE
  8
0
 10
-2.5
 20
4.33013
 11
-3.34565
 21
3.71572
  0
LINE
  8
0
 10
-3.34565
 20
3.71572
 11
-4.04508
 21
2.93893
  0
LINE
  8
0
 10
-4.04508
 20
2.93893
 11
-4.56773
 21
2.03368
  0
LINE
  8
0
 10
-4.56773
 20
2.03368
 11
-4.89074
 21
1.03956
  0
LINE
  8
0
 10
-4.89074
 20
1.03956
 11
-5
 21
2.83277e-15
  0
ENDSEC
  0
SECTION
  2
OBJECTS
  0
DICTIONARY
  0
ENDSEC
  0
EOF
