  0
SECTION
  2
BLOCKS
  0
ENDSEC
  0
SECTION
  2
ENTITIES
  0
LINE
  8
0
 10
3.53099
 20
0.511993
 11
0.993988
 21
0.511993
  0
LINE
  8
0
 10
0.993988
 20
0.511993
 11
1.03955
 21
0.608047
  0
LINE
  8
0
 10
1.03955
 20
0.608047
 11
1.09325
 21
0.70224
  0
LINE
  8
0
 10
1.09325
 20
0.70224
 11
1.15506
 21
0.794556
  0
LINE
  8
0
 10
1.15506
 20
0.794556
 11
1.22499
 21
0.884995
  0
LINE
  8
0
 10
1.22499
 20
0.884995
 11
1.30193
 21
0.974182
  0
LINE
  8
0
 10
1.30193
 20
0.974182
 11
1.38374
 21
1.06274
  0
LINE
  8
0
 10
1.38374
 20
1.06274
 11
1.47043
 21
1.15068
  0
LINE
  8
0
 10
1.47043
 20
1.15068
 11
1.562
 21
1.23799
  0
LINE
  8
0
 10
1.562
 20
1.23799
 11
1.65762
 21
1.32487
  0
LINE
  8
0
 10
1.65762
 20
1.32487
 11
1.75648
 21
1.4115
  0
LINE
  8
0
 10
1.75648
 20
1.4115
 11
1.85861
 21
1.49786
  0
LINE
  8
0
 10
1.85861
 20
1.49786
 11
2.38899
 21
1.931
  0
LINE
  8
0
 10
2.38899
 20
1.931
 11
2.49336
 21
2.01949
  0
LINE
  8
0
 10
2.49336
 20
2.01949
 11
2.59549
 21
2.10899
  0
LINE
  8
0
 10
2.59549
 20
2.10899
 11
2.69537
 21
2.19949
  0
LINE
  8
0
 10
2.69537
 20
2.19949
 11
2.793
 21
2.29099
  0
LINE
  8
0
 10
2.793
 20
2.29099
 11
2.88661
 21
2.3838
  0
LINE
  8
0
 10
2.88661
 20
2.3838
 11
2.97449
 21
2.47824
  0
LINE
  8
0
 10
2.97449
 20
2.47824
 11
3.05661
 21
2.57431
  0
LINE
  8
0
 10
3.05661
 20
2.57431
 11
3.133
 21
2.672
  0
LINE
  8
0
 10
3.133
 20
2.672
 11
3.2028
 21
2.77225
  0
LINE
  8
0
 10
3.2028
 20
2.77225
 11
3.26524
 21
2.875
  0
LINE
  8
0
 10
3.26524
 20
2.875
 11
3.32031
 21
2.98024
  0
LINE
  8
0
 10
3.32031
 20
2.98024
 11
3.368
 21
3.088
  0
LINE
  8
0
 10
3.368
 20
3.088
 11
3.40649
 21
3.19893
  0
LINE
  8
0
 10
3.40649
 20
3.19893
 11
3.43399
 21
3.31274
  0
LINE
  8
0
 10
3.43399
 20
3.31274
 11
3.45049
 21
3.42943
  0
LINE
  8
0
 10
3.45049
 20
3.42943
 11
3.45599
 21
3.549
  0
LINE
  8
0
 10
3.45599
 20
3.549
 11
3.44949
 21
3.7043
  0
LINE
  8
0
 10
3.44949
 20
3.7043
 11
3.42999
 21
3.85023
  0
LINE
  8
0
 10
3.42999
 20
3.85023
 11
3.39749
 21
3.9868
  0
LINE
  8
0
 10
3.39749
 20
3.9868
 11
3.35199
 21
4.114
  0
LINE
  8
0
 10
3.35199
 20
4.114
 11
3.29417
 21
4.23206
  0
LINE
  8
0
 10
3.29417
 20
4.23206
 11
3.22475
 21
4.34024
  0
LINE
  8
0
 10
3.22475
 20
4.34024
 11
3.14368
 21
4.43855
  0
LINE
  8
0
 10
3.14368
 20
4.43855
 11
3.05099
 21
4.52699
  0
LINE
  8
0
 10
3.05099
 20
4.52699
 11
2.94743
 21
4.60536
  0
LINE
  8
0
 10
2.94743
 20
4.60536
 11
2.83275
 21
4.67349
  0
LINE
  8
0
 10
2.83275
 20
4.67349
 11
2.70692
 21
4.73137
  0
LINE
  8
0
 10
2.70692
 20
4.73137
 11
2.56999
 21
4.77899
  0
LINE
  8
0
 10
2.56999
 20
4.77899
 11
2.42293
 21
4.81618
  0
LINE
  8
0
 10
2.42293
 20
4.81618
 11
2.26575
 21
4.84274
  0
LINE
  8
0
 10
2.26575
 20
4.84274
 11
2.09843
 21
4.85867
  0
LINE
  8
0
 10
2.09843
 20
4.85867
 11
1.92099
 21
4.864
  0
LINE
  8
0
 10
1.92099
 20
4.864
 11
1.74055
 21
4.8578
  0
LINE
  8
0
 10
1.74055
 20
4.8578
 11
1.57124
 21
4.83925
  0
LINE
  8
0
 10
1.57124
 20
4.83925
 11
1.41306
 21
4.8083
  0
LINE
  8
0
 10
1.41306
 20
4.8083
 11
1.26599
 21
4.765
  0
LINE
  8
0
 10
1.26599
 20
4.765
 11
1.12956
 21
4.71094
  0
LINE
  8
0
 10
1.12956
 20
4.71094
 11
1.00323
 21
4.64774
  0
LINE
  8
0
 10
1.00323
 20
4.64774
 11
0.887054
 21
4.57542
  0
LINE
  8
0
 10
0.887054
 20
4.57542
 11
0.780991
 21
4.49399
  0
LINE
  8
0
 10
0.780991
 20
4.49399
 11
0.685867
 21
4.4045
  0
LINE
  8
0
 10
0.685867
 20
4.4045
 11
0.601486
 21
4.308
  0
LINE
  8
0
 10
0.601486
 20
4.308
 11
0.527863
 21
4.2045
  0
LINE
  8
0
 10
0.527863
 20
4.2045
 11
0.464996
 21
4.09399
  0
LINE
  8
0
 10
0.464996
 20
4.09399
 11
0.413177
 21
3.97806
  0
LINE
  8
0
 10
0.413177
 20
3.97806
 11
0.37175
 21
3.85825
  0
LINE
  8
0
 10
0.37175
 20
3.85825
 11
0.340683
 21
3.73456
  0
LINE
  8
0
 10
0.340683
 20
3.73456
 11
0.319992
 21
3.60699
  0
LINE
  8
0
 10
0.319992
 20
3.60699
 11
0.959991
 21
3.549
  0
LINE
  8
0
 10
0.959991
 20
3.549
 11
0.975616
 21
3.64543
  0
LINE
  8
0
 10
0.975616
 20
3.64543
 11
0.998489
 21
3.73575
  0
LINE
  8
0
 10
0.998489
 20
3.73575
 11
1.02861
 21
3.81993
  0
LINE
  8
0
 10
1.02861
 20
3.81993
 11
1.06599
 21
3.89799
  0
LINE
  8
0
 10
1.06599
 20
3.89799
 11
1.10986
 21
3.96992
  0
LINE
  8
0
 10
1.10986
 20
3.96992
 11
1.15948
 21
4.03574
  0
LINE
  8
0
 10
1.15948
 20
4.03574
 11
1.21487
 21
4.09543
  0
LINE
  8
0
 10
1.21487
 20
4.09543
 11
1.27599
 21
4.14899
  0
LINE
  8
0
 10
1.27599
 20
4.14899
 11
1.34274
 21
4.19675
  0
LINE
  8
0
 10
1.34274
 20
4.19675
 11
1.41399
 21
4.23799
  0
LINE
  8
0
 10
1.41399
 20
4.23799
 11
1.48975
 21
4.27274
  0
LINE
  8
0
 10
1.48975
 20
4.27274
 11
1.56999
 21
4.30099
  0
LINE
  8
0
 10
1.56999
 20
4.30099
 11
1.65393
 21
4.3233
  0
LINE
  8
0
 10
1.65393
 20
4.3233
 11
1.74074
 21
4.33925
  0
LINE
  8
0
 10
1.74074
 20
4.33925
 11
1.83043
 21
4.3488
  0
LINE
  8
0
 10
1.83043
 20
4.3488
 11
1.92299
 21
4.35199
  0
LINE
  8
0
 10
1.92299
 20
4.35199
 11
2.02124
 21
4.34868
  0
LINE
  8
0
 10
2.02124
 20
4.34868
 11
2.11499
 21
4.33875
  0
LINE
  8
0
 10
2.11499
 20
4.33875
 11
2.20424
 21
4.32217
  0
LINE
  8
0
 10
2.20424
 20
4.32217
 11
2.28899
 21
4.299
  0
LINE
  8
0
 10
2.28899
 20
4.299
 11
2.36899
 21
4.26968
  0
LINE
  8
0
 10
2.36899
 20
4.26968
 11
2.44299
 21
4.23375
  0
LINE
  8
0
 10
2.44299
 20
4.23375
 11
2.51099
 21
4.19118
  0
LINE
  8
0
 10
2.51099
 20
4.19118
 11
2.573
 21
4.142
  0
LINE
  8
0
 10
2.573
 20
4.142
 11
2.62849
 21
4.08687
  0
LINE
  8
0
 10
2.62849
 20
4.08687
 11
2.67699
 21
4.0255
  0
LINE
  8
0
 10
2.67699
 20
4.0255
 11
2.71849
 21
3.95787
  0
LINE
  8
0
 10
2.71849
 20
3.95787
 11
2.75299
 21
3.88399
  0
LINE
  8
0
 10
2.75299
 20
3.88399
 11
2.78055
 21
3.80437
  0
LINE
  8
0
 10
2.78055
 20
3.80437
 11
2.80025
 21
3.71849
  0
LINE
  8
0
 10
2.80025
 20
3.71849
 11
2.81206
 21
3.62637
  0
LINE
  8
0
 10
2.81206
 20
3.62637
 11
2.81599
 21
3.528
  0
LINE
  8
0
 10
2.81599
 20
3.528
 11
2.8075
 21
3.3853
  0
LINE
  8
0
 10
2.8075
 20
3.3853
 11
2.782
 21
3.25024
  0
LINE
  8
0
 10
2.782
 20
3.25024
 11
2.73949
 21
3.1228
  0
LINE
  8
0
 10
2.73949
 20
3.1228
 11
2.67999
 21
3.00299
  0
LINE
  8
0
 10
2.67999
 20
3.00299
 11
2.60674
 21
2.88869
  0
LINE
  8
0
 10
2.60674
 20
2.88869
 11
2.52299
 21
2.77675
  0
LINE
  8
0
 10
2.52299
 20
2.77675
 11
2.42874
 21
2.66718
  0
LINE
  8
0
 10
2.42874
 20
2.66718
 11
2.32399
 21
2.56
  0
LINE
  8
0
 10
2.32399
 20
2.56
 11
2.21068
 21
2.4545
  0
LINE
  8
0
 10
2.21068
 20
2.4545
 11
2.09074
 21
2.349
  0
LINE
  8
0
 10
2.09074
 20
2.349
 11
1.96417
 21
2.2435
  0
LINE
  8
0
 10
1.96417
 20
2.2435
 11
1.69412
 21
2.03024
  0
LINE
  8
0
 10
1.69412
 20
2.03024
 11
1.55649
 21
1.918
  0
LINE
  8
0
 10
1.55649
 20
1.918
 11
1.41812
 21
1.80124
  0
LINE
  8
0
 10
1.41812
 20
1.80124
 11
1.27899
 21
1.67999
  0
LINE
  8
0
 10
1.27899
 20
1.67999
 11
1.14156
 21
1.55287
  0
LINE
  8
0
 10
1.14156
 20
1.55287
 11
1.00725
 21
1.41849
  0
LINE
  8
0
 10
1.00725
 20
1.41849
 11
0.876053
 21
1.27687
  0
LINE
  8
0
 10
0.876053
 20
1.27687
 11
0.747986
 21
1.12799
  0
LINE
  8
0
 10
0.747986
 20
1.12799
 11
0.626373
 21
0.970062
  0
LINE
  8
0
 10
0.626373
 20
0.970062
 11
0.514496
 21
0.800247
  0
LINE
  8
0
 10
0.514496
 20
0.800247
 11
0.412369
 21
0.618561
  0
LINE
  8
0
 10
0.412369
 20
0.618561
 11
0.319992
 21
0.424988
  0
LINE
  8
0
 10
0.319992
 20
0.424988
 11
0.319992
 21
0
  0
LINE
  8
0
 10
0.319992
 20
0
 11
3.53099
 21
0
  0
LINE
  8
0
 10
3.53099
 20
0
 11
3.53099
 21
0.511993
  0
ENDSEC
  0
SECTION
  2
OBJECTS
  0
DICTIONARY
  0
ENDSEC
  0
EOF
