  0
SECTION
  2
BLOCKS
  0
ENDSEC
  0
SECTION
  2
ENTITIES
  0
LINE
  8
0
 10
-31.4997
 20
135.353
 11
-31.4016
 21
134.313
  0
LINE
  8
0
 10
-31.4016
 20
134.313
 11
-4.90155
 21
-0.987289
  0
LINE
  8
0
 10
-4.90155
 20
-0.987289
 11
-4.58916
 21
-1.98482
  0
LINE
  8
0
 10
-4.58916
 20
-1.98482
 11
-4.07622
 21
-2.89558
  0
LINE
  8
0
 10
-4.07622
 20
-2.89558
 11
-3.38512
 21
-3.67979
  0
LINE
  8
0
 10
-3.38512
 20
-3.67979
 11
-2.54607
 21
-4.30319
  0
LINE
  8
0
 10
-2.54607
 20
-4.30319
 11
-1.59575
 21
-4.73851
  0
LINE
  8
0
 10
-1.59575
 20
-4.73851
 11
-0.575668
 21
-4.96674
  0
LINE
  8
0
 10
-0.575668
 20
-4.96674
 11
0.469528
 21
-4.97789
  0
LINE
  8
0
 10
0.469528
 20
-4.97789
 11
1.49425
 21
-4.7715
  0
LINE
  8
0
 10
1.49425
 20
-4.7715
 11
2.45364
 21
-4.35655
  0
LINE
  8
0
 10
2.45364
 20
-4.35655
 11
3.3058
 21
-3.75121
  0
LINE
  8
0
 10
3.3058
 20
-3.75121
 11
4.01349
 21
-2.98192
  0
LINE
  8
0
 10
4.01349
 20
-2.98192
 11
134.245
 21
138.587
  0
LINE
  8
0
 10
134.245
 20
138.587
 11
134.778
 21
139.487
  0
LINE
  8
0
 10
134.778
 20
139.487
 11
135.111
 21
140.478
  0
LINE
  8
0
 10
135.111
 20
140.478
 11
135.232
 21
141.516
  0
LINE
  8
0
 10
135.232
 20
141.516
 11
135.134
 21
142.557
  0
LINE
  8
0
 10
135.134
 20
142.557
 11
134.821
 21
143.554
  0
LINE
  8
0
 10
134.821
 20
143.554
 11
134.308
 21
144.465
  0
LINE
  8
0
 10
134.308
 20
144.465
 11
133.617
 21
145.249
  0
LINE
  8
0
 10
133.617
 20
145.249
 11
132.778
 21
145.872
  0
LINE
  8
0
 10
132.778
 20
145.872
 11
131.828
 21
146.308
  0
LINE
  8
0
 10
131.828
 20
146.308
 11
130.808
 21
146.536
  0
LINE
  8
0
 10
130.808
 20
146.536
 11
129.762
 21
146.547
  0
LINE
  8
0
 10
129.762
 20
146.547
 11
-26.9695
 21
140.278
  0
LINE
  8
0
 10
-26.9695
 20
140.278
 11
-27.9942
 21
140.072
  0
LINE
  8
0
 10
-27.9942
 20
140.072
 11
-28.9536
 21
139.657
  0
LINE
  8
0
 10
-28.9536
 20
139.657
 11
-29.8058
 21
139.051
  0
LINE
  8
0
 10
-29.8058
 20
139.051
 11
-30.5135
 21
138.282
  0
LINE
  8
0
 10
-30.5135
 20
138.282
 11
-31.0457
 21
137.382
  0
LINE
  8
0
 10
-31.0457
 20
137.382
 11
-31.3794
 21
136.392
  0
LINE
  8
0
 10
-31.3794
 20
136.392
 11
-31.4997
 21
135.353
  0
ENDSEC
  0
SECTION
  2
OBJECTS
  0
DICTIONARY
  0
ENDSEC
  0
EOF
