  0
SECTION
  2
BLOCKS
  0
ENDSEC
  0
SECTION
  2
ENTITIES
  0
LINE
  8
0
 10
-485.567
 20
-143.559
 11
-485.375
 21
-144.587
  0
LINE
  8
0
 10
-485.375
 20
-144.587
 11
-484.973
 21
-145.552
  0
LINE
  8
0
 10
-484.973
 20
-145.552
 11
-484.38
 21
-146.412
  0
LINE
  8
0
 10
-484.38
 20
-146.412
 11
-483.621
 21
-147.131
  0
LINE
  8
0
 10
-483.621
 20
-147.131
 11
-482.729
 21
-147.675
  0
LINE
  8
0
 10
-482.729
 20
-147.675
 11
-481.743
 21
-148.023
  0
LINE
  8
0
 10
-481.743
 20
-148.023
 11
-480.706
 21
-148.158
  0
LINE
  8
0
 10
-480.706
 20
-148.158
 11
-479.664
 21
-148.074
  0
LINE
  8
0
 10
-479.664
 20
-148.074
 11
-478.662
 21
-147.776
  0
LINE
  8
0
 10
-478.662
 20
-147.776
 11
0.918732
 21
-4.91486
  0
LINE
  8
0
 10
0.918732
 20
-4.91486
 11
1.9205
 21
-4.61644
  0
LINE
  8
0
 10
1.9205
 20
-4.61644
 11
2.83835
 21
-4.11626
  0
LINE
  8
0
 10
2.83835
 20
-4.11626
 11
3.63216
 21
-3.43619
  0
LINE
  8
0
 10
3.63216
 20
-3.43619
 11
4.2672
 21
-2.60593
  0
LINE
  8
0
 10
4.2672
 20
-2.60593
 11
4.71576
 21
-1.66179
  0
LINE
  8
0
 10
4.71576
 20
-1.66179
 11
4.95822
 21
-0.645004
  0
LINE
  8
0
 10
4.95822
 20
-0.645004
 11
4.98398
 21
0.399948
  0
LINE
  8
0
 10
4.98398
 20
0.399948
 11
4.7919
 21
1.42744
  0
LINE
  8
0
 10
4.7919
 20
1.42744
 11
4.39041
 21
2.39255
  0
LINE
  8
0
 10
4.39041
 20
2.39255
 11
3.79703
 21
3.25307
  0
LINE
  8
0
 10
3.79703
 20
3.25307
 11
3.03769
 21
3.97144
  0
LINE
  8
0
 10
3.03769
 20
3.97144
 11
2.1456
 21
4.51622
  0
LINE
  8
0
 10
2.1456
 20
4.51622
 11
1.15974
 21
4.86363
  0
LINE
  8
0
 10
1.15974
 20
4.86363
 11
0.123184
 21
4.99847
  0
LINE
  8
0
 10
0.123184
 20
4.99847
 11
-0.918732
 21
4.91486
  0
LINE
  8
0
 10
-0.918732
 20
4.91486
 11
-481.502
 21
-138.244
  0
LINE
  8
0
 10
-481.502
 20
-138.244
 11
-482.503
 21
-138.543
  0
LINE
  8
0
 10
-482.503
 20
-138.543
 11
-483.421
 21
-139.043
  0
LINE
  8
0
 10
-483.421
 20
-139.043
 11
-484.215
 21
-139.723
  0
LINE
  8
0
 10
-484.215
 20
-139.723
 11
-484.85
 21
-140.553
  0
LINE
  8
0
 10
-484.85
 20
-140.553
 11
-485.299
 21
-141.497
  0
LINE
  8
0
 10
-485.299
 20
-141.497
 11
-485.541
 21
-142.514
  0
LINE
  8
0
 10
-485.541
 20
-142.514
 11
-485.567
 21
-143.559
  0
ENDSEC
  0
SECTION
  2
OBJECTS
  0
DICTIONARY
  0
ENDSEC
  0
EOF
