  0
SECTION
  2
BLOCKS
  0
ENDSEC
  0
SECTION
  2
ENTITIES
  0
LINE
  8
0
 10
-68.8495
 20
-187.833
 11
-68.7542
 21
-188.874
  0
LINE
  8
0
 10
-68.7542
 20
-188.874
 11
-68.4446
 21
-189.872
  0
LINE
  8
0
 10
-68.4446
 20
-189.872
 11
-67.9341
 21
-190.784
  0
LINE
  8
0
 10
-67.9341
 20
-190.784
 11
-67.2452
 21
-191.571
  0
LINE
  8
0
 10
-67.2452
 20
-191.571
 11
-66.4078
 21
-192.196
  0
LINE
  8
0
 10
-66.4078
 20
-192.196
 11
-65.4587
 21
-192.634
  0
LINE
  8
0
 10
-65.4587
 20
-192.634
 11
-64.4393
 21
-192.865
  0
LINE
  8
0
 10
-64.4393
 20
-192.865
 11
-63.3941
 21
-192.879
  0
LINE
  8
0
 10
-63.3941
 20
-192.879
 11
-62.3688
 21
-192.676
  0
LINE
  8
0
 10
-62.3688
 20
-192.676
 11
-61.4083
 21
-192.263
  0
LINE
  8
0
 10
-61.4083
 20
-192.263
 11
-60.5545
 21
-191.66
  0
LINE
  8
0
 10
-60.5545
 20
-191.66
 11
-59.8447
 21
-190.893
  0
LINE
  8
0
 10
-59.8447
 20
-190.893
 11
-59.3099
 21
-189.995
  0
LINE
  8
0
 10
-59.3099
 20
-189.995
 11
4.87636
 21
-1.10503
  0
LINE
  8
0
 10
4.87636
 20
-1.10503
 11
4.99954
 21
-0.0670319
  0
LINE
  8
0
 10
4.99954
 20
-0.0670319
 11
4.90424
 21
0.973892
  0
LINE
  8
0
 10
4.90424
 20
0.973892
 11
4.59457
 21
1.97224
  0
LINE
  8
0
 10
4.59457
 20
1.97224
 11
4.08412
 21
2.88441
  0
LINE
  8
0
 10
4.08412
 20
2.88441
 11
3.39516
 21
3.67053
  0
LINE
  8
0
 10
3.39516
 20
3.67053
 11
2.55783
 21
4.29622
  0
LINE
  8
0
 10
2.55783
 20
4.29622
 11
1.60869
 21
4.73413
  0
LINE
  8
0
 10
1.60869
 20
4.73413
 11
0.589249
 21
4.96515
  0
LINE
  8
0
 10
0.589249
 20
4.96515
 11
-0.455917
 21
4.97916
  0
LINE
  8
0
 10
-0.455917
 20
4.97916
 11
-1.48119
 21
4.77556
  0
LINE
  8
0
 10
-1.48119
 20
4.77556
 11
-2.44171
 21
4.36325
  0
LINE
  8
0
 10
-2.44171
 20
4.36325
 11
-3.29553
 21
3.76024
  0
LINE
  8
0
 10
-3.29553
 20
3.76024
 11
-4.00531
 21
2.99287
  0
LINE
  8
0
 10
-4.00531
 20
2.99287
 11
-4.54004
 21
2.09473
  0
LINE
  8
0
 10
-4.54004
 20
2.09473
 11
-4.87636
 21
1.10503
  0
LINE
  8
0
 10
-4.87636
 20
1.10503
 11
-68.39
 21
-185.805
  0
LINE
  8
0
 10
-68.39
 20
-185.805
 11
-68.7263
 21
-186.795
  0
LINE
  8
0
 10
-68.7263
 20
-186.795
 11
-68.8495
 21
-187.833
  0
ENDSEC
  0
SECTION
  2
OBJECTS
  0
DICTIONARY
  0
ENDSEC
  0
EOF
