  0
SECTION
  2
BLOCKS
  0
ENDSEC
  0
SECTION
  2
ENTITIES
  0
LINE
  8
0
 10
-38.064
 20
-72.7664
 11
-37.8572
 21
-73.791
  0
LINE
  8
0
 10
-37.8572
 20
-73.791
 11
-37.4419
 21
-74.7503
  0
LINE
  8
0
 10
-37.4419
 20
-74.7503
 11
-36.8363
 21
-75.6022
  0
LINE
  8
0
 10
-36.8363
 20
-75.6022
 11
-36.0668
 21
-76.3097
  0
LINE
  8
0
 10
-36.0668
 20
-76.3097
 11
-35.1669
 21
-76.8416
  0
LINE
  8
0
 10
-35.1669
 20
-76.8416
 11
-34.1762
 21
-77.1749
  0
LINE
  8
0
 10
-34.1762
 20
-77.1749
 11
-33.1378
 21
-77.2949
  0
LINE
  8
0
 10
-33.1378
 20
-77.2949
 11
-32.0972
 21
-77.1963
  0
LINE
  8
0
 10
-32.0972
 20
-77.1963
 11
-31.0998
 21
-76.8836
  0
LINE
  8
0
 10
-31.0998
 20
-76.8836
 11
-30.1892
 21
-76.3703
  0
LINE
  8
0
 10
-30.1892
 20
-76.3703
 11
-29.4052
 21
-75.679
  0
LINE
  8
0
 10
-29.4052
 20
-75.679
 11
-28.7821
 21
-74.8397
  0
LINE
  8
0
 10
-28.7821
 20
-74.8397
 11
4.73907
 21
-1.59409
  0
LINE
  8
0
 10
4.73907
 20
-1.59409
 11
4.96693
 21
-0.573944
  0
LINE
  8
0
 10
4.96693
 20
-0.573944
 11
4.97774
 21
0.471283
  0
LINE
  8
0
 10
4.97774
 20
0.471283
 11
4.77097
 21
1.49591
  0
LINE
  8
0
 10
4.77097
 20
1.49591
 11
4.3557
 21
2.45515
  0
LINE
  8
0
 10
4.3557
 20
2.45515
 11
3.75005
 21
3.30711
  0
LINE
  8
0
 10
3.75005
 20
3.30711
 11
2.98051
 21
4.01453
  0
LINE
  8
0
 10
2.98051
 20
4.01453
 11
2.08072
 21
4.54648
  0
LINE
  8
0
 10
2.08072
 20
4.54648
 11
1.08998
 21
4.87975
  0
LINE
  8
0
 10
1.08998
 20
4.87975
 11
0.0516052
 21
4.99973
  0
LINE
  8
0
 10
0.0516052
 20
4.99973
 11
-0.989014
 21
4.9012
  0
LINE
  8
0
 10
-0.989014
 20
4.9012
 11
-1.98642
 21
4.58847
  0
LINE
  8
0
 10
-1.98642
 20
4.58847
 11
-2.897
 21
4.0752
  0
LINE
  8
0
 10
-2.897
 20
4.0752
 11
-3.68098
 21
3.38382
  0
LINE
  8
0
 10
-3.68098
 20
3.38382
 11
-4.30408
 21
2.54456
  0
LINE
  8
0
 10
-4.30408
 20
2.54456
 11
-4.73907
 21
1.59409
  0
LINE
  8
0
 10
-4.73907
 20
1.59409
 11
-37.3903
 21
-69.7506
  0
LINE
  8
0
 10
-37.3903
 20
-69.7506
 11
-37.8253
 21
-70.701
  0
LINE
  8
0
 10
-37.8253
 20
-70.701
 11
-38.0532
 21
-71.7212
  0
LINE
  8
0
 10
-38.0532
 20
-71.7212
 11
-38.064
 21
-72.7664
  0
ENDSEC
  0
SECTION
  2
OBJECTS
  0
DICTIONARY
  0
ENDSEC
  0
EOF
