  0
SECTION
  2
BLOCKS
  0
ENDSEC
  0
SECTION
  2
ENTITIES
  0
LINE
  8
0
 10
-31.4802
 20
135.745
 11
-31.4638
 21
134.699
  0
LINE
  8
0
 10
-31.4638
 20
134.699
 11
-4.96379
 21
-0.600555
  0
LINE
  8
0
 10
-4.96379
 20
-0.600555
 11
-4.73045
 21
-1.61946
  0
LINE
  8
0
 10
-4.73045
 20
-1.61946
 11
-4.29037
 21
-2.5676
  0
LINE
  8
0
 10
-4.29037
 20
-2.5676
 11
-3.6628
 21
-3.4035
  0
LINE
  8
0
 10
-3.6628
 20
-3.4035
 11
-2.87512
 21
-4.09067
  0
LINE
  8
0
 10
-2.87512
 20
-4.09067
 11
-1.96179
 21
-4.59906
  0
LINE
  8
0
 10
-1.96179
 20
-4.59906
 11
-0.962723
 21
-4.90643
  0
LINE
  8
0
 10
-0.962723
 20
-4.90643
 11
0.0784149
 21
-4.99937
  0
LINE
  8
0
 10
0.0784149
 20
-4.99937
 11
1.11612
 21
-4.87383
  0
LINE
  8
0
 10
1.11612
 20
-4.87383
 11
2.10506
 21
-4.53526
  0
LINE
  8
0
 10
2.10506
 20
-4.53526
 11
3.002
 21
-3.99849
  0
LINE
  8
0
 10
3.002
 20
-3.99849
 11
3.76773
 21
-3.28696
  0
LINE
  8
0
 10
3.76773
 20
-3.28696
 11
59.1703
 21
75.5388
  0
LINE
  8
0
 10
59.1703
 20
75.5388
 11
59.5804
 21
76.5003
  0
LINE
  8
0
 10
59.5804
 20
76.5003
 11
59.7817
 21
77.526
  0
LINE
  8
0
 10
59.7817
 20
77.526
 11
59.7653
 21
78.5712
  0
LINE
  8
0
 10
59.7653
 20
78.5712
 11
59.532
 21
79.5901
  0
LINE
  8
0
 10
59.532
 20
79.5901
 11
59.0919
 21
80.5382
  0
LINE
  8
0
 10
59.0919
 20
80.5382
 11
58.4643
 21
81.3741
  0
LINE
  8
0
 10
58.4643
 20
81.3741
 11
57.6766
 21
82.0613
  0
LINE
  8
0
 10
57.6766
 20
82.0613
 11
-23.6249
 21
139.391
  0
LINE
  8
0
 10
-23.6249
 20
139.391
 11
-24.5382
 21
139.899
  0
LINE
  8
0
 10
-24.5382
 20
139.899
 11
-25.5373
 21
140.206
  0
LINE
  8
0
 10
-25.5373
 20
140.206
 11
-26.5784
 21
140.299
  0
LINE
  8
0
 10
-26.5784
 20
140.299
 11
-27.6161
 21
140.174
  0
LINE
  8
0
 10
-27.6161
 20
140.174
 11
-28.6051
 21
139.835
  0
LINE
  8
0
 10
-28.6051
 20
139.835
 11
-29.502
 21
139.298
  0
LINE
  8
0
 10
-29.502
 20
139.298
 11
-30.2677
 21
138.587
  0
LINE
  8
0
 10
-30.2677
 20
138.587
 11
-30.8688
 21
137.732
  0
LINE
  8
0
 10
-30.8688
 20
137.732
 11
-31.2789
 21
136.77
  0
LINE
  8
0
 10
-31.2789
 20
136.77
 11
-31.4802
 21
135.745
  0
ENDSEC
  0
SECTION
  2
OBJECTS
  0
DICTIONARY
  0
ENDSEC
  0
EOF
