  0
SECTION
  2
BLOCKS
  0
ENDSEC
  0
SECTION
  2
ENTITIES
  0
LINE
  8
0
 10
-4.99881
 20
-0.108963
 11
-4.86691
 21
-1.1459
  0
LINE
  8
0
 10
-4.86691
 20
-1.1459
 11
-4.52231
 21
-2.13275
  0
LINE
  8
0
 10
-4.52231
 20
-2.13275
 11
-3.98006
 21
-3.02638
  0
LINE
  8
0
 10
-3.98006
 20
-3.02638
 11
-3.26385
 21
-3.78777
  0
LINE
  8
0
 10
-3.26385
 20
-3.78777
 11
-2.40503
 21
-4.38358
  0
LINE
  8
0
 10
-2.40503
 20
-4.38358
 11
-1.44106
 21
-4.78783
  0
LINE
  8
0
 10
-1.44106
 20
-4.78783
 11
-0.414124
 21
-4.9828
  0
LINE
  8
0
 10
-0.414124
 20
-4.9828
 11
0.63089
 21
-4.96004
  0
LINE
  8
0
 10
0.63089
 20
-4.96004
 11
1.64836
 21
-4.72046
  0
LINE
  8
0
 10
1.64836
 20
-4.72046
 11
2.59378
 21
-4.2746
  0
LINE
  8
0
 10
2.59378
 20
-4.2746
 11
247.122
 21
181.662
  0
LINE
  8
0
 10
247.122
 20
181.662
 11
247.954
 21
182.294
  0
LINE
  8
0
 10
247.954
 20
182.294
 11
248.636
 21
183.086
  0
LINE
  8
0
 10
248.636
 20
183.086
 11
249.139
 21
184.003
  0
LINE
  8
0
 10
249.139
 20
184.003
 11
249.44
 21
185.004
  0
LINE
  8
0
 10
249.44
 20
185.004
 11
249.527
 21
186.045
  0
LINE
  8
0
 10
249.527
 20
186.045
 11
249.395
 21
187.082
  0
LINE
  8
0
 10
249.395
 20
187.082
 11
249.05
 21
188.069
  0
LINE
  8
0
 10
249.05
 20
188.069
 11
248.508
 21
188.963
  0
LINE
  8
0
 10
248.508
 20
188.963
 11
247.792
 21
189.724
  0
LINE
  8
0
 10
247.792
 20
189.724
 11
246.933
 21
190.32
  0
LINE
  8
0
 10
246.933
 20
190.32
 11
245.969
 21
190.724
  0
LINE
  8
0
 10
245.969
 20
190.724
 11
244.942
 21
190.919
  0
LINE
  8
0
 10
244.942
 20
190.919
 11
243.897
 21
190.896
  0
LINE
  8
0
 10
243.897
 20
190.896
 11
242.88
 21
190.657
  0
LINE
  8
0
 10
242.88
 20
190.657
 11
241.934
 21
190.211
  0
LINE
  8
0
 10
241.934
 20
190.211
 11
-2.59378
 21
4.2746
  0
LINE
  8
0
 10
-2.59378
 20
4.2746
 11
-3.42584
 21
3.64191
  0
LINE
  8
0
 10
-3.42584
 20
3.64191
 11
-4.10817
 21
2.85005
  0
LINE
  8
0
 10
-4.10817
 20
2.85005
 11
-4.61096
 21
1.93364
  0
LINE
  8
0
 10
-4.61096
 20
1.93364
 11
-4.91222
 21
0.932709
  0
LINE
  8
0
 10
-4.91222
 20
0.932709
 11
-4.99881
 21
-0.108963
  0
ENDSEC
  0
SECTION
  2
OBJECTS
  0
DICTIONARY
  0
ENDSEC
  0
EOF
