  0
SECTION
  2
BLOCKS
  0
ENDSEC
  0
SECTION
  2
ENTITIES
  0
LINE
  8
0
 10
-4.97987
 20
-0.448059
 11
-4.77789
 21
-1.47365
  0
LINE
  8
0
 10
-4.77789
 20
-1.47365
 11
-4.3671
 21
-2.43481
  0
LINE
  8
0
 10
-4.3671
 20
-2.43481
 11
-3.76544
 21
-3.28958
  0
LINE
  8
0
 10
-3.76544
 20
-3.28958
 11
-2.99921
 21
-4.00058
  0
LINE
  8
0
 10
-2.99921
 20
-4.00058
 11
-2.1019
 21
-4.53673
  0
LINE
  8
0
 10
-2.1019
 20
-4.53673
 11
-1.11273
 21
-4.8746
  0
LINE
  8
0
 10
-1.11273
 20
-4.8746
 11
-0.0749207
 21
-4.99944
  0
LINE
  8
0
 10
-0.0749207
 20
-4.99944
 11
0.966141
 21
-4.90576
  0
LINE
  8
0
 10
0.966141
 20
-4.90576
 11
80.9661
 21
5.09422
  0
LINE
  8
0
 10
80.9661
 20
5.09422
 11
81.965
 21
5.40231
  0
LINE
  8
0
 10
81.965
 20
5.40231
 11
82.878
 21
5.91133
  0
LINE
  8
0
 10
82.878
 20
5.91133
 11
83.6652
 21
6.59903
  0
LINE
  8
0
 10
83.6652
 20
6.59903
 11
84.2922
 21
7.43539
  0
LINE
  8
0
 10
84.2922
 20
7.43539
 11
84.7316
 21
8.38382
  0
LINE
  8
0
 10
84.7316
 20
8.38382
 11
84.9642
 21
9.40289
  0
LINE
  8
0
 10
84.9642
 20
9.40289
 11
84.9799
 21
10.4481
  0
LINE
  8
0
 10
84.9799
 20
10.4481
 11
84.7779
 21
11.4736
  0
LINE
  8
0
 10
84.7779
 20
11.4736
 11
84.3671
 21
12.4348
  0
LINE
  8
0
 10
84.3671
 20
12.4348
 11
83.7654
 21
13.2896
  0
LINE
  8
0
 10
83.7654
 20
13.2896
 11
82.9992
 21
14.0006
  0
LINE
  8
0
 10
82.9992
 20
14.0006
 11
82.1019
 21
14.5367
  0
LINE
  8
0
 10
82.1019
 20
14.5367
 11
12.285
 21
49.1465
  0
LINE
  8
0
 10
12.285
 20
49.1465
 11
11.2959
 21
49.4844
  0
LINE
  8
0
 10
11.2959
 20
49.4844
 11
10.258
 21
49.6092
  0
LINE
  8
0
 10
10.258
 20
49.6092
 11
9.21696
 21
49.5156
  0
LINE
  8
0
 10
9.21696
 20
49.5156
 11
8.21811
 21
49.2075
  0
LINE
  8
0
 10
8.21811
 20
49.2075
 11
7.30515
 21
48.6985
  0
LINE
  8
0
 10
7.30515
 20
48.6985
 11
6.51794
 21
48.0108
  0
LINE
  8
0
 10
6.51794
 20
48.0108
 11
5.89095
 21
47.1744
  0
LINE
  8
0
 10
5.89095
 20
47.1744
 11
5.45152
 21
46.226
  0
LINE
  8
0
 10
5.45152
 20
46.226
 11
5.21889
 21
45.2069
  0
LINE
  8
0
 10
5.21889
 20
45.2069
 11
-4.96422
 21
0.597092
  0
LINE
  8
0
 10
-4.96422
 20
0.597092
 11
-4.97987
 21
-0.448059
  0
ENDSEC
  0
SECTION
  2
OBJECTS
  0
DICTIONARY
  0
ENDSEC
  0
EOF
