  0
SECTION
  2
BLOCKS
  0
ENDSEC
  0
SECTION
  2
ENTITIES
  0
LINE
  8
0
 10
-4.98022
 20
-0.444138
 11
-4.77905
 21
-1.46988
  0
LINE
  8
0
 10
-4.77905
 20
-1.46988
 11
-4.36902
 21
-2.43138
  0
LINE
  8
0
 10
-4.36902
 20
-2.43138
 11
-3.76802
 21
-3.28662
  0
LINE
  8
0
 10
-3.76802
 20
-3.28662
 11
-3.00235
 21
-3.99821
  0
LINE
  8
0
 10
-3.00235
 20
-3.99821
 11
-2.10547
 21
-4.53508
  0
LINE
  8
0
 10
-2.10547
 20
-4.53508
 11
-1.11656
 21
-4.87372
  0
LINE
  8
0
 10
-1.11656
 20
-4.87372
 11
-0.0788422
 21
-4.99937
  0
LINE
  8
0
 10
-0.0788422
 20
-4.99937
 11
0.96228
 21
-4.90651
  0
LINE
  8
0
 10
0.96228
 20
-4.90651
 11
1.96138
 21
-4.59923
  0
LINE
  8
0
 10
1.96138
 20
-4.59923
 11
2.87476
 21
-4.09093
  0
LINE
  8
0
 10
2.87476
 20
-4.09093
 11
3.66249
 21
-3.40384
  0
LINE
  8
0
 10
3.66249
 20
-3.40384
 11
53.6223
 21
63.1273
  0
LINE
  8
0
 10
53.6223
 20
63.1273
 11
54.0624
 21
64.0754
  0
LINE
  8
0
 10
54.0624
 20
64.0754
 11
54.2959
 21
65.0943
  0
LINE
  8
0
 10
54.2959
 20
65.0943
 11
54.3123
 21
66.1394
  0
LINE
  8
0
 10
54.3123
 20
66.1394
 11
54.1112
 21
67.1651
  0
LINE
  8
0
 10
54.1112
 20
67.1651
 11
53.7011
 21
68.1266
  0
LINE
  8
0
 10
53.7011
 20
68.1266
 11
53.1001
 21
68.9819
  0
LINE
  8
0
 10
53.1001
 20
68.9819
 11
52.3345
 21
69.6935
  0
LINE
  8
0
 10
52.3345
 20
69.6935
 11
51.4376
 21
70.2303
  0
LINE
  8
0
 10
51.4376
 20
70.2303
 11
50.4487
 21
70.569
  0
LINE
  8
0
 10
50.4487
 20
70.569
 11
49.4109
 21
70.6946
  0
LINE
  8
0
 10
49.4109
 20
70.6946
 11
48.3698
 21
70.6018
  0
LINE
  8
0
 10
48.3698
 20
70.6018
 11
47.3707
 21
70.2945
  0
LINE
  8
0
 10
47.3707
 20
70.2945
 11
46.4573
 21
69.7862
  0
LINE
  8
0
 10
46.4573
 20
69.7862
 11
45.6696
 21
69.0991
  0
LINE
  8
0
 10
45.6696
 20
69.0991
 11
-3.66249
 21
3.40384
  0
LINE
  8
0
 10
-3.66249
 20
3.40384
 11
-4.29015
 21
2.56798
  0
LINE
  8
0
 10
-4.29015
 20
2.56798
 11
-4.7303
 21
1.61989
  0
LINE
  8
0
 10
-4.7303
 20
1.61989
 11
-4.96375
 21
0.600998
  0
LINE
  8
0
 10
-4.96375
 20
0.600998
 11
-4.98022
 21
-0.444138
  0
ENDSEC
  0
SECTION
  2
OBJECTS
  0
DICTIONARY
  0
ENDSEC
  0
EOF
