  0
SECTION
  2
BLOCKS
  0
ENDSEC
  0
SECTION
  2
ENTITIES
  0
LINE
  8
0
 10
-79.9055
 20
-136.342
 11
-79.7745
 21
-137.38
  0
LINE
  8
0
 10
-79.7745
 20
-137.38
 11
-79.4308
 21
-138.367
  0
LINE
  8
0
 10
-79.4308
 20
-138.367
 11
-78.8894
 21
-139.261
  0
LINE
  8
0
 10
-78.8894
 20
-139.261
 11
-78.1739
 21
-140.023
  0
LINE
  8
0
 10
-78.1739
 20
-140.023
 11
-77.3156
 21
-140.619
  0
LINE
  8
0
 10
-77.3156
 20
-140.619
 11
-76.352
 21
-141.025
  0
LINE
  8
0
 10
-76.352
 20
-141.025
 11
-75.3252
 21
-141.22
  0
LINE
  8
0
 10
-75.3252
 20
-141.22
 11
-74.2802
 21
-141.199
  0
LINE
  8
0
 10
-74.2802
 20
-141.199
 11
-73.2625
 21
-140.96
  0
LINE
  8
0
 10
-73.2625
 20
-140.96
 11
-72.3167
 21
-140.515
  0
LINE
  8
0
 10
-72.3167
 20
-140.515
 11
-71.484
 21
-139.883
  0
LINE
  8
0
 10
-71.484
 20
-139.883
 11
-70.801
 21
-139.092
  0
LINE
  8
0
 10
-70.801
 20
-139.092
 11
4.10559
 21
-2.85378
  0
LINE
  8
0
 10
4.10559
 20
-2.85378
 11
4.60921
 21
-1.93781
  0
LINE
  8
0
 10
4.60921
 20
-1.93781
 11
4.91138
 21
-0.937149
  0
LINE
  8
0
 10
4.91138
 20
-0.937149
 11
4.9989
 21
0.104446
  0
LINE
  8
0
 10
4.9989
 20
0.104446
 11
4.86794
 21
1.14149
  0
LINE
  8
0
 10
4.86794
 20
1.14149
 11
4.52423
 21
2.12865
  0
LINE
  8
0
 10
4.52423
 20
2.12865
 11
3.98279
 21
3.02278
  0
LINE
  8
0
 10
3.98279
 20
3.02278
 11
3.26729
 21
3.78481
  0
LINE
  8
0
 10
3.26729
 20
3.78481
 11
2.40898
 21
4.38141
  0
LINE
  8
0
 10
2.40898
 20
4.38141
 11
1.44539
 21
4.78651
  0
LINE
  8
0
 10
1.44539
 20
4.78651
 11
0.41864
 21
4.98244
  0
LINE
  8
0
 10
0.41864
 20
4.98244
 11
-0.626404
 21
4.9606
  0
LINE
  8
0
 10
-0.626404
 20
4.9606
 11
-1.64409
 21
4.72195
  0
LINE
  8
0
 10
-1.64409
 20
4.72195
 11
-2.5899
 21
4.27695
  0
LINE
  8
0
 10
-2.5899
 20
4.27695
 11
-3.42255
 21
3.645
  0
LINE
  8
0
 10
-3.42255
 20
3.645
 11
-4.10559
 21
2.85378
  0
LINE
  8
0
 10
-4.10559
 20
2.85378
 11
-79.0122
 21
-133.384
  0
LINE
  8
0
 10
-79.0122
 20
-133.384
 11
-79.5158
 21
-134.3
  0
LINE
  8
0
 10
-79.5158
 20
-134.3
 11
-79.818
 21
-135.301
  0
LINE
  8
0
 10
-79.818
 20
-135.301
 11
-79.9055
 21
-136.342
  0
ENDSEC
  0
SECTION
  2
OBJECTS
  0
DICTIONARY
  0
ENDSEC
  0
EOF
