  0
SECTION
  2
BLOCKS
  0
ENDSEC
  0
SECTION
  2
ENTITIES
  0
LINE
  8
0
 10
-4.98016
 20
0.444748
 11
-4.96382
 21
-0.600403
  0
LINE
  8
0
 10
-4.96382
 20
-0.600403
 11
-4.7305
 21
-1.61931
  0
LINE
  8
0
 10
-4.7305
 20
-1.61931
 11
-4.29047
 21
-2.56746
  0
LINE
  8
0
 10
-4.29047
 20
-2.56746
 11
-3.6629
 21
-3.4034
  0
LINE
  8
0
 10
-3.6629
 20
-3.4034
 11
-2.87524
 21
-4.09058
  0
LINE
  8
0
 10
-2.87524
 20
-4.09058
 11
-1.96193
 21
-4.59898
  0
LINE
  8
0
 10
-1.96193
 20
-4.59898
 11
-0.962875
 21
-4.9064
  0
LINE
  8
0
 10
-0.962875
 20
-4.9064
 11
0.0782471
 21
-4.99937
  0
LINE
  8
0
 10
0.0782471
 20
-4.99937
 11
1.11598
 21
-4.87386
  0
LINE
  8
0
 10
1.11598
 20
-4.87386
 11
2.10492
 21
-4.53532
  0
LINE
  8
0
 10
2.10492
 20
-4.53532
 11
3.00188
 21
-3.99858
  0
LINE
  8
0
 10
3.00188
 20
-3.99858
 11
3.76762
 21
-3.28708
  0
LINE
  8
0
 10
3.76762
 20
-3.28708
 11
4.36871
 21
-2.43192
  0
LINE
  8
0
 10
4.36871
 20
-2.43192
 11
41.7704
 21
85.2414
  0
LINE
  8
0
 10
41.7704
 20
85.2414
 11
42.1805
 21
86.2029
  0
LINE
  8
0
 10
42.1805
 20
86.2029
 11
42.3818
 21
87.2286
  0
LINE
  8
0
 10
42.3818
 20
87.2286
 11
42.3655
 21
88.2737
  0
LINE
  8
0
 10
42.3655
 20
88.2737
 11
42.1322
 21
89.2926
  0
LINE
  8
0
 10
42.1322
 20
89.2926
 11
41.6921
 21
90.2408
  0
LINE
  8
0
 10
41.6921
 20
90.2408
 11
41.0646
 21
91.0767
  0
LINE
  8
0
 10
41.0646
 20
91.0767
 11
40.2769
 21
91.7639
  0
LINE
  8
0
 10
40.2769
 20
91.7639
 11
39.3636
 21
92.2723
  0
LINE
  8
0
 10
39.3636
 20
92.2723
 11
38.3645
 21
92.5797
  0
LINE
  8
0
 10
38.3645
 20
92.5797
 11
37.3234
 21
92.6727
  0
LINE
  8
0
 10
37.3234
 20
92.6727
 11
36.2857
 21
92.5472
  0
LINE
  8
0
 10
36.2857
 20
92.5472
 11
35.2967
 21
92.2087
  0
LINE
  8
0
 10
35.2967
 20
92.2087
 11
34.3998
 21
91.6719
  0
LINE
  8
0
 10
34.3998
 20
91.6719
 11
33.634
 21
90.9604
  0
LINE
  8
0
 10
33.634
 20
90.9604
 11
33.0329
 21
90.1053
  0
LINE
  8
0
 10
33.0329
 20
90.1053
 11
-4.36871
 21
2.43192
  0
LINE
  8
0
 10
-4.36871
 20
2.43192
 11
-4.77887
 21
1.47046
  0
LINE
  8
0
 10
-4.77887
 20
1.47046
 11
-4.98016
 21
0.444748
  0
ENDSEC
  0
SECTION
  2
OBJECTS
  0
DICTIONARY
  0
ENDSEC
  0
EOF
