  0
SECTION
  2
BLOCKS
  0
ENDSEC
  0
SECTION
  2
ENTITIES
  0
LINE
  8
0
 10
2.11731
 20
-0.0561829
 11
2.28624
 21
-0.0327454
  0
LINE
  8
0
 10
2.28624
 20
-0.0327454
 11
2.4498
 21
0.00630188
  0
LINE
  8
0
 10
2.4498
 20
0.00630188
 11
2.60799
 21
0.0609894
  0
LINE
  8
0
 10
2.60799
 20
0.0609894
 11
2.75887
 21
0.134308
  0
LINE
  8
0
 10
2.75887
 20
0.134308
 11
2.89949
 21
0.228241
  0
LINE
  8
0
 10
2.89949
 20
0.228241
 11
3.02986
 21
0.342804
  0
LINE
  8
0
 10
3.02986
 20
0.342804
 11
3.14999
 21
0.477997
  0
LINE
  8
0
 10
3.14999
 20
0.477997
 11
3.25937
 21
0.634674
  0
LINE
  8
0
 10
3.25937
 20
0.634674
 11
3.35649
 21
0.813736
  0
LINE
  8
0
 10
3.35649
 20
0.813736
 11
3.44136
 21
1.01518
  0
LINE
  8
0
 10
3.44136
 20
1.01518
 11
3.51399
 21
1.239
  0
LINE
  8
0
 10
3.51399
 20
1.239
 11
3.57262
 21
1.48817
  0
LINE
  8
0
 10
3.57262
 20
1.48817
 11
3.61449
 21
1.76474
  0
LINE
  8
0
 10
3.61449
 20
1.76474
 11
3.63962
 21
2.06868
  0
LINE
  8
0
 10
3.63962
 20
2.06868
 11
3.64799
 21
2.39999
  0
LINE
  8
0
 10
3.64799
 20
2.39999
 11
3.63974
 21
2.74637
  0
LINE
  8
0
 10
3.63974
 20
2.74637
 11
3.61499
 21
3.06149
  0
LINE
  8
0
 10
3.61499
 20
3.06149
 11
3.57375
 21
3.34537
  0
LINE
  8
0
 10
3.57375
 20
3.34537
 11
3.51599
 21
3.59799
  0
LINE
  8
0
 10
3.51599
 20
3.59799
 11
3.44437
 21
3.823
  0
LINE
  8
0
 10
3.44437
 20
3.823
 11
3.36049
 21
4.02399
  0
LINE
  8
0
 10
3.36049
 20
4.02399
 11
3.26437
 21
4.20099
  0
LINE
  8
0
 10
3.26437
 20
4.20099
 11
3.15599
 21
4.35399
  0
LINE
  8
0
 10
3.15599
 20
4.35399
 11
3.03662
 21
4.4845
  0
LINE
  8
0
 10
3.03662
 20
4.4845
 11
2.90749
 21
4.59399
  0
LINE
  8
0
 10
2.90749
 20
4.59399
 11
2.76862
 21
4.6825
  0
LINE
  8
0
 10
2.76862
 20
4.6825
 11
2.62
 21
4.75
  0
LINE
  8
0
 10
2.62
 20
4.75
 11
2.46425
 21
4.79987
  0
LINE
  8
0
 10
2.46425
 20
4.79987
 11
2.30299
 21
4.83549
  0
LINE
  8
0
 10
2.30299
 20
4.83549
 11
2.13625
 21
4.85687
  0
LINE
  8
0
 10
2.13625
 20
4.85687
 11
1.96399
 21
4.864
  0
LINE
  8
0
 10
1.96399
 20
4.864
 11
1.78394
 21
4.85687
  0
LINE
  8
0
 10
1.78394
 20
4.85687
 11
1.61075
 21
4.83549
  0
LINE
  8
0
 10
1.61075
 20
4.83549
 11
1.44443
 21
4.79987
  0
LINE
  8
0
 10
1.44443
 20
4.79987
 11
1.28499
 21
4.75
  0
LINE
  8
0
 10
1.28499
 20
4.75
 11
1.13419
 21
4.6825
  0
LINE
  8
0
 10
1.13419
 20
4.6825
 11
0.993744
 21
4.59399
  0
LINE
  8
0
 10
0.993744
 20
4.59399
 11
0.863678
 21
4.4845
  0
LINE
  8
0
 10
0.863678
 20
4.4845
 11
0.743988
 21
4.35399
  0
LINE
  8
0
 10
0.743988
 20
4.35399
 11
0.636124
 21
4.20099
  0
LINE
  8
0
 10
0.636124
 20
4.20099
 11
0.540497
 21
4.02399
  0
LINE
  8
0
 10
0.540497
 20
4.02399
 11
0.457123
 21
3.823
  0
LINE
  8
0
 10
0.457123
 20
3.823
 11
0.385986
 21
3.59799
  0
LINE
  8
0
 10
0.385986
 20
3.59799
 11
0.329117
 21
3.34537
  0
LINE
  8
0
 10
0.329117
 20
3.34537
 11
0.288498
 21
3.06149
  0
LINE
  8
0
 10
0.288498
 20
3.06149
 11
0.264114
 21
2.74637
  0
LINE
  8
0
 10
0.264114
 20
2.74637
 11
0.255997
 21
2.39999
  0
LINE
  8
0
 10
0.255997
 20
2.39999
 11
0.264114
 21
2.06737
  0
LINE
  8
0
 10
0.264114
 20
2.06737
 11
0.288498
 21
1.7625
  0
LINE
  8
0
 10
0.288498
 20
1.7625
 11
0.329117
 21
1.48537
  0
LINE
  8
0
 10
0.329117
 20
1.48537
 11
0.385986
 21
1.23599
  0
LINE
  8
0
 10
0.385986
 20
1.23599
 11
0.457062
 21
1.01187
  0
LINE
  8
0
 10
0.457062
 20
1.01187
 11
0.540237
 21
0.810486
  0
LINE
  8
0
 10
0.540237
 20
0.810486
 11
0.635559
 21
0.631866
  0
LINE
  8
0
 10
0.635559
 20
0.631866
 11
0.742996
 21
0.475998
  0
LINE
  8
0
 10
0.742996
 20
0.475998
 11
0.861557
 21
0.341675
  0
LINE
  8
0
 10
0.861557
 20
0.341675
 11
0.99025
 21
0.227737
  0
LINE
  8
0
 10
0.99025
 20
0.227737
 11
1.12906
 21
0.134186
  0
LINE
  8
0
 10
1.12906
 20
0.134186
 11
1.278
 21
0.0609894
  0
LINE
  8
0
 10
1.278
 20
0.0609894
 11
1.43506
 21
0.00630188
  0
LINE
  8
0
 10
1.43506
 20
0.00630188
 11
1.59824
 21
-0.0327454
  0
LINE
  8
0
 10
1.59824
 20
-0.0327454
 11
1.76755
 21
-0.0561829
  0
LINE
  8
0
 10
1.76755
 20
-0.0561829
 11
1.94299
 21
-0.0639954
  0
LINE
  8
0
 10
1.94299
 20
-0.0639954
 11
2.11731
 21
-0.0561829
  0
LINE
  8
0
 10
1.82993
 20
0.454178
 11
1.71474
 21
0.472748
  0
LINE
  8
0
 10
1.71474
 20
0.472748
 11
1.60643
 21
0.503677
  0
LINE
  8
0
 10
1.60643
 20
0.503677
 11
1.50499
 21
0.546997
  0
LINE
  8
0
 10
1.50499
 20
0.546997
 11
1.41074
 21
0.604996
  0
LINE
  8
0
 10
1.41074
 20
0.604996
 11
1.32399
 21
0.678986
  0
LINE
  8
0
 10
1.32399
 20
0.678986
 11
1.24474
 21
0.768997
  0
LINE
  8
0
 10
1.24474
 20
0.768997
 11
1.17299
 21
0.875
  0
LINE
  8
0
 10
1.17299
 20
0.875
 11
1.10905
 21
0.998123
  0
LINE
  8
0
 10
1.10905
 20
0.998123
 11
1.05324
 21
1.1395
  0
LINE
  8
0
 10
1.05324
 20
1.1395
 11
1.00555
 21
1.29912
  0
LINE
  8
0
 10
1.00555
 20
1.29912
 11
0.965988
 21
1.47699
  0
LINE
  8
0
 10
0.965988
 20
1.47699
 11
0.935364
 21
1.67519
  0
LINE
  8
0
 10
0.935364
 20
1.67519
 11
0.913498
 21
1.89474
  0
LINE
  8
0
 10
0.913498
 20
1.89474
 11
0.90036
 21
2.13568
  0
LINE
  8
0
 10
0.90036
 20
2.13568
 11
0.895996
 21
2.39799
  0
LINE
  8
0
 10
0.895996
 20
2.39799
 11
0.900299
 21
2.66824
  0
LINE
  8
0
 10
0.900299
 20
2.66824
 11
0.913239
 21
2.91499
  0
LINE
  8
0
 10
0.913239
 20
2.91499
 11
0.934799
 21
3.13824
  0
LINE
  8
0
 10
0.934799
 20
3.13824
 11
0.964996
 21
3.338
  0
LINE
  8
0
 10
0.964996
 20
3.338
 11
1.00362
 21
3.51649
  0
LINE
  8
0
 10
1.00362
 20
3.51649
 11
1.05049
 21
3.67599
  0
LINE
  8
0
 10
1.05049
 20
3.67599
 11
1.10562
 21
3.8165
  0
LINE
  8
0
 10
1.10562
 20
3.8165
 11
1.16899
 21
3.93799
  0
LINE
  8
0
 10
1.16899
 20
3.93799
 11
1.24094
 21
4.0423
  0
LINE
  8
0
 10
1.24094
 20
4.0423
 11
1.32074
 21
4.13025
  0
LINE
  8
0
 10
1.32074
 20
4.13025
 11
1.40843
 21
4.2018
  0
LINE
  8
0
 10
1.40843
 20
4.2018
 11
1.504
 21
4.25699
  0
LINE
  8
0
 10
1.504
 20
4.25699
 11
1.60786
 21
4.29855
  0
LINE
  8
0
 10
1.60786
 20
4.29855
 11
1.7195
 21
4.32825
  0
LINE
  8
0
 10
1.7195
 20
4.32825
 11
1.83887
 21
4.34605
  0
LINE
  8
0
 10
1.83887
 20
4.34605
 11
1.96599
 21
4.35199
  0
LINE
  8
0
 10
1.96599
 20
4.35199
 11
2.08618
 21
4.34618
  0
LINE
  8
0
 10
2.08618
 20
4.34618
 11
2.19974
 21
4.32874
  0
LINE
  8
0
 10
2.19974
 20
4.32874
 11
2.30669
 21
4.29968
  0
LINE
  8
0
 10
2.30669
 20
4.29968
 11
2.407
 21
4.25899
  0
LINE
  8
0
 10
2.407
 20
4.25899
 11
2.50069
 21
4.2043
  0
LINE
  8
0
 10
2.50069
 20
4.2043
 11
2.58675
 21
4.13324
  0
LINE
  8
0
 10
2.58675
 20
4.13324
 11
2.66518
 21
4.04581
  0
LINE
  8
0
 10
2.66518
 20
4.04581
 11
2.73599
 21
3.94199
  0
LINE
  8
0
 10
2.73599
 20
3.94199
 11
2.79893
 21
3.82043
  0
LINE
  8
0
 10
2.79893
 20
3.82043
 11
2.85374
 21
3.67975
  0
LINE
  8
0
 10
2.85374
 20
3.67975
 11
2.90044
 21
3.51993
  0
LINE
  8
0
 10
2.90044
 20
3.51993
 11
2.939
 21
3.34099
  0
LINE
  8
0
 10
2.939
 20
3.34099
 11
2.96918
 21
3.14105
  0
LINE
  8
0
 10
2.96918
 20
3.14105
 11
2.99074
 21
2.91724
  0
LINE
  8
0
 10
2.99074
 20
2.91724
 11
3.00368
 21
2.66956
  0
LINE
  8
0
 10
3.00368
 20
2.66956
 11
3.008
 21
2.39799
  0
LINE
  8
0
 10
3.008
 20
2.39799
 11
3.00337
 21
2.13568
  0
LINE
  8
0
 10
3.00337
 20
2.13568
 11
2.98949
 21
1.89474
  0
LINE
  8
0
 10
2.98949
 20
1.89474
 11
2.96637
 21
1.67519
  0
LINE
  8
0
 10
2.96637
 20
1.67519
 11
2.93399
 21
1.47699
  0
LINE
  8
0
 10
2.93399
 20
1.47699
 11
2.89311
 21
1.29912
  0
LINE
  8
0
 10
2.89311
 20
1.29912
 11
2.8445
 21
1.1395
  0
LINE
  8
0
 10
2.8445
 20
1.1395
 11
2.78812
 21
0.998123
  0
LINE
  8
0
 10
2.78812
 20
0.998123
 11
2.724
 21
0.875
  0
LINE
  8
0
 10
2.724
 20
0.875
 11
2.65224
 21
0.768997
  0
LINE
  8
0
 10
2.65224
 20
0.768997
 11
2.573
 21
0.678986
  0
LINE
  8
0
 10
2.573
 20
0.678986
 11
2.48624
 21
0.604996
  0
LINE
  8
0
 10
2.48624
 20
0.604996
 11
2.392
 21
0.546997
  0
LINE
  8
0
 10
2.392
 20
0.546997
 11
2.29099
 21
0.503677
  0
LINE
  8
0
 10
2.29099
 20
0.503677
 11
2.18399
 21
0.472748
  0
LINE
  8
0
 10
2.18399
 20
0.472748
 11
2.071
 21
0.454178
  0
LINE
  8
0
 10
2.071
 20
0.454178
 11
1.952
 21
0.447998
  0
LINE
  8
0
 10
1.952
 20
0.447998
 11
1.82993
 21
0.454178
  0
ENDSEC
  0
SECTION
  2
OBJECTS
  0
DICTIONARY
  0
ENDSEC
  0
EOF
