  0
SECTION
  2
BLOCKS
  0
ENDSEC
  0
SECTION
  2
ENTITIES
  0
LINE
  8
0
 10
-424.652
 20
377.92
 11
-424.436
 21
376.897
  0
LINE
  8
0
 10
-424.436
 20
376.897
 11
-424.011
 21
375.942
  0
LINE
  8
0
 10
-424.011
 20
375.942
 11
-114.332
 21
-92.4968
  0
LINE
  8
0
 10
-114.332
 20
-92.4968
 11
-113.718
 21
-93.3429
  0
LINE
  8
0
 10
-113.718
 20
-93.3429
 11
-112.942
 21
-94.0429
  0
LINE
  8
0
 10
-112.942
 20
-94.0429
 11
-112.037
 21
-94.5662
  0
LINE
  8
0
 10
-112.037
 20
-94.5662
 11
-111.043
 21
-94.89
  0
LINE
  8
0
 10
-111.043
 20
-94.89
 11
-110.004
 21
-95
  0
LINE
  8
0
 10
-110.004
 20
-95
 11
-108.964
 21
-94.8915
  0
LINE
  8
0
 10
-108.964
 20
-94.8915
 11
-107.97
 21
-94.5692
  0
LINE
  8
0
 10
-107.97
 20
-94.5692
 11
-107.064
 21
-94.0472
  0
LINE
  8
0
 10
-107.064
 20
-94.0472
 11
2.93594
 21
-4.04724
  0
LINE
  8
0
 10
2.93594
 20
-4.04724
 11
3.71326
 21
-3.34837
  0
LINE
  8
0
 10
3.71326
 20
-3.34837
 11
4.32829
 21
-2.50317
  0
LINE
  8
0
 10
4.32829
 20
-2.50317
 11
4.75414
 21
-1.54857
  0
LINE
  8
0
 10
4.75414
 20
-1.54857
 11
4.97221
 21
-0.526276
  0
LINE
  8
0
 10
4.97221
 20
-0.526276
 11
4.97298
 21
0.518982
  0
LINE
  8
0
 10
4.97298
 20
0.518982
 11
4.75641
 21
1.5416
  0
LINE
  8
0
 10
4.75641
 20
1.5416
 11
4.33195
 21
2.49681
  0
LINE
  8
0
 10
4.33195
 20
2.49681
 11
3.71817
 21
3.34291
  0
LINE
  8
0
 10
3.71817
 20
3.34291
 11
2.94189
 21
4.04292
  0
LINE
  8
0
 10
2.94189
 20
4.04292
 11
-415.961
 21
381.782
  0
LINE
  8
0
 10
-415.961
 20
381.782
 11
-416.737
 21
382.482
  0
LINE
  8
0
 10
-416.737
 20
382.482
 11
-417.642
 21
383.005
  0
LINE
  8
0
 10
-417.642
 20
383.005
 11
-418.636
 21
383.329
  0
LINE
  8
0
 10
-418.636
 20
383.329
 11
-419.676
 21
383.439
  0
LINE
  8
0
 10
-419.676
 20
383.439
 11
-420.715
 21
383.33
  0
LINE
  8
0
 10
-420.715
 20
383.33
 11
-421.71
 21
383.008
  0
LINE
  8
0
 10
-421.71
 20
383.008
 11
-422.615
 21
382.486
  0
LINE
  8
0
 10
-422.615
 20
382.486
 11
-423.392
 21
381.787
  0
LINE
  8
0
 10
-423.392
 20
381.787
 11
-424.008
 21
380.942
  0
LINE
  8
0
 10
-424.008
 20
380.942
 11
-424.433
 21
379.987
  0
LINE
  8
0
 10
-424.433
 20
379.987
 11
-424.651
 21
378.965
  0
LINE
  8
0
 10
-424.651
 20
378.965
 11
-424.652
 21
377.92
  0
ENDSEC
  0
SECTION
  2
OBJECTS
  0
DICTIONARY
  0
ENDSEC
  0
EOF
