  0
SECTION
  2
BLOCKS
  0
ENDSEC
  0
SECTION
  2
ENTITIES
  0
LINE
  8
0
 10
-87.2367
 20
-160.871
 11
-87.0752
 21
-161.903
  0
LINE
  8
0
 10
-87.0752
 20
-161.903
 11
-86.7026
 21
-162.88
  0
LINE
  8
0
 10
-86.7026
 20
-162.88
 11
-86.135
 21
-163.758
  0
LINE
  8
0
 10
-86.135
 20
-163.758
 11
-85.3974
 21
-164.498
  0
LINE
  8
0
 10
-85.3974
 20
-164.498
 11
-84.5219
 21
-165.069
  0
LINE
  8
0
 10
-84.5219
 20
-165.069
 11
-83.5467
 21
-165.446
  0
LINE
  8
0
 10
-83.5467
 20
-165.446
 11
-82.5146
 21
-165.611
  0
LINE
  8
0
 10
-82.5146
 20
-165.611
 11
-81.4707
 21
-165.559
  0
LINE
  8
0
 10
-81.4707
 20
-165.559
 11
-80.4605
 21
-165.29
  0
LINE
  8
0
 10
-80.4605
 20
-165.29
 11
-79.5282
 21
-164.818
  0
LINE
  8
0
 10
-79.5282
 20
-164.818
 11
-78.7145
 21
-164.161
  0
LINE
  8
0
 10
-78.7145
 20
-164.161
 11
-78.0551
 21
-163.35
  0
LINE
  8
0
 10
-78.0551
 20
-163.35
 11
4.66432
 21
-1.80113
  0
LINE
  8
0
 10
4.66432
 20
-1.80113
 11
4.93686
 21
-0.792007
  0
LINE
  8
0
 10
4.93686
 20
-0.792007
 11
4.99365
 21
0.251724
  0
LINE
  8
0
 10
4.99365
 20
0.251724
 11
4.83218
 21
1.28445
  0
LINE
  8
0
 10
4.83218
 20
1.28445
 11
4.45953
 21
2.26106
  0
LINE
  8
0
 10
4.45953
 20
2.26106
 11
3.89198
 21
3.13885
  0
LINE
  8
0
 10
3.89198
 20
3.13885
 11
3.15433
 21
3.87944
  0
LINE
  8
0
 10
3.15433
 20
3.87944
 11
2.27882
 21
4.45049
  0
LINE
  8
0
 10
2.27882
 20
4.45049
 11
1.30371
 21
4.82704
  0
LINE
  8
0
 10
1.30371
 20
4.82704
 11
0.271622
 21
4.99261
  0
LINE
  8
0
 10
0.271622
 20
4.99261
 11
-0.772324
 21
4.93999
  0
LINE
  8
0
 10
-0.772324
 20
4.93999
 11
-1.78252
 21
4.67145
  0
LINE
  8
0
 10
-1.78252
 20
4.67145
 11
-2.71483
 21
4.19876
  0
LINE
  8
0
 10
-2.71483
 20
4.19876
 11
-3.52847
 21
3.54256
  0
LINE
  8
0
 10
-3.52847
 20
3.54256
 11
-4.18791
 21
2.73154
  0
LINE
  8
0
 10
-4.18791
 20
2.73154
 11
-4.66432
 21
1.80113
  0
LINE
  8
0
 10
-4.66432
 20
1.80113
 11
-86.4309
 21
-157.887
  0
LINE
  8
0
 10
-86.4309
 20
-157.887
 11
-86.9073
 21
-158.818
  0
LINE
  8
0
 10
-86.9073
 20
-158.818
 11
-87.1799
 21
-159.827
  0
LINE
  8
0
 10
-87.1799
 20
-159.827
 11
-87.2367
 21
-160.871
  0
ENDSEC
  0
SECTION
  2
OBJECTS
  0
DICTIONARY
  0
ENDSEC
  0
EOF
