  0
SECTION
  2
BLOCKS
  0
ENDSEC
  0
SECTION
  2
ENTITIES
  0
LINE
  8
0
 10
-5.3401
 20
0.716492
 11
-5.31635
 21
-0.328506
  0
LINE
  8
0
 10
-5.31635
 20
-0.328506
 11
-5.07585
 21
-1.34575
  0
LINE
  8
0
 10
-5.07585
 20
-1.34575
 11
-4.6291
 21
-2.29076
  0
LINE
  8
0
 10
-4.6291
 20
-2.29076
 11
-3.99565
 21
-3.12224
  0
LINE
  8
0
 10
-3.99565
 20
-3.12224
 11
-3.20317
 21
-3.80383
  0
LINE
  8
0
 10
-3.20317
 20
-3.80383
 11
-2.84625
 21
-4.11081
  0
LINE
  8
0
 10
-2.84625
 20
-4.11081
 11
-1.92937
 21
-4.61275
  0
LINE
  8
0
 10
-1.92937
 20
-4.61275
 11
-0.928162
 21
-4.91309
  0
LINE
  8
0
 10
-0.928162
 20
-4.91309
 11
0.113586
 21
-4.9987
  0
LINE
  8
0
 10
0.113586
 20
-4.9987
 11
1.15039
 21
-4.86584
  0
LINE
  8
0
 10
1.15039
 20
-4.86584
 11
2.13693
 21
-4.52034
  0
LINE
  8
0
 10
2.13693
 20
-4.52034
 11
3.03006
 21
-3.97726
  0
LINE
  8
0
 10
3.03006
 20
-3.97726
 11
3.79077
 21
-3.26036
  0
LINE
  8
0
 10
3.79077
 20
-3.26036
 11
4.3858
 21
-2.40097
  0
LINE
  8
0
 10
4.3858
 20
-2.40097
 11
4.78915
 21
-1.43665
  0
LINE
  8
0
 10
4.78915
 20
-1.43665
 11
4.98318
 21
-0.409515
  0
LINE
  8
0
 10
4.98318
 20
-0.409515
 11
4.95944
 21
0.635483
  0
LINE
  8
0
 10
4.95944
 20
0.635483
 11
4.71895
 21
1.65273
  0
LINE
  8
0
 10
4.71895
 20
1.65273
 11
4.2722
 21
2.59773
  0
LINE
  8
0
 10
4.2722
 20
2.59773
 11
3.63875
 21
3.4292
  0
LINE
  8
0
 10
3.63875
 20
3.4292
 11
2.84625
 21
4.11081
  0
LINE
  8
0
 10
2.84625
 20
4.11081
 11
2.48935
 21
4.41777
  0
LINE
  8
0
 10
2.48935
 20
4.41777
 11
1.57246
 21
4.91971
  0
LINE
  8
0
 10
1.57246
 20
4.91971
 11
0.571259
 21
5.22006
  0
LINE
  8
0
 10
0.571259
 20
5.22006
 11
-0.470505
 21
5.30566
  0
LINE
  8
0
 10
-0.470505
 20
5.30566
 11
-1.50731
 21
5.17282
  0
LINE
  8
0
 10
-1.50731
 20
5.17282
 11
-2.49384
 21
4.8273
  0
LINE
  8
0
 10
-2.49384
 20
4.8273
 11
-3.38698
 21
4.28423
  0
LINE
  8
0
 10
-3.38698
 20
4.28423
 11
-4.14767
 21
3.56732
  0
LINE
  8
0
 10
-4.14767
 20
3.56732
 11
-4.74271
 21
2.70793
  0
LINE
  8
0
 10
-4.74271
 20
2.70793
 11
-5.14606
 21
1.74361
  0
LINE
  8
0
 10
-5.14606
 20
1.74361
 11
-5.3401
 21
0.716492
  0
ENDSEC
  0
SECTION
  2
OBJECTS
  0
DICTIONARY
  0
ENDSEC
  0
EOF
