  0
SECTION
  2
BLOCKS
  0
ENDSEC
  0
SECTION
  2
ENTITIES
  0
LINE
  8
0
 10
-31.4994
 20
135.375
 11
-31.4058
 21
134.334
  0
LINE
  8
0
 10
-31.4058
 20
134.334
 11
-4.90578
 21
-0.96608
  0
LINE
  8
0
 10
-4.90578
 20
-0.96608
 11
-4.5977
 21
-1.96495
  0
LINE
  8
0
 10
-4.5977
 20
-1.96495
 11
-4.0887
 21
-2.87793
  0
LINE
  8
0
 10
-4.0887
 20
-2.87793
 11
-3.40099
 21
-3.66513
  0
LINE
  8
0
 10
-3.40099
 20
-3.66513
 11
-2.56465
 21
-4.29214
  0
LINE
  8
0
 10
-2.56465
 20
-4.29214
 11
-1.61623
 21
-4.73157
  0
LINE
  8
0
 10
-1.61623
 20
-4.73157
 11
-0.597137
 21
-4.9642
  0
LINE
  8
0
 10
-0.597137
 20
-4.9642
 11
0.447998
 21
-4.97987
  0
LINE
  8
0
 10
0.447998
 20
-4.97987
 11
1.47359
 21
-4.77791
  0
LINE
  8
0
 10
1.47359
 20
-4.77791
 11
2.43477
 21
-4.36713
  0
LINE
  8
0
 10
2.43477
 20
-4.36713
 11
3.28955
 21
-3.76547
  0
LINE
  8
0
 10
3.28955
 20
-3.76547
 11
74.503
 21
72.9786
  0
LINE
  8
0
 10
74.503
 20
72.9786
 11
75.214
 21
73.7448
  0
LINE
  8
0
 10
75.214
 20
73.7448
 11
75.7501
 21
74.6421
  0
LINE
  8
0
 10
75.7501
 20
74.6421
 11
76.088
 21
75.6313
  0
LINE
  8
0
 10
76.088
 20
75.6313
 11
76.2129
 21
76.6691
  0
LINE
  8
0
 10
76.2129
 20
76.6691
 11
76.1192
 21
77.7102
  0
LINE
  8
0
 10
76.1192
 20
77.7102
 11
75.8111
 21
78.709
  0
LINE
  8
0
 10
75.8111
 20
78.709
 11
75.3021
 21
79.622
  0
LINE
  8
0
 10
75.3021
 20
79.622
 11
74.6144
 21
80.4092
  0
LINE
  8
0
 10
74.6144
 20
80.4092
 11
73.7781
 21
81.0362
  0
LINE
  8
0
 10
73.7781
 20
81.0362
 11
-23.9353
 21
139.592
  0
LINE
  8
0
 10
-23.9353
 20
139.592
 11
-24.8838
 21
140.032
  0
LINE
  8
0
 10
-24.8838
 20
140.032
 11
-25.9028
 21
140.264
  0
LINE
  8
0
 10
-25.9028
 20
140.264
 11
-26.948
 21
140.28
  0
LINE
  8
0
 10
-26.948
 20
140.28
 11
-27.9736
 21
140.078
  0
LINE
  8
0
 10
-27.9736
 20
140.078
 11
-28.9348
 21
139.667
  0
LINE
  8
0
 10
-28.9348
 20
139.667
 11
-29.7896
 21
139.065
  0
LINE
  8
0
 10
-29.7896
 20
139.065
 11
-30.5005
 21
138.299
  0
LINE
  8
0
 10
-30.5005
 20
138.299
 11
-31.0367
 21
137.402
  0
LINE
  8
0
 10
-31.0367
 20
137.402
 11
-31.3746
 21
136.413
  0
LINE
  8
0
 10
-31.3746
 20
136.413
 11
-31.4994
 21
135.375
  0
ENDSEC
  0
SECTION
  2
OBJECTS
  0
DICTIONARY
  0
ENDSEC
  0
EOF
