  0
SECTION
  2
BLOCKS
  0
ENDSEC
  0
SECTION
  2
ENTITIES
  0
LINE
  8
0
 10
-4.99826
 20
0.131165
 11
-4.91632
 21
-0.910904
  0
LINE
  8
0
 10
-4.91632
 20
-0.910904
 11
-4.61949
 21
-1.91315
  0
LINE
  8
0
 10
-4.61949
 20
-1.91315
 11
-4.12079
 21
-2.83179
  0
LINE
  8
0
 10
-4.12079
 20
-2.83179
 11
-3.44197
 21
-3.62668
  0
LINE
  8
0
 10
-3.44197
 20
-3.62668
 11
-2.61272
 21
-4.26305
  0
LINE
  8
0
 10
-2.61272
 20
-4.26305
 11
-1.66928
 21
-4.7131
  0
LINE
  8
0
 10
-1.66928
 20
-4.7131
 11
-0.652893
 21
-4.95718
  0
LINE
  8
0
 10
-0.652893
 20
-4.95718
 11
0.392014
 21
-4.9846
  0
LINE
  8
0
 10
0.392014
 20
-4.9846
 11
1.41982
 21
-4.79416
  0
LINE
  8
0
 10
1.41982
 20
-4.79416
 11
2.38554
 21
-4.39421
  0
LINE
  8
0
 10
2.38554
 20
-4.39421
 11
3.24702
 21
-3.8022
  0
LINE
  8
0
 10
3.24702
 20
-3.8022
 11
3.96658
 21
-3.04401
  0
LINE
  8
0
 10
3.96658
 20
-3.04401
 11
4.5128
 21
-2.1528
  0
LINE
  8
0
 10
4.5128
 20
-2.1528
 11
8.56253
 21
9.28127
  0
LINE
  8
0
 10
8.56253
 20
9.28127
 11
8.69902
 21
10.3176
  0
LINE
  8
0
 10
8.69902
 20
10.3176
 11
8.61708
 21
11.3597
  0
LINE
  8
0
 10
8.61708
 20
11.3597
 11
8.32025
 21
12.3619
  0
LINE
  8
0
 10
8.32025
 20
12.3619
 11
7.82153
 21
13.2805
  0
LINE
  8
0
 10
7.82153
 20
13.2805
 11
7.14272
 21
14.0754
  0
LINE
  8
0
 10
7.14272
 20
14.0754
 11
6.31348
 21
14.7118
  0
LINE
  8
0
 10
6.31348
 20
14.7118
 11
5.37004
 21
15.1619
  0
LINE
  8
0
 10
5.37004
 20
15.1619
 11
4.35365
 21
15.4059
  0
LINE
  8
0
 10
4.35365
 20
15.4059
 11
3.30873
 21
15.4334
  0
LINE
  8
0
 10
3.30873
 20
15.4334
 11
2.28093
 21
15.2429
  0
LINE
  8
0
 10
2.28093
 20
15.2429
 11
1.3152
 21
14.843
  0
LINE
  8
0
 10
1.3152
 20
14.843
 11
0.45372
 21
14.251
  0
LINE
  8
0
 10
0.45372
 20
14.251
 11
-0.265839
 21
13.4928
  0
LINE
  8
0
 10
-0.265839
 20
13.4928
 11
-0.812042
 21
12.6016
  0
LINE
  8
0
 10
-0.812042
 20
12.6016
 11
-1.16103
 21
11.6163
  0
LINE
  8
0
 10
-1.16103
 20
11.6163
 11
-4.5128
 21
2.1528
  0
LINE
  8
0
 10
-4.5128
 20
2.1528
 11
-4.86177
 21
1.1675
  0
LINE
  8
0
 10
-4.86177
 20
1.1675
 11
-4.99826
 21
0.131165
  0
ENDSEC
  0
SECTION
  2
OBJECTS
  0
DICTIONARY
  0
ENDSEC
  0
EOF
