  0
SECTION
  2
BLOCKS
  0
ENDSEC
  0
SECTION
  2
ENTITIES
  0
LINE
  8
0
 10
-4.99217
 20
-0.279434
 11
-2.45215
 21
-15.9555
  0
LINE
  8
0
 10
-2.45215
 20
-15.9555
 11
-2.28496
 21
-16.9873
  0
LINE
  8
0
 10
-2.28496
 20
-16.9873
 11
-1.90689
 21
-17.9618
  0
LINE
  8
0
 10
-1.90689
 20
-17.9618
 11
-1.33447
 21
-18.8364
  0
LINE
  8
0
 10
-1.33447
 20
-18.8364
 11
-0.592712
 21
-19.5729
  0
LINE
  8
0
 10
-0.592712
 20
-19.5729
 11
0.285934
 21
-20.1391
  0
LINE
  8
0
 10
0.285934
 20
-20.1391
 11
1.26312
 21
-20.5102
  0
LINE
  8
0
 10
1.26312
 20
-20.5102
 11
2.29611
 21
-20.6701
  0
LINE
  8
0
 10
2.29611
 20
-20.6701
 11
3.33977
 21
-20.6117
  0
LINE
  8
0
 10
3.33977
 20
-20.6117
 11
4.34846
 21
-20.3375
  0
LINE
  8
0
 10
4.34846
 20
-20.3375
 11
5.27812
 21
-19.8597
  0
LINE
  8
0
 10
5.27812
 20
-19.8597
 11
82.7381
 21
25.8163
  0
LINE
  8
0
 10
82.7381
 20
25.8163
 11
83.5481
 21
26.4771
  0
LINE
  8
0
 10
83.5481
 20
26.4771
 11
84.203
 21
27.2917
  0
LINE
  8
0
 10
84.203
 20
27.2917
 11
84.6742
 21
28.2248
  0
LINE
  8
0
 10
84.6742
 20
28.2248
 11
84.9412
 21
29.2354
  0
LINE
  8
0
 10
84.9412
 20
29.2354
 11
84.9922
 21
30.2794
  0
LINE
  8
0
 10
84.9922
 20
30.2794
 11
84.825
 21
31.3113
  0
LINE
  8
0
 10
84.825
 20
31.3113
 11
84.4469
 21
32.2858
  0
LINE
  8
0
 10
84.4469
 20
32.2858
 11
83.8745
 21
33.1604
  0
LINE
  8
0
 10
83.8745
 20
33.1604
 11
83.1328
 21
33.8969
  0
LINE
  8
0
 10
83.1328
 20
33.8969
 11
82.2541
 21
34.4631
  0
LINE
  8
0
 10
82.2541
 20
34.4631
 11
81.2769
 21
34.8342
  0
LINE
  8
0
 10
81.2769
 20
34.8342
 11
80.2439
 21
34.994
  0
LINE
  8
0
 10
80.2439
 20
34.994
 11
79.2003
 21
34.9356
  0
LINE
  8
0
 10
79.2003
 20
34.9356
 11
78.1916
 21
34.6615
  0
LINE
  8
0
 10
78.1916
 20
34.6615
 11
-1.80843
 21
4.6615
  0
LINE
  8
0
 10
-1.80843
 20
4.6615
 11
-2.73808
 21
4.18364
  0
LINE
  8
0
 10
-2.73808
 20
4.18364
 11
-3.54808
 21
3.52292
  0
LINE
  8
0
 10
-3.54808
 20
3.52292
 11
-4.203
 21
2.70825
  0
LINE
  8
0
 10
-4.203
 20
2.70825
 11
-4.67424
 21
1.77522
  0
LINE
  8
0
 10
-4.67424
 20
1.77522
 11
-4.94118
 21
0.764587
  0
LINE
  8
0
 10
-4.94118
 20
0.764587
 11
-4.99217
 21
-0.279434
  0
ENDSEC
  0
SECTION
  2
OBJECTS
  0
DICTIONARY
  0
ENDSEC
  0
EOF
