  0
SECTION
  2
BLOCKS
  0
ENDSEC
  0
SECTION
  2
ENTITIES
  0
LINE
  8
0
 10
-9.77187
 20
73.273
 11
-4.92793
 21
-0.84581
  0
LINE
  8
0
 10
-4.92793
 20
-0.84581
 11
-4.64439
 21
-1.8519
  0
LINE
  8
0
 10
-4.64439
 20
-1.8519
 11
-4.15787
 21
-2.77705
  0
LINE
  8
0
 10
-4.15787
 20
-2.77705
 11
-3.48962
 21
-3.58084
  0
LINE
  8
0
 10
-3.48962
 20
-3.58084
 11
-2.66887
 21
-4.22812
  0
LINE
  8
0
 10
-2.66887
 20
-4.22812
 11
-1.73146
 21
-4.69063
  0
LINE
  8
0
 10
-1.73146
 20
-4.69063
 11
-0.718399
 21
-4.94812
  0
LINE
  8
0
 10
-0.718399
 20
-4.94812
 11
0.326065
 21
-4.98935
  0
LINE
  8
0
 10
0.326065
 20
-4.98935
 11
1.35629
 21
-4.81253
  0
LINE
  8
0
 10
1.35629
 20
-4.81253
 11
2.32722
 21
-4.42537
  0
LINE
  8
0
 10
2.32722
 20
-4.42537
 11
3.19646
 21
-3.8448
  0
LINE
  8
0
 10
3.19646
 20
-3.8448
 11
3.92598
 21
-3.09621
  0
LINE
  8
0
 10
3.92598
 20
-3.09621
 11
4.48395
 21
-2.21228
  0
LINE
  8
0
 10
4.48395
 20
-2.21228
 11
4.84592
 21
-1.23167
  0
LINE
  8
0
 10
4.84592
 20
-1.23167
 11
4.99609
 21
-0.197235
  0
LINE
  8
0
 10
4.99609
 20
-0.197235
 11
4.92793
 21
0.84581
  0
LINE
  8
0
 10
4.92793
 20
0.84581
 11
0.152176
 21
73.9216
  0
LINE
  8
0
 10
0.152176
 20
73.9216
 11
-0.131363
 21
74.9277
  0
LINE
  8
0
 10
-0.131363
 20
74.9277
 11
-0.617874
 21
75.8529
  0
LINE
  8
0
 10
-0.617874
 20
75.8529
 11
-1.28613
 21
76.6566
  0
LINE
  8
0
 10
-1.28613
 20
76.6566
 11
-2.10687
 21
77.3039
  0
LINE
  8
0
 10
-2.10687
 20
77.3039
 11
-3.04428
 21
77.7664
  0
LINE
  8
0
 10
-3.04428
 20
77.7664
 11
-4.05736
 21
78.0239
  0
LINE
  8
0
 10
-4.05736
 20
78.0239
 11
-5.10182
 21
78.0652
  0
LINE
  8
0
 10
-5.10182
 20
78.0652
 11
-6.13205
 21
77.8883
  0
LINE
  8
0
 10
-6.13205
 20
77.8883
 11
-7.10298
 21
77.5012
  0
LINE
  8
0
 10
-7.10298
 20
77.5012
 11
-7.97223
 21
76.9206
  0
LINE
  8
0
 10
-7.97223
 20
76.9206
 11
-8.70175
 21
76.172
  0
LINE
  8
0
 10
-8.70175
 20
76.172
 11
-9.2597
 21
75.2881
  0
LINE
  8
0
 10
-9.2597
 20
75.2881
 11
-9.62167
 21
74.3075
  0
LINE
  8
0
 10
-9.62167
 20
74.3075
 11
-9.77187
 21
73.273
  0
ENDSEC
  0
SECTION
  2
OBJECTS
  0
DICTIONARY
  0
ENDSEC
  0
EOF
