  0
SECTION
  2
BLOCKS
  0
ENDSEC
  0
SECTION
  2
ENTITIES
  0
LINE
  8
0
 10
-31.4988
 20
135.408
 11
-31.4121
 21
134.367
  0
LINE
  8
0
 10
-31.4121
 20
134.367
 11
-4.91211
 21
-0.933319
  0
LINE
  8
0
 10
-4.91211
 20
-0.933319
 11
-4.61072
 21
-1.93422
  0
LINE
  8
0
 10
-4.61072
 20
-1.93422
 11
-4.10782
 21
-2.85057
  0
LINE
  8
0
 10
-4.10782
 20
-2.85057
 11
-3.42537
 21
-3.64235
  0
LINE
  8
0
 10
-3.42537
 20
-3.64235
 11
-2.59323
 21
-4.27493
  0
LINE
  8
0
 10
-2.59323
 20
-4.27493
 11
-1.64777
 21
-4.72067
  0
LINE
  8
0
 10
-1.64777
 20
-4.72067
 11
-0.630264
 21
-4.96011
  0
LINE
  8
0
 10
-0.630264
 20
-4.96011
 11
0.414764
 21
-4.98276
  0
LINE
  8
0
 10
0.414764
 20
-4.98276
 11
1.44168
 21
-4.78764
  0
LINE
  8
0
 10
1.44168
 20
-4.78764
 11
2.40558
 21
-4.38327
  0
LINE
  8
0
 10
2.40558
 20
-4.38327
 11
3.26434
 21
-3.78734
  0
LINE
  8
0
 10
3.26434
 20
-3.78734
 11
76.1649
 21
73.7309
  0
LINE
  8
0
 10
76.1649
 20
73.7309
 11
76.707
 21
74.6246
  0
LINE
  8
0
 10
76.707
 20
74.6246
 11
77.0515
 21
75.6115
  0
LINE
  8
0
 10
77.0515
 20
75.6115
 11
77.1833
 21
76.6484
  0
LINE
  8
0
 10
77.1833
 20
76.6484
 11
77.0966
 21
77.6901
  0
LINE
  8
0
 10
77.0966
 20
77.6901
 11
76.7952
 21
78.691
  0
LINE
  8
0
 10
76.7952
 20
78.691
 11
76.2923
 21
79.6073
  0
LINE
  8
0
 10
76.2923
 20
79.6073
 11
75.6098
 21
80.3991
  0
LINE
  8
0
 10
75.6098
 20
80.3991
 11
74.7777
 21
81.0317
  0
LINE
  8
0
 10
74.7777
 20
81.0317
 11
-23.9068
 21
139.575
  0
LINE
  8
0
 10
-23.9068
 20
139.575
 11
-24.8522
 21
140.021
  0
LINE
  8
0
 10
-24.8522
 20
140.021
 11
-25.8697
 21
140.26
  0
LINE
  8
0
 10
-25.8697
 20
140.26
 11
-26.9148
 21
140.283
  0
LINE
  8
0
 10
-26.9148
 20
140.283
 11
-27.9417
 21
140.088
  0
LINE
  8
0
 10
-27.9417
 20
140.088
 11
-28.9056
 21
139.683
  0
LINE
  8
0
 10
-28.9056
 20
139.683
 11
-29.7643
 21
139.087
  0
LINE
  8
0
 10
-29.7643
 20
139.087
 11
-30.4804
 21
138.326
  0
LINE
  8
0
 10
-30.4804
 20
138.326
 11
-31.0226
 21
137.432
  0
LINE
  8
0
 10
-31.0226
 20
137.432
 11
-31.3671
 21
136.445
  0
LINE
  8
0
 10
-31.3671
 20
136.445
 11
-31.4988
 21
135.408
  0
ENDSEC
  0
SECTION
  2
OBJECTS
  0
DICTIONARY
  0
ENDSEC
  0
EOF
