  0
SECTION
  2
BLOCKS
  0
ENDSEC
  0
SECTION
  2
ENTITIES
  0
LINE
  8
0
 10
-10.5275
 20
49.4315
 11
-4.8838
 21
-1.07164
  0
LINE
  8
0
 10
-4.8838
 20
-1.07164
 11
-4.55426
 21
-2.06363
  0
LINE
  8
0
 10
-4.55426
 20
-2.06363
 11
-4.0257
 21
-2.96542
  0
LINE
  8
0
 10
-4.0257
 20
-2.96542
 11
-3.32117
 21
-3.73761
  0
LINE
  8
0
 10
-3.32117
 20
-3.73761
 11
-2.47151
 21
-4.34644
  0
LINE
  8
0
 10
-2.47151
 20
-4.34644
 11
-1.51381
 21
-4.76532
  0
LINE
  8
0
 10
-1.51381
 20
-4.76532
 11
-0.489975
 21
-4.97592
  0
LINE
  8
0
 10
-0.489975
 20
-4.97592
 11
0.555283
 21
-4.96906
  0
LINE
  8
0
 10
0.555283
 20
-4.96906
 11
1.57628
 21
-4.74503
  0
LINE
  8
0
 10
1.57628
 20
-4.74503
 11
2.52837
 21
-4.31361
  0
LINE
  8
0
 10
2.52837
 20
-4.31361
 11
3.36998
 21
-3.69366
  0
LINE
  8
0
 10
3.36998
 20
-3.69366
 11
4.06429
 21
-2.91229
  0
LINE
  8
0
 10
4.06429
 20
-2.91229
 11
4.58098
 21
-2.00363
  0
LINE
  8
0
 10
4.58098
 20
-2.00363
 11
4.89745
 21
-1.0074
  0
LINE
  8
0
 10
4.89745
 20
-1.0074
 11
4.99988
 21
0.0328217
  0
LINE
  8
0
 10
4.99988
 20
0.0328217
 11
4.8838
 21
1.07164
  0
LINE
  8
0
 10
4.8838
 20
1.07164
 11
-0.527679
 21
49.4971
  0
LINE
  8
0
 10
-0.527679
 20
49.4971
 11
-0.643768
 21
50.536
  0
LINE
  8
0
 10
-0.643768
 20
50.536
 11
-0.973297
 21
51.5279
  0
LINE
  8
0
 10
-0.973297
 20
51.5279
 11
-1.50186
 21
52.4297
  0
LINE
  8
0
 10
-1.50186
 20
52.4297
 11
-2.20639
 21
53.2019
  0
LINE
  8
0
 10
-2.20639
 20
53.2019
 11
-3.05606
 21
53.8108
  0
LINE
  8
0
 10
-3.05606
 20
53.8108
 11
-4.01375
 21
54.2296
  0
LINE
  8
0
 10
-4.01375
 20
54.2296
 11
-5.0376
 21
54.4402
  0
LINE
  8
0
 10
-5.0376
 20
54.4402
 11
-6.08286
 21
54.4334
  0
LINE
  8
0
 10
-6.08286
 20
54.4334
 11
-7.10385
 21
54.2094
  0
LINE
  8
0
 10
-7.10385
 20
54.2094
 11
-8.05595
 21
53.7779
  0
LINE
  8
0
 10
-8.05595
 20
53.7779
 11
-8.89755
 21
53.158
  0
LINE
  8
0
 10
-8.89755
 20
53.158
 11
-9.59186
 21
52.3766
  0
LINE
  8
0
 10
-9.59186
 20
52.3766
 11
-10.1086
 21
51.468
  0
LINE
  8
0
 10
-10.1086
 20
51.468
 11
-10.425
 21
50.4717
  0
LINE
  8
0
 10
-10.425
 20
50.4717
 11
-10.5275
 21
49.4315
  0
ENDSEC
  0
SECTION
  2
OBJECTS
  0
DICTIONARY
  0
ENDSEC
  0
EOF
