  0
SECTION
  2
BLOCKS
  0
ENDSEC
  0
SECTION
  2
ENTITIES
  0
LINE
  8
0
 10
-4.97701
 20
-0.478836
 11
-4.76869
 21
-1.50314
  0
LINE
  8
0
 10
-4.76869
 20
-1.50314
 11
-4.35196
 21
-2.46176
  0
LINE
  8
0
 10
-4.35196
 20
-2.46176
 11
-3.74503
 21
-3.31281
  0
LINE
  8
0
 10
-3.74503
 20
-3.31281
 11
-2.97443
 21
-4.01904
  0
LINE
  8
0
 10
-2.97443
 20
-4.01904
 11
-2.07381
 21
-4.54964
  0
LINE
  8
0
 10
-2.07381
 20
-4.54964
 11
-1.08258
 21
-4.88138
  0
LINE
  8
0
 10
-1.08258
 20
-4.88138
 11
-0.0440216
 21
-4.9998
  0
LINE
  8
0
 10
-0.0440216
 20
-4.9998
 11
0.996445
 21
-4.89969
  0
LINE
  8
0
 10
0.996445
 20
-4.89969
 11
1.99338
 21
-4.58545
  0
LINE
  8
0
 10
1.99338
 20
-4.58545
 11
3472.28
 21
1958.44
  0
LINE
  8
0
 10
3472.28
 20
1958.44
 11
3473.18
 21
1958.96
  0
LINE
  8
0
 10
3473.18
 20
1958.96
 11
3473.97
 21
1959.65
  0
LINE
  8
0
 10
3473.97
 20
1959.65
 11
3474.59
 21
1960.49
  0
LINE
  8
0
 10
3474.59
 20
1960.49
 11
3475.02
 21
1961.44
  0
LINE
  8
0
 10
3475.02
 20
1961.44
 11
3475.25
 21
1962.46
  0
LINE
  8
0
 10
3475.25
 20
1962.46
 11
3475.26
 21
1963.51
  0
LINE
  8
0
 10
3475.26
 20
1963.51
 11
3475.05
 21
1964.53
  0
LINE
  8
0
 10
3475.05
 20
1964.53
 11
3474.63
 21
1965.49
  0
LINE
  8
0
 10
3474.63
 20
1965.49
 11
3474.03
 21
1966.34
  0
LINE
  8
0
 10
3474.03
 20
1966.34
 11
3473.26
 21
1967.05
  0
LINE
  8
0
 10
3473.26
 20
1967.05
 11
3472.36
 21
1967.58
  0
LINE
  8
0
 10
3472.36
 20
1967.58
 11
3471.36
 21
1967.91
  0
LINE
  8
0
 10
3471.36
 20
1967.91
 11
3470.33
 21
1968.03
  0
LINE
  8
0
 10
3470.33
 20
1968.03
 11
3469.29
 21
1967.93
  0
LINE
  8
0
 10
3469.29
 20
1967.93
 11
3468.29
 21
1967.62
  0
LINE
  8
0
 10
3468.29
 20
1967.62
 11
-1.99338
 21
4.58545
  0
LINE
  8
0
 10
-1.99338
 20
4.58545
 11
-2.90318
 21
4.0708
  0
LINE
  8
0
 10
-2.90318
 20
4.0708
 11
-3.68611
 21
3.37823
  0
LINE
  8
0
 10
-3.68611
 20
3.37823
 11
-4.30794
 21
2.53802
  0
LINE
  8
0
 10
-4.30794
 20
2.53802
 11
-4.74149
 21
1.58688
  0
LINE
  8
0
 10
-4.74149
 20
1.58688
 11
-4.9678
 21
0.566406
  0
LINE
  8
0
 10
-4.9678
 20
0.566406
 11
-4.97701
 21
-0.478836
  0
ENDSEC
  0
SECTION
  2
OBJECTS
  0
DICTIONARY
  0
ENDSEC
  0
EOF
