  0
SECTION
  2
BLOCKS
  0
ENDSEC
  0
SECTION
  2
ENTITIES
  0
LINE
  8
0
 10
-39.3212
 20
140.967
 11
-39.2898
 21
139.922
  0
LINE
  8
0
 10
-39.2898
 20
139.922
 11
-39.0418
 21
138.907
  0
LINE
  8
0
 10
-39.0418
 20
138.907
 11
-4.70665
 21
-1.68742
  0
LINE
  8
0
 10
-4.70665
 20
-1.68742
 11
-4.25294
 21
-2.62912
  0
LINE
  8
0
 10
-4.25294
 20
-2.62912
 11
-3.61339
 21
-3.45592
  0
LINE
  8
0
 10
-3.61339
 20
-3.45592
 11
-2.8159
 21
-4.13165
  0
LINE
  8
0
 10
-2.8159
 20
-4.13165
 11
-1.89536
 21
-4.62683
  0
LINE
  8
0
 10
-1.89536
 20
-4.62683
 11
-0.891953
 21
-4.91978
  0
LINE
  8
0
 10
-0.891953
 20
-4.91978
 11
0.150406
 21
-4.99773
  0
LINE
  8
0
 10
0.150406
 20
-4.99773
 11
1.1862
 21
-4.85724
  0
LINE
  8
0
 10
1.1862
 20
-4.85724
 11
2.17017
 21
-4.50447
  0
LINE
  8
0
 10
2.17017
 20
-4.50447
 11
82.1702
 21
25.4955
  0
LINE
  8
0
 10
82.1702
 20
25.4955
 11
83.0593
 21
26.0452
  0
LINE
  8
0
 10
83.0593
 20
26.0452
 11
83.8147
 21
26.7676
  0
LINE
  8
0
 10
83.8147
 20
26.7676
 11
84.4034
 21
27.6314
  0
LINE
  8
0
 10
84.4034
 20
27.6314
 11
84.7996
 21
28.5987
  0
LINE
  8
0
 10
84.7996
 20
28.5987
 11
84.9861
 21
29.6272
  0
LINE
  8
0
 10
84.9861
 20
29.6272
 11
84.9546
 21
30.672
  0
LINE
  8
0
 10
84.9546
 20
30.672
 11
84.7066
 21
31.6874
  0
LINE
  8
0
 10
84.7066
 20
31.6874
 11
84.2529
 21
32.6291
  0
LINE
  8
0
 10
84.2529
 20
32.6291
 11
83.6134
 21
33.4559
  0
LINE
  8
0
 10
83.6134
 20
33.4559
 11
-30.7218
 21
144.05
  0
LINE
  8
0
 10
-30.7218
 20
144.05
 11
-31.5193
 21
144.726
  0
LINE
  8
0
 10
-31.5193
 20
144.726
 11
-32.4398
 21
145.221
  0
LINE
  8
0
 10
-32.4398
 20
145.221
 11
-33.4432
 21
145.514
  0
LINE
  8
0
 10
-33.4432
 20
145.514
 11
-34.4856
 21
145.592
  0
LINE
  8
0
 10
-34.4856
 20
145.592
 11
-35.5214
 21
145.451
  0
LINE
  8
0
 10
-35.5214
 20
145.451
 11
-36.5053
 21
145.098
  0
LINE
  8
0
 10
-36.5053
 20
145.098
 11
-37.3944
 21
144.549
  0
LINE
  8
0
 10
-37.3944
 20
144.549
 11
-38.1498
 21
143.826
  0
LINE
  8
0
 10
-38.1498
 20
143.826
 11
-38.7385
 21
142.963
  0
LINE
  8
0
 10
-38.7385
 20
142.963
 11
-39.1348
 21
141.995
  0
LINE
  8
0
 10
-39.1348
 20
141.995
 11
-39.3212
 21
140.967
  0
ENDSEC
  0
SECTION
  2
OBJECTS
  0
DICTIONARY
  0
ENDSEC
  0
EOF
