  0
SECTION
  2
BLOCKS
  0
ENDSEC
  0
SECTION
  2
ENTITIES
  0
LINE
  8
0
 10
-9.77576
 20
73.0758
 11
-5
 21
2.83277e-15
  0
LINE
  8
0
 10
-5
 20
2.83277e-15
 11
-4.89074
 21
-1.03956
  0
LINE
  8
0
 10
-4.89074
 20
-1.03956
 11
-4.56773
 21
-2.03368
  0
LINE
  8
0
 10
-4.56773
 20
-2.03368
 11
-4.04508
 21
-2.93893
  0
LINE
  8
0
 10
-4.04508
 20
-2.93893
 11
-3.34565
 21
-3.71572
  0
LINE
  8
0
 10
-3.34565
 20
-3.71572
 11
-2.5
 21
-4.33013
  0
LINE
  8
0
 10
-2.5
 20
-4.33013
 11
-1.54508
 21
-4.75528
  0
LINE
  8
0
 10
-1.54508
 20
-4.75528
 11
-0.522642
 21
-4.97261
  0
LINE
  8
0
 10
-0.522642
 20
-4.97261
 11
0.522642
 21
-4.97261
  0
LINE
  8
0
 10
0.522642
 20
-4.97261
 11
1.54508
 21
-4.75528
  0
LINE
  8
0
 10
1.54508
 20
-4.75528
 11
2.5
 21
-4.33013
  0
LINE
  8
0
 10
2.5
 20
-4.33013
 11
3.34565
 21
-3.71572
  0
LINE
  8
0
 10
3.34565
 20
-3.71572
 11
4.04508
 21
-2.93893
  0
LINE
  8
0
 10
4.04508
 20
-2.93893
 11
4.56773
 21
-2.03368
  0
LINE
  8
0
 10
4.56773
 20
-2.03368
 11
4.89074
 21
-1.03956
  0
LINE
  8
0
 10
4.89074
 20
-1.03956
 11
5
 21
0
  0
LINE
  8
0
 10
5
 20
0
 11
0.224239
 21
73.0758
  0
LINE
  8
0
 10
0.224239
 20
73.0758
 11
0.114977
 21
74.1154
  0
LINE
  8
0
 10
0.114977
 20
74.1154
 11
-0.208034
 21
75.1095
  0
LINE
  8
0
 10
-0.208034
 20
75.1095
 11
-0.730676
 21
76.0147
  0
LINE
  8
0
 10
-0.730676
 20
76.0147
 11
-1.43011
 21
76.7915
  0
LINE
  8
0
 10
-1.43011
 20
76.7915
 11
-2.27576
 21
77.4059
  0
LINE
  8
0
 10
-2.27576
 20
77.4059
 11
-3.23068
 21
77.8311
  0
LINE
  8
0
 10
-3.23068
 20
77.8311
 11
-4.25312
 21
78.0484
  0
LINE
  8
0
 10
-4.25312
 20
78.0484
 11
-5.2984
 21
78.0484
  0
LINE
  8
0
 10
-5.2984
 20
78.0484
 11
-6.32085
 21
77.8311
  0
LINE
  8
0
 10
-6.32085
 20
77.8311
 11
-7.27576
 21
77.4059
  0
LINE
  8
0
 10
-7.27576
 20
77.4059
 11
-8.12141
 21
76.7915
  0
LINE
  8
0
 10
-8.12141
 20
76.7915
 11
-8.82085
 21
76.0147
  0
LINE
  8
0
 10
-8.82085
 20
76.0147
 11
-9.34349
 21
75.1095
  0
LINE
  8
0
 10
-9.34349
 20
75.1095
 11
-9.6665
 21
74.1154
  0
LINE
  8
0
 10
-9.6665
 20
74.1154
 11
-9.77576
 21
73.0758
  0
ENDSEC
  0
SECTION
  2
OBJECTS
  0
DICTIONARY
  0
ENDSEC
  0
EOF
