  0
SECTION
  2
BLOCKS
  0
ENDSEC
  0
SECTION
  2
ENTITIES
  0
LINE
  8
0
 10
-31.5
 20
135.3
 11
-31.3907
 21
134.26
  0
LINE
  8
0
 10
-31.3907
 20
134.26
 11
-4.89074
 21
-1.03956
  0
LINE
  8
0
 10
-4.89074
 20
-1.03956
 11
-4.56773
 21
-2.03368
  0
LINE
  8
0
 10
-4.56773
 20
-2.03368
 11
-4.04508
 21
-2.93893
  0
LINE
  8
0
 10
-4.04508
 20
-2.93893
 11
-3.34565
 21
-3.71572
  0
LINE
  8
0
 10
-3.34565
 20
-3.71572
 11
-2.5
 21
-4.33013
  0
LINE
  8
0
 10
-2.5
 20
-4.33013
 11
-1.54508
 21
-4.75528
  0
LINE
  8
0
 10
-1.54508
 20
-4.75528
 11
-0.522642
 21
-4.97261
  0
LINE
  8
0
 10
-0.522642
 20
-4.97261
 11
0.522642
 21
-4.97261
  0
LINE
  8
0
 10
0.522642
 20
-4.97261
 11
1.54508
 21
-4.75528
  0
LINE
  8
0
 10
1.54508
 20
-4.75528
 11
2.5
 21
-4.33013
  0
LINE
  8
0
 10
2.5
 20
-4.33013
 11
3.34565
 21
-3.71572
  0
LINE
  8
0
 10
3.34565
 20
-3.71572
 11
4.04508
 21
-2.93893
  0
LINE
  8
0
 10
4.04508
 20
-2.93893
 11
4.56773
 21
-2.03368
  0
LINE
  8
0
 10
4.56773
 20
-2.03368
 11
41.6195
 21
66.9512
  0
LINE
  8
0
 10
41.6195
 20
66.9512
 11
41.9425
 21
67.9453
  0
LINE
  8
0
 10
41.9425
 20
67.9453
 11
42.0518
 21
68.9849
  0
LINE
  8
0
 10
42.0518
 20
68.9849
 11
41.9425
 21
70.0244
  0
LINE
  8
0
 10
41.9425
 20
70.0244
 11
41.6195
 21
71.0186
  0
LINE
  8
0
 10
41.6195
 20
71.0186
 11
41.0969
 21
71.9238
  0
LINE
  8
0
 10
41.0969
 20
71.9238
 11
40.3974
 21
72.7006
  0
LINE
  8
0
 10
40.3974
 20
72.7006
 11
-23.1543
 21
139.016
  0
LINE
  8
0
 10
-23.1543
 20
139.016
 11
-24
 21
139.63
  0
LINE
  8
0
 10
-24
 20
139.63
 11
-24.9549
 21
140.055
  0
LINE
  8
0
 10
-24.9549
 20
140.055
 11
-25.9774
 21
140.273
  0
LINE
  8
0
 10
-25.9774
 20
140.273
 11
-27.0226
 21
140.273
  0
LINE
  8
0
 10
-27.0226
 20
140.273
 11
-28.0451
 21
140.055
  0
LINE
  8
0
 10
-28.0451
 20
140.055
 11
-29
 21
139.63
  0
LINE
  8
0
 10
-29
 20
139.63
 11
-29.8457
 21
139.016
  0
LINE
  8
0
 10
-29.8457
 20
139.016
 11
-30.5451
 21
138.239
  0
LINE
  8
0
 10
-30.5451
 20
138.239
 11
-31.0677
 21
137.334
  0
LINE
  8
0
 10
-31.0677
 20
137.334
 11
-31.3907
 21
136.34
  0
LINE
  8
0
 10
-31.3907
 20
136.34
 11
-31.5
 21
135.3
  0
ENDSEC
  0
SECTION
  2
OBJECTS
  0
DICTIONARY
  0
ENDSEC
  0
EOF
