  0
SECTION
  2
BLOCKS
  0
ENDSEC
  0
SECTION
  2
ENTITIES
  0
LINE
  8
0
 10
-41.9913
 20
-164.247
 11
-41.7871
 21
-165.272
  0
LINE
  8
0
 10
-41.7871
 20
-165.272
 11
-41.3742
 21
-166.233
  0
LINE
  8
0
 10
-41.3742
 20
-166.233
 11
-40.7707
 21
-167.086
  0
LINE
  8
0
 10
-40.7707
 20
-167.086
 11
-40.0029
 21
-167.795
  0
LINE
  8
0
 10
-40.0029
 20
-167.795
 11
-39.1045
 21
-168.33
  0
LINE
  8
0
 10
-39.1045
 20
-168.33
 11
-38.1145
 21
-168.665
  0
LINE
  8
0
 10
-38.1145
 20
-168.665
 11
-37.0765
 21
-168.788
  0
LINE
  8
0
 10
-37.0765
 20
-168.788
 11
-36.0356
 21
-168.692
  0
LINE
  8
0
 10
-36.0356
 20
-168.692
 11
-35.0374
 21
-168.382
  0
LINE
  8
0
 10
-35.0374
 20
-168.382
 11
-34.1256
 21
-167.871
  0
LINE
  8
0
 10
-34.1256
 20
-167.871
 11
-33.3399
 21
-167.181
  0
LINE
  8
0
 10
-33.3399
 20
-167.181
 11
-32.7147
 21
-166.344
  0
LINE
  8
0
 10
-32.7147
 20
-166.344
 11
-32.2773
 21
-165.394
  0
LINE
  8
0
 10
-32.2773
 20
-165.394
 11
-32.0469
 21
-164.375
  0
LINE
  8
0
 10
-32.0469
 20
-164.375
 11
4.73511
 21
-1.60583
  0
LINE
  8
0
 10
4.73511
 20
-1.60583
 11
4.9655
 21
-0.586258
  0
LINE
  8
0
 10
4.9655
 20
-0.586258
 11
4.97888
 21
0.458908
  0
LINE
  8
0
 10
4.97888
 20
0.458908
 11
4.77467
 21
1.48405
  0
LINE
  8
0
 10
4.77467
 20
1.48405
 11
4.36177
 21
2.44434
  0
LINE
  8
0
 10
4.36177
 20
2.44434
 11
3.75826
 21
3.29779
  0
LINE
  8
0
 10
3.75826
 20
3.29779
 11
2.99048
 21
4.00711
  0
LINE
  8
0
 10
2.99048
 20
4.00711
 11
2.092
 21
4.54131
  0
LINE
  8
0
 10
2.092
 20
4.54131
 11
1.1021
 21
4.87701
  0
LINE
  8
0
 10
1.1021
 20
4.87701
 11
0.0640106
 21
4.99959
  0
LINE
  8
0
 10
0.0640106
 20
4.99959
 11
-0.976837
 21
4.90364
  0
LINE
  8
0
 10
-0.976837
 20
4.90364
 11
-1.97502
 21
4.59338
  0
LINE
  8
0
 10
-1.97502
 20
4.59338
 11
-2.88687
 21
4.08237
  0
LINE
  8
0
 10
-2.88687
 20
4.08237
 11
-3.67258
 21
3.39294
  0
LINE
  8
0
 10
-3.67258
 20
3.39294
 11
-4.29774
 21
2.55522
  0
LINE
  8
0
 10
-4.29774
 20
2.55522
 11
-4.73511
 21
1.60583
  0
LINE
  8
0
 10
-4.73511
 20
1.60583
 11
-41.978
 21
-163.202
  0
LINE
  8
0
 10
-41.978
 20
-163.202
 11
-41.9913
 21
-164.247
  0
ENDSEC
  0
SECTION
  2
OBJECTS
  0
DICTIONARY
  0
ENDSEC
  0
EOF
