  0
SECTION
  2
BLOCKS
  0
ENDSEC
  0
SECTION
  2
ENTITIES
  0
LINE
  8
0
 10
-4.99867
 20
-0.114639
 11
-4.8656
 21
-1.15141
  0
LINE
  8
0
 10
-4.8656
 20
-1.15141
 11
-4.51988
 21
-2.13788
  0
LINE
  8
0
 10
-4.51988
 20
-2.13788
 11
-3.97662
 21
-3.0309
  0
LINE
  8
0
 10
-3.97662
 20
-3.0309
 11
-3.25957
 21
-3.79146
  0
LINE
  8
0
 10
-3.25957
 20
-3.79146
 11
-2.40004
 21
-4.38631
  0
LINE
  8
0
 10
-2.40004
 20
-4.38631
 11
-1.43564
 21
-4.78946
  0
LINE
  8
0
 10
-1.43564
 20
-4.78946
 11
-0.408463
 21
-4.98328
  0
LINE
  8
0
 10
-0.408463
 20
-4.98328
 11
0.63652
 21
-4.9593
  0
LINE
  8
0
 10
0.63652
 20
-4.9593
 11
1.65372
 21
-4.7186
  0
LINE
  8
0
 10
1.65372
 20
-4.7186
 11
81.6537
 21
25.2814
  0
LINE
  8
0
 10
81.6537
 20
25.2814
 11
82.5986
 21
25.7283
  0
LINE
  8
0
 10
82.5986
 20
25.7283
 11
83.43
 21
26.362
  0
LINE
  8
0
 10
83.43
 20
26.362
 11
84.1114
 21
27.1546
  0
LINE
  8
0
 10
84.1114
 20
27.1546
 11
250.796
 21
284.092
  0
LINE
  8
0
 10
250.796
 20
284.092
 11
251.297
 21
285.009
  0
LINE
  8
0
 10
251.297
 20
285.009
 11
251.597
 21
286.011
  0
LINE
  8
0
 10
251.597
 20
286.011
 11
251.683
 21
287.052
  0
LINE
  8
0
 10
251.683
 20
287.052
 11
251.55
 21
288.089
  0
LINE
  8
0
 10
251.55
 20
288.089
 11
251.204
 21
289.076
  0
LINE
  8
0
 10
251.204
 20
289.076
 11
250.661
 21
289.969
  0
LINE
  8
0
 10
250.661
 20
289.969
 11
249.944
 21
290.729
  0
LINE
  8
0
 10
249.944
 20
290.729
 11
249.084
 21
291.324
  0
LINE
  8
0
 10
249.084
 20
291.324
 11
248.12
 21
291.727
  0
LINE
  8
0
 10
248.12
 20
291.727
 11
247.093
 21
291.921
  0
LINE
  8
0
 10
247.093
 20
291.921
 11
246.048
 21
291.897
  0
LINE
  8
0
 10
246.048
 20
291.897
 11
245.03
 21
291.656
  0
LINE
  8
0
 10
245.03
 20
291.656
 11
244.085
 21
291.209
  0
LINE
  8
0
 10
244.085
 20
291.209
 11
243.254
 21
290.576
  0
LINE
  8
0
 10
243.254
 20
290.576
 11
242.573
 21
289.783
  0
LINE
  8
0
 10
242.573
 20
289.783
 11
-4.1114
 21
2.8454
  0
LINE
  8
0
 10
-4.1114
 20
2.8454
 11
-4.61314
 21
1.92841
  0
LINE
  8
0
 10
-4.61314
 20
1.92841
 11
-4.91328
 21
0.927139
  0
LINE
  8
0
 10
-4.91328
 20
0.927139
 11
-4.99867
 21
-0.114639
  0
ENDSEC
  0
SECTION
  2
OBJECTS
  0
DICTIONARY
  0
ENDSEC
  0
EOF
