  0
SECTION
  2
BLOCKS
  0
ENDSEC
  0
SECTION
  2
ENTITIES
  0
LINE
  8
0
 10
-3440.35
 20
-1957.29
 11
-3440.14
 21
-1958.31
  0
LINE
  8
0
 10
-3440.14
 20
-1958.31
 11
-3439.72
 21
-1959.27
  0
LINE
  8
0
 10
-3439.72
 20
-1959.27
 11
-3439.11
 21
-1960.12
  0
LINE
  8
0
 10
-3439.11
 20
-1960.12
 11
-3438.34
 21
-1960.82
  0
LINE
  8
0
 10
-3438.34
 20
-1960.82
 11
-3437.44
 21
-1961.35
  0
LINE
  8
0
 10
-3437.44
 20
-1961.35
 11
-3436.44
 21
-1961.68
  0
LINE
  8
0
 10
-3436.44
 20
-1961.68
 11
-3435.4
 21
-1961.79
  0
LINE
  8
0
 10
-3435.4
 20
-1961.79
 11
-3434.36
 21
-1961.69
  0
LINE
  8
0
 10
-3434.36
 20
-1961.69
 11
-3433.37
 21
-1961.37
  0
LINE
  8
0
 10
-3433.37
 20
-1961.37
 11
82.007
 21
25.4205
  0
LINE
  8
0
 10
82.007
 20
25.4205
 11
82.9153
 21
25.9378
  0
LINE
  8
0
 10
82.9153
 20
25.9378
 11
83.6961
 21
26.6327
  0
LINE
  8
0
 10
83.6961
 20
26.6327
 11
84.3155
 21
27.4748
  0
LINE
  8
0
 10
84.3155
 20
27.4748
 11
84.7462
 21
28.4272
  0
LINE
  8
0
 10
84.7462
 20
28.4272
 11
84.9695
 21
29.4483
  0
LINE
  8
0
 10
84.9695
 20
29.4483
 11
84.9756
 21
30.4936
  0
LINE
  8
0
 10
84.9756
 20
30.4936
 11
84.7642
 21
31.5173
  0
LINE
  8
0
 10
84.7642
 20
31.5173
 11
84.3446
 21
32.4747
  0
LINE
  8
0
 10
84.3446
 20
32.4747
 11
83.7352
 21
33.3239
  0
LINE
  8
0
 10
83.7352
 20
33.3239
 11
82.9625
 21
34.0279
  0
LINE
  8
0
 10
82.9625
 20
34.0279
 11
82.0603
 21
34.5558
  0
LINE
  8
0
 10
82.0603
 20
34.5558
 11
81.0681
 21
34.8846
  0
LINE
  8
0
 10
81.0681
 20
34.8846
 11
80.0291
 21
34.9999
  0
LINE
  8
0
 10
80.0291
 20
34.9999
 11
78.989
 21
34.8967
  0
LINE
  8
0
 10
78.989
 20
34.8967
 11
77.993
 21
34.5795
  0
LINE
  8
0
 10
77.993
 20
34.5795
 11
-2.007
 21
4.5795
  0
LINE
  8
0
 10
-2.007
 20
4.5795
 11
-2.91528
 21
4.06215
  0
LINE
  8
0
 10
-2.91528
 20
4.06215
 11
-3437.38
 21
-1952.21
  0
LINE
  8
0
 10
-3437.38
 20
-1952.21
 11
-3438.29
 21
-1952.73
  0
LINE
  8
0
 10
-3438.29
 20
-1952.73
 11
-3439.07
 21
-1953.42
  0
LINE
  8
0
 10
-3439.07
 20
-1953.42
 11
-3439.69
 21
-1954.27
  0
LINE
  8
0
 10
-3439.69
 20
-1954.27
 11
-3440.12
 21
-1955.22
  0
LINE
  8
0
 10
-3440.12
 20
-1955.22
 11
-3440.34
 21
-1956.24
  0
LINE
  8
0
 10
-3440.34
 20
-1956.24
 11
-3440.35
 21
-1957.29
  0
ENDSEC
  0
SECTION
  2
OBJECTS
  0
DICTIONARY
  0
ENDSEC
  0
EOF
