  0
SECTION
  2
BLOCKS
  0
ENDSEC
  0
SECTION
  2
ENTITIES
  0
LINE
  8
0
 10
-203.837
 20
-201.089
 11
-203.775
 21
-202.133
  0
LINE
  8
0
 10
-203.775
 20
-202.133
 11
-203.499
 21
-203.141
  0
LINE
  8
0
 10
-203.499
 20
-203.141
 11
-203.018
 21
-204.069
  0
LINE
  8
0
 10
-203.018
 20
-204.069
 11
-202.355
 21
-204.877
  0
LINE
  8
0
 10
-202.355
 20
-204.877
 11
-201.539
 21
-205.53
  0
LINE
  8
0
 10
-201.539
 20
-205.53
 11
-200.605
 21
-205.999
  0
LINE
  8
0
 10
-200.605
 20
-205.999
 11
-199.593
 21
-206.263
  0
LINE
  8
0
 10
-199.593
 20
-206.263
 11
-198.549
 21
-206.311
  0
LINE
  8
0
 10
-198.549
 20
-206.311
 11
-197.518
 21
-206.142
  0
LINE
  8
0
 10
-197.518
 20
-206.142
 11
-196.544
 21
-205.761
  0
LINE
  8
0
 10
-196.544
 20
-205.761
 11
-195.671
 21
-205.186
  0
LINE
  8
0
 10
-195.671
 20
-205.186
 11
3.17059
 21
-3.86617
  0
LINE
  8
0
 10
3.17059
 20
-3.86617
 11
3.90514
 21
-3.12247
  0
LINE
  8
0
 10
3.90514
 20
-3.12247
 11
4.46899
 21
-2.24231
  0
LINE
  8
0
 10
4.46899
 20
-2.24231
 11
4.83754
 21
-1.26416
  0
LINE
  8
0
 10
4.83754
 20
-1.26416
 11
4.99466
 21
-0.230743
  0
LINE
  8
0
 10
4.99466
 20
-0.230743
 11
4.9335
 21
0.812729
  0
LINE
  8
0
 10
4.9335
 20
0.812729
 11
4.65671
 21
1.82071
  0
LINE
  8
0
 10
4.65671
 20
1.82071
 11
4.17641
 21
2.7491
  0
LINE
  8
0
 10
4.17641
 20
2.7491
 11
3.51357
 21
3.55736
  0
LINE
  8
0
 10
3.51357
 20
3.55736
 11
2.69717
 21
4.21013
  0
LINE
  8
0
 10
2.69717
 20
4.21013
 11
1.76289
 21
4.67889
  0
LINE
  8
0
 10
1.76289
 20
4.67889
 11
0.751556
 21
4.94318
  0
LINE
  8
0
 10
0.751556
 20
4.94318
 11
-0.292587
 21
4.99142
  0
LINE
  8
0
 10
-0.292587
 20
4.99142
 11
-1.32397
 21
4.82152
  0
LINE
  8
0
 10
-1.32397
 20
4.82152
 11
-2.29749
 21
4.44087
  0
LINE
  8
0
 10
-2.29749
 20
4.44087
 11
-3.17059
 21
3.86617
  0
LINE
  8
0
 10
-3.17059
 20
3.86617
 11
-202.012
 21
-197.454
  0
LINE
  8
0
 10
-202.012
 20
-197.454
 11
-202.747
 21
-198.198
  0
LINE
  8
0
 10
-202.747
 20
-198.198
 11
-203.311
 21
-199.078
  0
LINE
  8
0
 10
-203.311
 20
-199.078
 11
-203.679
 21
-200.056
  0
LINE
  8
0
 10
-203.679
 20
-200.056
 11
-203.837
 21
-201.089
  0
ENDSEC
  0
SECTION
  2
OBJECTS
  0
DICTIONARY
  0
ENDSEC
  0
EOF
