  0
SECTION
  2
BLOCKS
  0
ENDSEC
  0
SECTION
  2
ENTITIES
  0
LINE
  8
0
 10
-4.99529
 20
-0.216965
 11
-4.841
 21
-1.25079
  0
LINE
  8
0
 10
-4.841
 20
-1.25079
 11
-4.47517
 21
-2.22997
  0
LINE
  8
0
 10
-4.47517
 20
-2.22997
 11
-3.91373
 21
-3.11168
  0
LINE
  8
0
 10
-3.91373
 20
-3.11168
 11
-3.18126
 21
-3.85739
  0
LINE
  8
0
 10
-3.18126
 20
-3.85739
 11
-2.30974
 21
-4.43452
  0
LINE
  8
0
 10
-2.30974
 20
-4.43452
 11
-1.33727
 21
-4.81784
  0
LINE
  8
0
 10
-1.33727
 20
-4.81784
 11
-0.306366
 21
-4.9906
  0
LINE
  8
0
 10
-0.306366
 20
-4.9906
 11
0.73793
 21
-4.94524
  0
LINE
  8
0
 10
0.73793
 20
-4.94524
 11
1.74997
 21
-4.68375
  0
LINE
  8
0
 10
1.74997
 20
-4.68375
 11
2.68555
 21
-4.21754
  0
LINE
  8
0
 10
2.68555
 20
-4.21754
 11
3.50372
 21
-3.56703
  0
LINE
  8
0
 10
3.50372
 20
-3.56703
 11
4.16881
 21
-2.76062
  0
LINE
  8
0
 10
4.16881
 20
-2.76062
 11
4.65166
 21
-1.83354
  0
LINE
  8
0
 10
4.65166
 20
-1.83354
 11
4.93123
 21
-0.82634
  0
LINE
  8
0
 10
4.93123
 20
-0.82634
 11
4.99529
 21
0.216965
  0
LINE
  8
0
 10
4.99529
 20
0.216965
 11
5.8974
 21
14.912
  0
LINE
  8
0
 10
5.8974
 20
14.912
 11
5.96144
 21
15.9553
  0
LINE
  8
0
 10
5.96144
 20
15.9553
 11
5.80717
 21
16.9891
  0
LINE
  8
0
 10
5.80717
 20
16.9891
 11
5.44133
 21
17.9683
  0
LINE
  8
0
 10
5.44133
 20
17.9683
 11
4.87988
 21
18.85
  0
LINE
  8
0
 10
4.87988
 20
18.85
 11
4.14742
 21
19.5957
  0
LINE
  8
0
 10
4.14742
 20
19.5957
 11
3.27589
 21
20.1728
  0
LINE
  8
0
 10
3.27589
 20
20.1728
 11
2.30344
 21
20.5562
  0
LINE
  8
0
 10
2.30344
 20
20.5562
 11
1.27252
 21
20.7289
  0
LINE
  8
0
 10
1.27252
 20
20.7289
 11
0.22821
 21
20.6835
  0
LINE
  8
0
 10
0.22821
 20
20.6835
 11
-0.783813
 21
20.4221
  0
LINE
  8
0
 10
-0.783813
 20
20.4221
 11
-1.71939
 21
19.9559
  0
LINE
  8
0
 10
-1.71939
 20
19.9559
 11
-2.53757
 21
19.3053
  0
LINE
  8
0
 10
-2.53757
 20
19.3053
 11
-3.20264
 21
18.4989
  0
LINE
  8
0
 10
-3.20264
 20
18.4989
 11
-3.6855
 21
17.5719
  0
LINE
  8
0
 10
-3.6855
 20
17.5719
 11
-3.96507
 21
16.5647
  0
LINE
  8
0
 10
-3.96507
 20
16.5647
 11
-4.02913
 21
15.5213
  0
LINE
  8
0
 10
-4.02913
 20
15.5213
 11
-4.99529
 21
-0.216965
  0
ENDSEC
  0
SECTION
  2
OBJECTS
  0
DICTIONARY
  0
ENDSEC
  0
EOF
