  0
SECTION
  2
BLOCKS
  0
ENDSEC
  0
SECTION
  2
ENTITIES
  0
LINE
  8
0
 10
-4.99866
 20
0.115829
 11
-4.9135
 21
-0.925964
  0
LINE
  8
0
 10
-4.9135
 20
-0.925964
 11
-4.61362
 21
-1.92731
  0
LINE
  8
0
 10
-4.61362
 20
-1.92731
 11
-4.11208
 21
-2.84441
  0
LINE
  8
0
 10
-4.11208
 20
-2.84441
 11
-3.43083
 21
-3.63721
  0
LINE
  8
0
 10
-3.43083
 20
-3.63721
 11
-2.59964
 21
-4.27104
  0
LINE
  8
0
 10
-2.59964
 20
-4.27104
 11
-1.65483
 21
-4.7182
  0
LINE
  8
0
 10
-1.65483
 20
-4.7182
 11
-0.637695
 21
-4.95915
  0
LINE
  8
0
 10
-0.637695
 20
-4.95915
 11
0.407288
 21
-4.98338
  0
LINE
  8
0
 10
0.407288
 20
-4.98338
 11
1.43449
 21
-4.78979
  0
LINE
  8
0
 10
1.43449
 20
-4.78979
 11
2.399
 21
-4.38687
  0
LINE
  8
0
 10
2.399
 20
-4.38687
 11
3.25865
 21
-3.79222
  0
LINE
  8
0
 10
3.25865
 20
-3.79222
 11
3.97591
 21
-3.03185
  0
LINE
  8
0
 10
3.97591
 20
-3.03185
 11
4.51938
 21
-2.13895
  0
LINE
  8
0
 10
4.51938
 20
-2.13895
 11
4.86533
 21
-1.15259
  0
LINE
  8
0
 10
4.86533
 20
-1.15259
 11
4.99866
 21
-0.115829
  0
LINE
  8
0
 10
4.99866
 20
-0.115829
 11
18.0886
 21
101.678
  0
LINE
  8
0
 10
18.0886
 20
101.678
 11
18.2219
 21
102.715
  0
LINE
  8
0
 10
18.2219
 20
102.715
 11
18.1367
 21
103.757
  0
LINE
  8
0
 10
18.1367
 20
103.757
 11
17.8368
 21
104.758
  0
LINE
  8
0
 10
17.8368
 20
104.758
 11
17.3353
 21
105.675
  0
LINE
  8
0
 10
17.3353
 20
105.675
 11
16.6541
 21
106.468
  0
LINE
  8
0
 10
16.6541
 20
106.468
 11
15.8229
 21
107.102
  0
LINE
  8
0
 10
15.8229
 20
107.102
 11
14.8781
 21
107.549
  0
LINE
  8
0
 10
14.8781
 20
107.549
 11
13.8609
 21
107.79
  0
LINE
  8
0
 10
13.8609
 20
107.79
 11
12.8159
 21
107.814
  0
LINE
  8
0
 10
12.8159
 20
107.814
 11
11.7887
 21
107.621
  0
LINE
  8
0
 10
11.7887
 20
107.621
 11
10.8242
 21
107.218
  0
LINE
  8
0
 10
10.8242
 20
107.218
 11
9.96455
 21
106.623
  0
LINE
  8
0
 10
9.96455
 20
106.623
 11
9.24731
 21
105.863
  0
LINE
  8
0
 10
9.24731
 20
105.863
 11
8.70384
 21
104.97
  0
LINE
  8
0
 10
8.70384
 20
104.97
 11
8.35788
 21
103.984
  0
LINE
  8
0
 10
8.35788
 20
103.984
 11
-4.99866
 21
0.115829
  0
ENDSEC
  0
SECTION
  2
OBJECTS
  0
DICTIONARY
  0
ENDSEC
  0
EOF
