  0
SECTION
  2
BLOCKS
  0
ENDSEC
  0
SECTION
  2
ENTITIES
  0
LINE
  8
0
 10
-4.98506
 20
-0.385971
 11
-4.79588
 21
-1.414
  0
LINE
  8
0
 10
-4.79588
 20
-1.414
 11
-4.39709
 21
-2.38022
  0
LINE
  8
0
 10
-4.39709
 20
-2.38022
 11
-3.80614
 21
-3.24242
  0
LINE
  8
0
 10
-3.80614
 20
-3.24242
 11
-3.04881
 21
-3.96291
  0
LINE
  8
0
 10
-3.04881
 20
-3.96291
 11
-2.15826
 21
-4.51019
  0
LINE
  8
0
 10
-2.15826
 20
-4.51019
 11
-1.17337
 21
-4.86037
  0
LINE
  8
0
 10
-1.17337
 20
-4.86037
 11
-0.137207
 21
-4.99811
  0
LINE
  8
0
 10
-0.137207
 20
-4.99811
 11
0.904938
 21
-4.91742
  0
LINE
  8
0
 10
0.904938
 20
-4.91742
 11
1.90756
 21
-4.62181
  0
LINE
  8
0
 10
1.90756
 20
-4.62181
 11
81.9076
 21
25.3782
  0
LINE
  8
0
 10
81.9076
 20
25.3782
 11
82.8268
 21
25.8758
  0
LINE
  8
0
 10
82.8268
 20
25.8758
 11
83.6225
 21
26.5536
  0
LINE
  8
0
 10
83.6225
 20
26.5536
 11
84.2599
 21
27.3821
  0
LINE
  8
0
 10
84.2599
 20
27.3821
 11
84.7111
 21
28.325
  0
LINE
  8
0
 10
84.7111
 20
28.325
 11
84.9564
 21
29.3411
  0
LINE
  8
0
 10
84.9564
 20
29.3411
 11
84.9851
 21
30.386
  0
LINE
  8
0
 10
84.9851
 20
30.386
 11
84.7959
 21
31.414
  0
LINE
  8
0
 10
84.7959
 20
31.414
 11
84.3971
 21
32.3802
  0
LINE
  8
0
 10
84.3971
 20
32.3802
 11
83.8061
 21
33.2424
  0
LINE
  8
0
 10
83.8061
 20
33.2424
 11
83.0488
 21
33.9629
  0
LINE
  8
0
 10
83.0488
 20
33.9629
 11
82.1583
 21
34.5102
  0
LINE
  8
0
 10
82.1583
 20
34.5102
 11
81.1734
 21
34.8604
  0
LINE
  8
0
 10
81.1734
 20
34.8604
 11
80.1372
 21
34.9981
  0
LINE
  8
0
 10
80.1372
 20
34.9981
 11
79.095
 21
34.9174
  0
LINE
  8
0
 10
79.095
 20
34.9174
 11
1.75357
 21
15.9296
  0
LINE
  8
0
 10
1.75357
 20
15.9296
 11
0.750946
 21
15.6339
  0
LINE
  8
0
 10
0.750946
 20
15.6339
 11
-0.168274
 21
15.1363
  0
LINE
  8
0
 10
-0.168274
 20
15.1363
 11
-0.963974
 21
14.4585
  0
LINE
  8
0
 10
-0.963974
 20
14.4585
 11
-1.60135
 21
13.63
  0
LINE
  8
0
 10
-1.60135
 20
13.63
 11
-2.05255
 21
12.6871
  0
LINE
  8
0
 10
-2.05255
 20
12.6871
 11
-4.71109
 21
1.67499
  0
LINE
  8
0
 10
-4.71109
 20
1.67499
 11
-4.95639
 21
0.658905
  0
LINE
  8
0
 10
-4.95639
 20
0.658905
 11
-4.98506
 21
-0.385971
  0
ENDSEC
  0
SECTION
  2
OBJECTS
  0
DICTIONARY
  0
ENDSEC
  0
EOF
