  0
SECTION
  2
BLOCKS
  0
ENDSEC
  0
SECTION
  2
ENTITIES
  0
LINE
  8
0
 10
-2754.4
 20
-952.69
 11
-2754.38
 21
-953.735
  0
LINE
  8
0
 10
-2754.38
 20
-953.735
 11
-2754.14
 21
-954.753
  0
LINE
  8
0
 10
-2754.14
 20
-954.753
 11
-2753.7
 21
-955.699
  0
LINE
  8
0
 10
-2753.7
 20
-955.699
 11
-2753.07
 21
-956.533
  0
LINE
  8
0
 10
-2753.07
 20
-956.533
 11
-2752.28
 21
-957.217
  0
LINE
  8
0
 10
-2752.28
 20
-957.217
 11
-2751.36
 21
-957.722
  0
LINE
  8
0
 10
-2751.36
 20
-957.722
 11
-2750.36
 21
-958.025
  0
LINE
  8
0
 10
-2750.36
 20
-958.025
 11
-2749.32
 21
-958.114
  0
LINE
  8
0
 10
-2749.32
 20
-958.114
 11
-2748.28
 21
-957.985
  0
LINE
  8
0
 10
-2748.28
 20
-957.985
 11
-2747.29
 21
-957.642
  0
LINE
  8
0
 10
-2747.29
 20
-957.642
 11
1.1349
 21
-4.86949
  0
LINE
  8
0
 10
1.1349
 20
-4.86949
 11
2.12253
 21
-4.52711
  0
LINE
  8
0
 10
2.12253
 20
-4.52711
 11
3.01738
 21
-3.98689
  0
LINE
  8
0
 10
3.01738
 20
-3.98689
 11
3.78036
 21
-3.27242
  0
LINE
  8
0
 10
3.78036
 20
-3.27242
 11
4.37813
 21
-2.41492
  0
LINE
  8
0
 10
4.37813
 20
-2.41492
 11
4.78455
 21
-1.45189
  0
LINE
  8
0
 10
4.78455
 20
-1.45189
 11
4.98186
 21
-0.425385
  0
LINE
  8
0
 10
4.98186
 20
-0.425385
 11
4.96144
 21
0.619675
  0
LINE
  8
0
 10
4.96144
 20
0.619675
 11
4.72418
 21
1.63768
  0
LINE
  8
0
 10
4.72418
 20
1.63768
 11
4.28046
 21
2.58411
  0
LINE
  8
0
 10
4.28046
 20
2.58411
 11
3.64964
 21
3.4176
  0
LINE
  8
0
 10
3.64964
 20
3.4176
 11
2.85933
 21
4.10173
  0
LINE
  8
0
 10
2.85933
 20
4.10173
 11
1.94405
 21
4.60657
  0
LINE
  8
0
 10
1.94405
 20
4.60657
 11
0.943802
 21
4.91011
  0
LINE
  8
0
 10
0.943802
 20
4.91011
 11
-0.0976715
 21
4.99904
  0
LINE
  8
0
 10
-0.0976715
 20
4.99904
 11
-1.1349
 21
4.86949
  0
LINE
  8
0
 10
-1.1349
 20
4.86949
 11
-2751.54
 21
-948.588
  0
LINE
  8
0
 10
-2751.54
 20
-948.588
 11
-2752.43
 21
-949.128
  0
LINE
  8
0
 10
-2752.43
 20
-949.128
 11
-2753.2
 21
-949.843
  0
LINE
  8
0
 10
-2753.2
 20
-949.843
 11
-2753.79
 21
-950.7
  0
LINE
  8
0
 10
-2753.79
 20
-950.7
 11
-2754.2
 21
-951.663
  0
LINE
  8
0
 10
-2754.2
 20
-951.663
 11
-2754.4
 21
-952.69
  0
ENDSEC
  0
SECTION
  2
OBJECTS
  0
DICTIONARY
  0
ENDSEC
  0
EOF
