  0
SECTION
  2
BLOCKS
  0
ENDSEC
  0
SECTION
  2
ENTITIES
  0
LINE
  8
0
 10
-5.3255
 20
-0.15947
 11
-5.11719
 21
-1.18378
  0
LINE
  8
0
 10
-5.11719
 20
-1.18378
 11
-4.70044
 21
-2.1424
  0
LINE
  8
0
 10
-4.70044
 20
-2.1424
 11
-4.09352
 21
-2.99342
  0
LINE
  8
0
 10
-4.09352
 20
-2.99342
 11
-2.97441
 21
-4.01906
  0
LINE
  8
0
 10
-2.97441
 20
-4.01906
 11
-2.07381
 21
-4.54964
  0
LINE
  8
0
 10
-2.07381
 20
-4.54964
 11
-1.08255
 21
-4.88139
  0
LINE
  8
0
 10
-1.08255
 20
-4.88139
 11
-0.0439911
 21
-4.99979
  0
LINE
  8
0
 10
-0.0439911
 20
-4.99979
 11
0.99646
 21
-4.89969
  0
LINE
  8
0
 10
0.99646
 20
-4.89969
 11
1.99339
 21
-4.58543
  0
LINE
  8
0
 10
1.99339
 20
-4.58543
 11
2.9032
 21
-4.07079
  0
LINE
  8
0
 10
2.9032
 20
-4.07079
 11
3.68613
 21
-3.37822
  0
LINE
  8
0
 10
3.68613
 20
-3.37822
 11
4.30795
 21
-2.53801
  0
LINE
  8
0
 10
4.30795
 20
-2.53801
 11
4.74149
 21
-1.58687
  0
LINE
  8
0
 10
4.74149
 20
-1.58687
 11
4.9678
 21
-0.566376
  0
LINE
  8
0
 10
4.9678
 20
-0.566376
 11
4.97701
 21
0.478851
  0
LINE
  8
0
 10
4.97701
 20
0.478851
 11
4.76869
 21
1.50317
  0
LINE
  8
0
 10
4.76869
 20
1.50317
 11
4.35194
 21
2.46179
  0
LINE
  8
0
 10
4.35194
 20
2.46179
 11
3.74501
 21
3.31282
  0
LINE
  8
0
 10
3.74501
 20
3.31282
 11
2.97441
 21
4.01906
  0
LINE
  8
0
 10
2.97441
 20
4.01906
 11
2.62592
 21
4.33844
  0
LINE
  8
0
 10
2.62592
 20
4.33844
 11
1.7253
 21
4.86902
  0
LINE
  8
0
 10
1.7253
 20
4.86902
 11
0.734055
 21
5.20078
  0
LINE
  8
0
 10
0.734055
 20
5.20078
 11
-0.304489
 21
5.31918
  0
LINE
  8
0
 10
-0.304489
 20
5.31918
 11
-1.34496
 21
5.21907
  0
LINE
  8
0
 10
-1.34496
 20
5.21907
 11
-2.3419
 21
4.90483
  0
LINE
  8
0
 10
-2.3419
 20
4.90483
 11
-3.25171
 21
4.39018
  0
LINE
  8
0
 10
-3.25171
 20
4.39018
 11
-4.03462
 21
3.6976
  0
LINE
  8
0
 10
-4.03462
 20
3.6976
 11
-4.65645
 21
2.85739
  0
LINE
  8
0
 10
-4.65645
 20
2.85739
 11
-5.09
 21
1.90627
  0
LINE
  8
0
 10
-5.09
 20
1.90627
 11
-5.3163
 21
0.885757
  0
LINE
  8
0
 10
-5.3163
 20
0.885757
 11
-5.3255
 21
-0.15947
  0
ENDSEC
  0
SECTION
  2
OBJECTS
  0
DICTIONARY
  0
ENDSEC
  0
EOF
