  0
SECTION
  2
BLOCKS
  0
ENDSEC
  0
SECTION
  2
ENTITIES
  0
LINE
  8
0
 10
-31.4976
 20
135.146
 11
-31.3565
 21
134.111
  0
LINE
  8
0
 10
-31.3565
 20
134.111
 11
-4.85649
 21
-1.18925
  0
LINE
  8
0
 10
-4.85649
 20
-1.18925
 11
-4.50311
 21
-2.17297
  0
LINE
  8
0
 10
-4.50311
 20
-2.17297
 11
-3.95291
 21
-3.06175
  0
LINE
  8
0
 10
-3.95291
 20
-3.06175
 11
-3.22997
 21
-3.81671
  0
LINE
  8
0
 10
-3.22997
 20
-3.81671
 11
-2.36584
 21
-4.40485
  0
LINE
  8
0
 10
-2.36584
 20
-4.40485
 11
-1.39832
 21
-4.80048
  0
LINE
  8
0
 10
-1.39832
 20
-4.80048
 11
-0.36969
 21
-4.98631
  0
LINE
  8
0
 10
-0.36969
 20
-4.98631
 11
0.675095
 21
-4.95421
  0
LINE
  8
0
 10
0.675095
 20
-4.95421
 11
1.69037
 21
-4.70558
  0
LINE
  8
0
 10
1.69037
 20
-4.70558
 11
2.63179
 21
-4.25131
  0
LINE
  8
0
 10
2.63179
 20
-4.25131
 11
3.45818
 21
-3.61122
  0
LINE
  8
0
 10
3.45818
 20
-3.61122
 11
4.13342
 21
-2.81331
  0
LINE
  8
0
 10
4.13342
 20
-2.81331
 11
41.1852
 21
66.1716
  0
LINE
  8
0
 10
41.1852
 20
66.1716
 11
41.6798
 21
67.0924
  0
LINE
  8
0
 10
41.6798
 20
67.0924
 11
41.9721
 21
68.096
  0
LINE
  8
0
 10
41.9721
 20
68.096
 11
42.0494
 21
69.1384
  0
LINE
  8
0
 10
42.0494
 20
69.1384
 11
41.9083
 21
70.1741
  0
LINE
  8
0
 10
41.9083
 20
70.1741
 11
41.5549
 21
71.1579
  0
LINE
  8
0
 10
41.5549
 20
71.1579
 11
41.0047
 21
72.0466
  0
LINE
  8
0
 10
41.0047
 20
72.0466
 11
40.2818
 21
72.8016
  0
LINE
  8
0
 10
40.2818
 20
72.8016
 11
-23.27
 21
139.117
  0
LINE
  8
0
 10
-23.27
 20
139.117
 11
-24.1341
 21
139.705
  0
LINE
  8
0
 10
-24.1341
 20
139.705
 11
-25.1017
 21
140.1
  0
LINE
  8
0
 10
-25.1017
 20
140.1
 11
-26.1303
 21
140.286
  0
LINE
  8
0
 10
-26.1303
 20
140.286
 11
-27.1751
 21
140.254
  0
LINE
  8
0
 10
-27.1751
 20
140.254
 11
-28.1904
 21
140.006
  0
LINE
  8
0
 10
-28.1904
 20
140.006
 11
-29.1318
 21
139.551
  0
LINE
  8
0
 10
-29.1318
 20
139.551
 11
-29.9582
 21
138.911
  0
LINE
  8
0
 10
-29.9582
 20
138.911
 11
-30.6334
 21
138.113
  0
LINE
  8
0
 10
-30.6334
 20
138.113
 11
-31.128
 21
137.192
  0
LINE
  8
0
 10
-31.128
 20
137.192
 11
-31.4203
 21
136.189
  0
LINE
  8
0
 10
-31.4203
 20
136.189
 11
-31.4976
 21
135.146
  0
ENDSEC
  0
SECTION
  2
OBJECTS
  0
DICTIONARY
  0
ENDSEC
  0
EOF
