  0
SECTION
  2
BLOCKS
  0
ENDSEC
  0
SECTION
  2
ENTITIES
  0
LINE
  8
0
 10
-4.98489
 20
-0.388229
 11
-4.79524
 21
-1.41615
  0
LINE
  8
0
 10
-4.79524
 20
-1.41615
 11
-4.39603
 21
-2.3822
  0
LINE
  8
0
 10
-4.39603
 20
-2.3822
 11
-3.80467
 21
-3.24414
  0
LINE
  8
0
 10
-3.80467
 20
-3.24414
 11
-3.04703
 21
-3.96428
  0
LINE
  8
0
 10
-3.04703
 20
-3.96428
 11
-2.15622
 21
-4.51117
  0
LINE
  8
0
 10
-2.15622
 20
-4.51117
 11
-1.17119
 21
-4.86089
  0
LINE
  8
0
 10
-1.17119
 20
-4.86089
 11
-0.134949
 21
-4.99817
  0
LINE
  8
0
 10
-0.134949
 20
-4.99817
 11
0.907166
 21
-4.91701
  0
LINE
  8
0
 10
0.907166
 20
-4.91701
 11
1.90964
 21
-4.62094
  0
LINE
  8
0
 10
1.90964
 20
-4.62094
 11
2.82866
 21
-4.12292
  0
LINE
  8
0
 10
2.82866
 20
-4.12292
 11
3.62405
 21
-3.44472
  0
LINE
  8
0
 10
3.62405
 20
-3.44472
 11
4.26106
 21
-2.61597
  0
LINE
  8
0
 10
4.26106
 20
-2.61597
 11
4.89645
 21
-1.28664
  0
LINE
  8
0
 10
4.89645
 20
-1.28664
 11
5.1413
 21
-0.270432
  0
LINE
  8
0
 10
5.1413
 20
-0.270432
 11
5.16951
 21
0.77446
  0
LINE
  8
0
 10
5.16951
 20
0.77446
 11
4.97986
 21
1.8024
  0
LINE
  8
0
 10
4.97986
 20
1.8024
 11
4.58063
 21
2.76843
  0
LINE
  8
0
 10
4.58063
 20
2.76843
 11
3.98927
 21
3.63037
  0
LINE
  8
0
 10
3.98927
 20
3.63037
 11
3.23164
 21
4.35051
  0
LINE
  8
0
 10
3.23164
 20
4.35051
 11
2.34084
 21
4.8974
  0
LINE
  8
0
 10
2.34084
 20
4.8974
 11
1.35579
 21
5.24713
  0
LINE
  8
0
 10
1.35579
 20
5.24713
 11
0.319565
 21
5.3844
  0
LINE
  8
0
 10
0.319565
 20
5.3844
 11
-0.722549
 21
5.30324
  0
LINE
  8
0
 10
-0.722549
 20
5.30324
 11
-1.72504
 21
5.00717
  0
LINE
  8
0
 10
-1.72504
 20
5.00717
 11
-2.64406
 21
4.50917
  0
LINE
  8
0
 10
-2.64406
 20
4.50917
 11
-3.43945
 21
3.83095
  0
LINE
  8
0
 10
-3.43945
 20
3.83095
 11
-4.07645
 21
3.0022
  0
LINE
  8
0
 10
-4.07645
 20
3.0022
 11
-4.71184
 21
1.67287
  0
LINE
  8
0
 10
-4.71184
 20
1.67287
 11
-4.95668
 21
0.656662
  0
LINE
  8
0
 10
-4.95668
 20
0.656662
 11
-4.98489
 21
-0.388229
  0
ENDSEC
  0
SECTION
  2
OBJECTS
  0
DICTIONARY
  0
ENDSEC
  0
EOF
