  0
SECTION
  2
BLOCKS
  0
ENDSEC
  0
SECTION
  2
ENTITIES
  0
LINE
  8
0
 10
-31.4994
 20
135.22
 11
-31.3736
 21
134.183
  0
LINE
  8
0
 10
-31.3736
 20
134.183
 11
-4.87358
 21
-1.11717
  0
LINE
  8
0
 10
-4.87358
 20
-1.11717
 11
-4.53481
 21
-2.10605
  0
LINE
  8
0
 10
-4.53481
 20
-2.10605
 11
-3.99783
 21
-3.00287
  0
LINE
  8
0
 10
-3.99783
 20
-3.00287
 11
-3.28615
 21
-3.76845
  0
LINE
  8
0
 10
-3.28615
 20
-3.76845
 11
-2.43083
 21
-4.36932
  0
LINE
  8
0
 10
-2.43083
 20
-4.36932
 11
-1.46928
 21
-4.77924
  0
LINE
  8
0
 10
-1.46928
 20
-4.77924
 11
-0.443497
 21
-4.98029
  0
LINE
  8
0
 10
-0.443497
 20
-4.98029
 11
0.601639
 21
-4.96365
  0
LINE
  8
0
 10
0.601639
 20
-4.96365
 11
1.6205
 21
-4.7301
  0
LINE
  8
0
 10
1.6205
 20
-4.7301
 11
2.56853
 21
-4.28981
  0
LINE
  8
0
 10
2.56853
 20
-4.28981
 11
3.4043
 21
-3.66205
  0
LINE
  8
0
 10
3.4043
 20
-3.66205
 11
4.09129
 21
-2.87424
  0
LINE
  8
0
 10
4.09129
 20
-2.87424
 11
75.0514
 21
78.5005
  0
LINE
  8
0
 10
75.0514
 20
78.5005
 11
75.5596
 21
79.4139
  0
LINE
  8
0
 10
75.5596
 20
79.4139
 11
75.8667
 21
80.413
  0
LINE
  8
0
 10
75.8667
 20
80.413
 11
75.9594
 21
81.4542
  0
LINE
  8
0
 10
75.9594
 20
81.4542
 11
75.8337
 21
82.4919
  0
LINE
  8
0
 10
75.8337
 20
82.4919
 11
75.4949
 21
83.4808
  0
LINE
  8
0
 10
75.4949
 20
83.4808
 11
74.9579
 21
84.3776
  0
LINE
  8
0
 10
74.9579
 20
84.3776
 11
74.2462
 21
85.1431
  0
LINE
  8
0
 10
74.2462
 20
85.1431
 11
73.3909
 21
85.744
  0
LINE
  8
0
 10
73.3909
 20
85.744
 11
-24.0692
 21
139.669
  0
LINE
  8
0
 10
-24.0692
 20
139.669
 11
-25.0307
 21
140.079
  0
LINE
  8
0
 10
-25.0307
 20
140.079
 11
-26.0565
 21
140.28
  0
LINE
  8
0
 10
-26.0565
 20
140.28
 11
-27.1016
 21
140.264
  0
LINE
  8
0
 10
-27.1016
 20
140.264
 11
-28.1205
 21
140.03
  0
LINE
  8
0
 10
-28.1205
 20
140.03
 11
-29.0685
 21
139.59
  0
LINE
  8
0
 10
-29.0685
 20
139.59
 11
-29.9043
 21
138.962
  0
LINE
  8
0
 10
-29.9043
 20
138.962
 11
-30.5913
 21
138.174
  0
LINE
  8
0
 10
-30.5913
 20
138.174
 11
-31.0995
 21
137.261
  0
LINE
  8
0
 10
-31.0995
 20
137.261
 11
-31.4066
 21
136.262
  0
LINE
  8
0
 10
-31.4066
 20
136.262
 11
-31.4994
 21
135.22
  0
ENDSEC
  0
SECTION
  2
OBJECTS
  0
DICTIONARY
  0
ENDSEC
  0
EOF
