  0
SECTION
  2
BLOCKS
  0
ENDSEC
  0
SECTION
  2
ENTITIES
  0
LINE
  8
0
 10
-202.206
 20
-82.5033
 11
-202.119
 21
-83.545
  0
LINE
  8
0
 10
-202.119
 20
-83.545
 11
-201.819
 21
-84.546
  0
LINE
  8
0
 10
-201.819
 20
-84.546
 11
-201.316
 21
-85.4626
  0
LINE
  8
0
 10
-201.316
 20
-85.4626
 11
-200.634
 21
-86.2547
  0
LINE
  8
0
 10
-200.634
 20
-86.2547
 11
-199.802
 21
-86.8877
  0
LINE
  8
0
 10
-199.802
 20
-86.8877
 11
-198.857
 21
-87.3339
  0
LINE
  8
0
 10
-198.857
 20
-87.3339
 11
-197.84
 21
-87.5739
  0
LINE
  8
0
 10
-197.84
 20
-87.5739
 11
-196.795
 21
-87.597
  0
LINE
  8
0
 10
-196.795
 20
-87.597
 11
-195.768
 21
-87.4024
  0
LINE
  8
0
 10
-195.768
 20
-87.4024
 11
-194.803
 21
-86.9986
  0
LINE
  8
0
 10
-194.803
 20
-86.9986
 11
2.4034
 21
-4.38448
  0
LINE
  8
0
 10
2.4034
 20
-4.38448
 11
3.26245
 21
-3.78897
  0
LINE
  8
0
 10
3.26245
 20
-3.78897
 11
3.97894
 21
-3.02786
  0
LINE
  8
0
 10
3.97894
 20
-3.02786
 11
4.52151
 21
-2.13443
  0
LINE
  8
0
 10
4.52151
 20
-2.13443
 11
4.86649
 21
-1.14772
  0
LINE
  8
0
 10
4.86649
 20
-1.14772
 11
4.99876
 21
-0.110825
  0
LINE
  8
0
 10
4.99876
 20
-0.110825
 11
4.91258
 21
0.930878
  0
LINE
  8
0
 10
4.91258
 20
0.930878
 11
4.61168
 21
1.93193
  0
LINE
  8
0
 10
4.61168
 20
1.93193
 11
4.10924
 21
2.84853
  0
LINE
  8
0
 10
4.10924
 20
2.84853
 11
3.4272
 21
3.64064
  0
LINE
  8
0
 10
3.4272
 20
3.64064
 11
2.59535
 21
4.27364
  0
LINE
  8
0
 10
2.59535
 20
4.27364
 11
1.6501
 21
4.71985
  0
LINE
  8
0
 10
1.6501
 20
4.71985
 11
0.632736
 21
4.95979
  0
LINE
  8
0
 10
0.632736
 20
4.95979
 11
-0.412277
 21
4.98296
  0
LINE
  8
0
 10
-0.412277
 20
4.98296
 11
-1.43929
 21
4.78836
  0
LINE
  8
0
 10
-1.43929
 20
4.78836
 11
-2.4034
 21
4.38448
  0
LINE
  8
0
 10
-2.4034
 20
4.38448
 11
-198.646
 21
-77.8257
  0
LINE
  8
0
 10
-198.646
 20
-77.8257
 11
-199.61
 21
-78.2296
  0
LINE
  8
0
 10
-199.61
 20
-78.2296
 11
-200.469
 21
-78.8251
  0
LINE
  8
0
 10
-200.469
 20
-78.8251
 11
-201.186
 21
-79.5862
  0
LINE
  8
0
 10
-201.186
 20
-79.5862
 11
-201.728
 21
-80.4796
  0
LINE
  8
0
 10
-201.728
 20
-80.4796
 11
-202.073
 21
-81.4664
  0
LINE
  8
0
 10
-202.073
 20
-81.4664
 11
-202.206
 21
-82.5033
  0
ENDSEC
  0
SECTION
  2
OBJECTS
  0
DICTIONARY
  0
ENDSEC
  0
EOF
