  0
SECTION
  2
BLOCKS
  0
ENDSEC
  0
SECTION
  2
ENTITIES
  0
LINE
  8
0
 10
-4.99313
 20
0.26181
 11
-4.93845
 21
-0.782043
  0
LINE
  8
0
 10
-4.93845
 20
-0.782043
 11
-4.66794
 21
-1.7917
  0
LINE
  8
0
 10
-4.66794
 20
-1.7917
 11
-4.19342
 21
-2.72308
  0
LINE
  8
0
 10
-4.19342
 20
-2.72308
 11
-3.53561
 21
-3.53543
  0
LINE
  8
0
 10
-3.53561
 20
-3.53543
 11
-2.7233
 21
-4.19327
  0
LINE
  8
0
 10
-2.7233
 20
-4.19327
 11
-1.79196
 21
-4.66785
  0
LINE
  8
0
 10
-1.79196
 20
-4.66785
 11
0.528427
 21
-5.85023
  0
LINE
  8
0
 10
0.528427
 20
-5.85023
 11
1.53809
 21
-6.12079
  0
LINE
  8
0
 10
1.53809
 20
-6.12079
 11
2.58194
 21
-6.17554
  0
LINE
  8
0
 10
2.58194
 20
-6.17554
 11
3.61435
 21
-6.01204
  0
LINE
  8
0
 10
3.61435
 20
-6.01204
 11
4.59023
 21
-5.63747
  0
LINE
  8
0
 10
4.59023
 20
-5.63747
 11
5.46689
 21
-5.06819
  0
LINE
  8
0
 10
5.46689
 20
-5.06819
 11
6.20604
 21
-4.32909
  0
LINE
  8
0
 10
6.20604
 20
-4.32909
 11
6.77536
 21
-3.45244
  0
LINE
  8
0
 10
6.77536
 20
-3.45244
 11
7.14999
 21
-2.47659
  0
LINE
  8
0
 10
7.14999
 20
-2.47659
 11
7.31354
 21
-1.4442
  0
LINE
  8
0
 10
7.31354
 20
-1.4442
 11
7.25885
 21
-0.40033
  0
LINE
  8
0
 10
7.25885
 20
-0.40033
 11
6.98834
 21
0.609329
  0
LINE
  8
0
 10
6.98834
 20
0.609329
 11
6.51382
 21
1.5407
  0
LINE
  8
0
 10
6.51382
 20
1.5407
 11
5.85602
 21
2.35306
  0
LINE
  8
0
 10
5.85602
 20
2.35306
 11
5.0437
 21
3.01089
  0
LINE
  8
0
 10
5.0437
 20
3.01089
 11
1.79196
 21
4.66785
  0
LINE
  8
0
 10
1.79196
 20
4.66785
 11
0.782303
 21
4.93842
  0
LINE
  8
0
 10
0.782303
 20
4.93842
 11
-0.261536
 21
4.99315
  0
LINE
  8
0
 10
-0.261536
 20
4.99315
 11
-1.29396
 21
4.82965
  0
LINE
  8
0
 10
-1.29396
 20
4.82965
 11
-2.26982
 21
4.45509
  0
LINE
  8
0
 10
-2.26982
 20
4.45509
 11
-3.1465
 21
3.8858
  0
LINE
  8
0
 10
-3.1465
 20
3.8858
 11
-3.88564
 21
3.1467
  0
LINE
  8
0
 10
-3.88564
 20
3.1467
 11
-4.45497
 21
2.27007
  0
LINE
  8
0
 10
-4.45497
 20
2.27007
 11
-4.82959
 21
1.29422
  0
LINE
  8
0
 10
-4.82959
 20
1.29422
 11
-4.99313
 21
0.26181
  0
ENDSEC
  0
SECTION
  2
OBJECTS
  0
DICTIONARY
  0
ENDSEC
  0
EOF
