  0
SECTION
  2
BLOCKS
  0
ENDSEC
  0
SECTION
  2
ENTITIES
  0
LINE
  8
0
 10
-68.85
 20
-187.9
 11
-68.7407
 21
-188.94
  0
LINE
  8
0
 10
-68.7407
 20
-188.94
 11
-68.4177
 21
-189.934
  0
LINE
  8
0
 10
-68.4177
 20
-189.934
 11
-67.8951
 21
-190.839
  0
LINE
  8
0
 10
-67.8951
 20
-190.839
 11
-67.1957
 21
-191.616
  0
LINE
  8
0
 10
-67.1957
 20
-191.616
 11
-66.35
 21
-192.23
  0
LINE
  8
0
 10
-66.35
 20
-192.23
 11
-65.3951
 21
-192.655
  0
LINE
  8
0
 10
-65.3951
 20
-192.655
 11
-64.3726
 21
-192.873
  0
LINE
  8
0
 10
-64.3726
 20
-192.873
 11
-63.3274
 21
-192.873
  0
LINE
  8
0
 10
-63.3274
 20
-192.873
 11
-62.3049
 21
-192.655
  0
LINE
  8
0
 10
-62.3049
 20
-192.655
 11
-61.35
 21
-192.23
  0
LINE
  8
0
 10
-61.35
 20
-192.23
 11
-60.5043
 21
-191.616
  0
LINE
  8
0
 10
-60.5043
 20
-191.616
 11
-59.8049
 21
-190.839
  0
LINE
  8
0
 10
-59.8049
 20
-190.839
 11
-59.2823
 21
-189.934
  0
LINE
  8
0
 10
-59.2823
 20
-189.934
 11
4.56773
 21
-2.03368
  0
LINE
  8
0
 10
4.56773
 20
-2.03368
 11
4.89074
 21
-1.03956
  0
LINE
  8
0
 10
4.89074
 20
-1.03956
 11
5
 21
0
  0
LINE
  8
0
 10
5
 20
0
 11
4.89074
 21
1.03956
  0
LINE
  8
0
 10
4.89074
 20
1.03956
 11
4.56773
 21
2.03368
  0
LINE
  8
0
 10
4.56773
 20
2.03368
 11
4.04508
 21
2.93893
  0
LINE
  8
0
 10
4.04508
 20
2.93893
 11
3.34565
 21
3.71572
  0
LINE
  8
0
 10
3.34565
 20
3.71572
 11
2.5
 21
4.33013
  0
LINE
  8
0
 10
2.5
 20
4.33013
 11
1.54508
 21
4.75528
  0
LINE
  8
0
 10
1.54508
 20
4.75528
 11
0.522642
 21
4.97261
  0
LINE
  8
0
 10
0.522642
 20
4.97261
 11
-0.522642
 21
4.97261
  0
LINE
  8
0
 10
-0.522642
 20
4.97261
 11
-1.54508
 21
4.75528
  0
LINE
  8
0
 10
-1.54508
 20
4.75528
 11
-2.5
 21
4.33013
  0
LINE
  8
0
 10
-2.5
 20
4.33013
 11
-3.34565
 21
3.71572
  0
LINE
  8
0
 10
-3.34565
 20
3.71572
 11
-4.04508
 21
2.93893
  0
LINE
  8
0
 10
-4.04508
 20
2.93893
 11
-4.56773
 21
2.03368
  0
LINE
  8
0
 10
-4.56773
 20
2.03368
 11
-68.4177
 21
-185.866
  0
LINE
  8
0
 10
-68.4177
 20
-185.866
 11
-68.7407
 21
-186.86
  0
LINE
  8
0
 10
-68.7407
 20
-186.86
 11
-68.85
 21
-187.9
  0
ENDSEC
  0
SECTION
  2
OBJECTS
  0
DICTIONARY
  0
ENDSEC
  0
EOF
