  0
SECTION
  2
BLOCKS
  0
ENDSEC
  0
SECTION
  2
ENTITIES
  0
LINE
  8
0
 10
-9.17472
 20
7.09843
 11
-9.06546
 21
6.05887
  0
LINE
  8
0
 10
-9.06546
 20
6.05887
 11
-8.74245
 21
5.06474
  0
LINE
  8
0
 10
-8.74245
 20
5.06474
 11
-8.2198
 21
4.1595
  0
LINE
  8
0
 10
-8.2198
 20
4.1595
 11
-4.04508
 21
-2.93893
  0
LINE
  8
0
 10
-4.04508
 20
-2.93893
 11
-3.34565
 21
-3.71572
  0
LINE
  8
0
 10
-3.34565
 20
-3.71572
 11
-2.5
 21
-4.33013
  0
LINE
  8
0
 10
-2.5
 20
-4.33013
 11
-1.54508
 21
-4.75528
  0
LINE
  8
0
 10
-1.54508
 20
-4.75528
 11
-0.522642
 21
-4.97261
  0
LINE
  8
0
 10
-0.522642
 20
-4.97261
 11
0.522642
 21
-4.97261
  0
LINE
  8
0
 10
0.522642
 20
-4.97261
 11
1.54508
 21
-4.75528
  0
LINE
  8
0
 10
1.54508
 20
-4.75528
 11
2.5
 21
-4.33013
  0
LINE
  8
0
 10
2.5
 20
-4.33013
 11
3.34565
 21
-3.71572
  0
LINE
  8
0
 10
3.34565
 20
-3.71572
 11
4.04508
 21
-2.93893
  0
LINE
  8
0
 10
4.04508
 20
-2.93893
 11
4.56773
 21
-2.03368
  0
LINE
  8
0
 10
4.56773
 20
-2.03368
 11
4.89074
 21
-1.03956
  0
LINE
  8
0
 10
4.89074
 20
-1.03956
 11
5
 21
0
  0
LINE
  8
0
 10
5
 20
0
 11
4.89074
 21
1.03956
  0
LINE
  8
0
 10
4.89074
 20
1.03956
 11
4.56773
 21
2.03368
  0
LINE
  8
0
 10
4.56773
 20
2.03368
 11
4.04508
 21
2.93893
  0
LINE
  8
0
 10
4.04508
 20
2.93893
 11
-0.129633
 21
10.0374
  0
LINE
  8
0
 10
-0.129633
 20
10.0374
 11
-0.829065
 21
10.8142
  0
LINE
  8
0
 10
-0.829065
 20
10.8142
 11
-1.67472
 21
11.4286
  0
LINE
  8
0
 10
-1.67472
 20
11.4286
 11
-2.62963
 21
11.8537
  0
LINE
  8
0
 10
-2.62963
 20
11.8537
 11
-3.65208
 21
12.071
  0
LINE
  8
0
 10
-3.65208
 20
12.071
 11
-4.69736
 21
12.071
  0
LINE
  8
0
 10
-4.69736
 20
12.071
 11
-5.7198
 21
11.8537
  0
LINE
  8
0
 10
-5.7198
 20
11.8537
 11
-6.67472
 21
11.4286
  0
LINE
  8
0
 10
-6.67472
 20
11.4286
 11
-7.52037
 21
10.8142
  0
LINE
  8
0
 10
-7.52037
 20
10.8142
 11
-8.2198
 21
10.0374
  0
LINE
  8
0
 10
-8.2198
 20
10.0374
 11
-8.74245
 21
9.13211
  0
LINE
  8
0
 10
-8.74245
 20
9.13211
 11
-9.06546
 21
8.13798
  0
LINE
  8
0
 10
-9.06546
 20
8.13798
 11
-9.17472
 21
7.09843
  0
ENDSEC
  0
SECTION
  2
OBJECTS
  0
DICTIONARY
  0
ENDSEC
  0
EOF
