  0
SECTION
  2
BLOCKS
  0
ENDSEC
  0
SECTION
  2
ENTITIES
  0
LINE
  8
0
 10
-30.1252
 20
-98.8235
 11
-29.9494
 21
-99.8539
  0
LINE
  8
0
 10
-29.9494
 20
-99.8539
 11
-29.5631
 21
-100.825
  0
LINE
  8
0
 10
-29.5631
 20
-100.825
 11
-28.9834
 21
-101.695
  0
LINE
  8
0
 10
-28.9834
 20
-101.695
 11
-28.2355
 21
-102.425
  0
LINE
  8
0
 10
-28.2355
 20
-102.425
 11
-27.3521
 21
-102.984
  0
LINE
  8
0
 10
-27.3521
 20
-102.984
 11
-26.3718
 21
-103.347
  0
LINE
  8
0
 10
-26.3718
 20
-103.347
 11
-25.3375
 21
-103.498
  0
LINE
  8
0
 10
-25.3375
 20
-103.498
 11
-24.2944
 21
-103.431
  0
LINE
  8
0
 10
-24.2944
 20
-103.431
 11
-23.288
 21
-103.148
  0
LINE
  8
0
 10
-23.288
 20
-103.148
 11
-22.3624
 21
-102.663
  0
LINE
  8
0
 10
-22.3624
 20
-102.663
 11
-21.558
 21
-101.995
  0
LINE
  8
0
 10
-21.558
 20
-101.995
 11
-20.9099
 21
-101.175
  0
LINE
  8
0
 10
-20.9099
 20
-101.175
 11
-20.4466
 21
-100.238
  0
LINE
  8
0
 10
-20.4466
 20
-100.238
 11
-20.1881
 21
-99.2252
  0
LINE
  8
0
 10
-20.1881
 20
-99.2252
 11
4.94743
 21
-0.723083
  0
LINE
  8
0
 10
4.94743
 20
-0.723083
 11
4.98965
 21
0.321335
  0
LINE
  8
0
 10
4.98965
 20
0.321335
 11
4.81381
 21
1.35173
  0
LINE
  8
0
 10
4.81381
 20
1.35173
 11
4.42757
 21
2.32303
  0
LINE
  8
0
 10
4.42757
 20
2.32303
 11
3.84784
 21
3.19281
  0
LINE
  8
0
 10
3.84784
 20
3.19281
 11
3.09991
 21
3.92307
  0
LINE
  8
0
 10
3.09991
 20
3.92307
 11
2.21654
 21
4.48184
  0
LINE
  8
0
 10
2.21654
 20
4.48184
 11
1.23627
 21
4.84474
  0
LINE
  8
0
 10
1.23627
 20
4.84474
 11
0.201965
 21
4.99591
  0
LINE
  8
0
 10
0.201965
 20
4.99591
 11
-0.841141
 21
4.92873
  0
LINE
  8
0
 10
-0.841141
 20
4.92873
 11
-1.8475
 21
4.64613
  0
LINE
  8
0
 10
-1.8475
 20
4.64613
 11
-2.77312
 21
4.16049
  0
LINE
  8
0
 10
-2.77312
 20
4.16049
 11
-3.57755
 21
3.49301
  0
LINE
  8
0
 10
-3.57755
 20
3.49301
 11
-4.2256
 21
2.67287
  0
LINE
  8
0
 10
-4.2256
 20
2.67287
 11
-4.68898
 21
1.7359
  0
LINE
  8
0
 10
-4.68898
 20
1.7359
 11
-4.94743
 21
0.723083
  0
LINE
  8
0
 10
-4.94743
 20
0.723083
 11
-30.083
 21
-97.7791
  0
LINE
  8
0
 10
-30.083
 20
-97.7791
 11
-30.1252
 21
-98.8235
  0
ENDSEC
  0
SECTION
  2
OBJECTS
  0
DICTIONARY
  0
ENDSEC
  0
EOF
