  0
SECTION
  2
BLOCKS
  0
ENDSEC
  0
SECTION
  2
ENTITIES
  0
LINE
  8
0
 10
-4.97409
 20
0.508255
 11
-4.97107
 21
-0.537018
  0
LINE
  8
0
 10
-4.97107
 20
-0.537018
 11
-4.75079
 21
-1.55882
  0
LINE
  8
0
 10
-4.75079
 20
-1.55882
 11
-4.32288
 21
-2.5125
  0
LINE
  8
0
 10
-4.32288
 20
-2.5125
 11
-3.70602
 21
-3.35638
  0
LINE
  8
0
 10
-3.70602
 20
-3.35638
 11
-2.9272
 21
-4.05356
  0
LINE
  8
0
 10
-2.9272
 20
-4.05356
 11
-2.02046
 21
-4.57359
  0
LINE
  8
0
 10
-2.02046
 20
-4.57359
 11
-1.02539
 21
-4.89371
  0
LINE
  8
0
 10
-1.02539
 20
-4.89371
 11
0.0144501
 21
-4.99997
  0
LINE
  8
0
 10
0.0144501
 20
-4.99997
 11
1.0537
 21
-4.88771
  0
LINE
  8
0
 10
1.0537
 20
-4.88771
 11
241.907
 21
21.1315
  0
LINE
  8
0
 10
241.907
 20
21.1315
 11
242.946
 21
21.2438
  0
LINE
  8
0
 10
242.946
 20
21.2438
 11
243.939
 21
21.5697
  0
LINE
  8
0
 10
243.939
 20
21.5697
 11
244.843
 21
22.095
  0
LINE
  8
0
 10
244.843
 20
22.095
 11
245.618
 21
22.7966
  0
LINE
  8
0
 10
245.618
 20
22.7966
 11
246.23
 21
23.6441
  0
LINE
  8
0
 10
246.23
 20
23.6441
 11
246.652
 21
24.6002
  0
LINE
  8
0
 10
246.652
 20
24.6002
 11
246.867
 21
25.6233
  0
LINE
  8
0
 10
246.867
 20
25.6233
 11
246.863
 21
26.6685
  0
LINE
  8
0
 10
246.863
 20
26.6685
 11
246.643
 21
27.6904
  0
LINE
  8
0
 10
246.643
 20
27.6904
 11
246.215
 21
28.644
  0
LINE
  8
0
 10
246.215
 20
28.644
 11
245.598
 21
29.4879
  0
LINE
  8
0
 10
245.598
 20
29.4879
 11
244.82
 21
30.1851
  0
LINE
  8
0
 10
244.82
 20
30.1851
 11
243.913
 21
30.7051
  0
LINE
  8
0
 10
243.913
 20
30.7051
 11
242.918
 21
31.0253
  0
LINE
  8
0
 10
242.918
 20
31.0253
 11
241.878
 21
31.1315
  0
LINE
  8
0
 10
241.878
 20
31.1315
 11
79.9855
 21
35
  0
LINE
  8
0
 10
79.9855
 20
35
 11
78.9463
 21
34.8877
  0
LINE
  8
0
 10
78.9463
 20
34.8877
 11
77.9531
 21
34.5618
  0
LINE
  8
0
 10
77.9531
 20
34.5618
 11
-2.04688
 21
4.56181
  0
LINE
  8
0
 10
-2.04688
 20
4.56181
 11
-2.95061
 21
4.03656
  0
LINE
  8
0
 10
-2.95061
 20
4.03656
 11
-3.72537
 21
3.33488
  0
LINE
  8
0
 10
-3.72537
 20
3.33488
 11
-4.33733
 21
2.48746
  0
LINE
  8
0
 10
-4.33733
 20
2.48746
 11
-4.75972
 21
1.53131
  0
LINE
  8
0
 10
-4.75972
 20
1.53131
 11
-4.97409
 21
0.508255
  0
ENDSEC
  0
SECTION
  2
OBJECTS
  0
DICTIONARY
  0
ENDSEC
  0
EOF
