  0
SECTION
  2
BLOCKS
  0
ENDSEC
  0
SECTION
  2
ENTITIES
  0
LINE
  8
0
 10
-31.4998
 20
135.254
 11
-31.3811
 21
134.216
  0
LINE
  8
0
 10
-31.3811
 20
134.216
 11
-4.88106
 21
-1.08408
  0
LINE
  8
0
 10
-4.88106
 20
-1.08408
 11
-4.549
 21
-2.07523
  0
LINE
  8
0
 10
-4.549
 20
-2.07523
 11
-4.01813
 21
-2.97566
  0
LINE
  8
0
 10
-4.01813
 20
-2.97566
 11
-3.31163
 21
-3.74606
  0
LINE
  8
0
 10
-3.31163
 20
-3.74606
 11
-2.46042
 21
-4.35274
  0
LINE
  8
0
 10
-2.46042
 20
-4.35274
 11
-1.50168
 21
-4.76917
  0
LINE
  8
0
 10
-1.50168
 20
-4.76917
 11
-0.47728
 21
-4.97716
  0
LINE
  8
0
 10
-0.47728
 20
-4.97716
 11
0.567932
 21
-4.96762
  0
LINE
  8
0
 10
0.567932
 20
-4.96762
 11
1.58836
 21
-4.741
  0
LINE
  8
0
 10
1.58836
 20
-4.741
 11
2.53935
 21
-4.30714
  0
LINE
  8
0
 10
2.53935
 20
-4.30714
 11
3.37938
 21
-3.68506
  0
LINE
  8
0
 10
3.37938
 20
-3.68506
 11
4.0717
 21
-2.90193
  0
LINE
  8
0
 10
4.0717
 20
-2.90193
 11
75.852
 21
78.2945
  0
LINE
  8
0
 10
75.852
 20
78.2945
 11
76.3663
 21
79.2044
  0
LINE
  8
0
 10
76.3663
 20
79.2044
 11
76.6803
 21
80.2015
  0
LINE
  8
0
 10
76.6803
 20
80.2015
 11
76.78
 21
81.242
  0
LINE
  8
0
 10
76.78
 20
81.242
 11
76.6613
 21
82.2805
  0
LINE
  8
0
 10
76.6613
 20
82.2805
 11
76.3293
 21
83.2716
  0
LINE
  8
0
 10
76.3293
 20
83.2716
 11
75.7984
 21
84.1721
  0
LINE
  8
0
 10
75.7984
 20
84.1721
 11
75.0919
 21
84.9425
  0
LINE
  8
0
 10
75.0919
 20
84.9425
 11
74.2407
 21
85.5491
  0
LINE
  8
0
 10
74.2407
 20
85.5491
 11
-24.0396
 21
139.653
  0
LINE
  8
0
 10
-24.0396
 20
139.653
 11
-24.9983
 21
140.069
  0
LINE
  8
0
 10
-24.9983
 20
140.069
 11
-26.0227
 21
140.277
  0
LINE
  8
0
 10
-26.0227
 20
140.277
 11
-27.0679
 21
140.268
  0
LINE
  8
0
 10
-27.0679
 20
140.268
 11
-28.0884
 21
140.041
  0
LINE
  8
0
 10
-28.0884
 20
140.041
 11
-29.0394
 21
139.607
  0
LINE
  8
0
 10
-29.0394
 20
139.607
 11
-29.8794
 21
138.985
  0
LINE
  8
0
 10
-29.8794
 20
138.985
 11
-30.5717
 21
138.202
  0
LINE
  8
0
 10
-30.5717
 20
138.202
 11
-31.0861
 21
137.292
  0
LINE
  8
0
 10
-31.0861
 20
137.292
 11
-31.4
 21
136.295
  0
LINE
  8
0
 10
-31.4
 20
136.295
 11
-31.4998
 21
135.254
  0
ENDSEC
  0
SECTION
  2
OBJECTS
  0
DICTIONARY
  0
ENDSEC
  0
EOF
