  0
SECTION
  2
BLOCKS
  0
ENDSEC
  0
SECTION
  2
ENTITIES
  0
LINE
  8
0
 10
-4.98747
 20
0.353577
 11
-4.952
 21
-0.691086
  0
LINE
  8
0
 10
-4.952
 20
-0.691086
 11
-4.70009
 21
-1.70557
  0
LINE
  8
0
 10
-4.70009
 20
-1.70557
 11
-4.24278
 21
-2.64551
  0
LINE
  8
0
 10
-4.24278
 20
-2.64551
 11
-3.60004
 21
-3.46982
  0
LINE
  8
0
 10
-3.60004
 20
-3.46982
 11
-2.79994
 21
-4.14249
  0
LINE
  8
0
 10
-2.79994
 20
-4.14249
 11
-1.87749
 21
-4.63411
  0
LINE
  8
0
 10
-1.87749
 20
-4.63411
 11
-0.872971
 21
-4.9232
  0
LINE
  8
0
 10
-0.872971
 20
-4.9232
 11
0.169678
 21
-4.99712
  0
LINE
  8
0
 10
0.169678
 20
-4.99712
 11
1.20494
 21
-4.85263
  0
LINE
  8
0
 10
1.20494
 20
-4.85263
 11
2.18752
 21
-4.49606
  0
LINE
  8
0
 10
2.18752
 20
-4.49606
 11
3.07451
 21
-3.94301
  0
LINE
  8
0
 10
3.07451
 20
-3.94301
 11
3.82712
 21
-3.21761
  0
LINE
  8
0
 10
3.82712
 20
-3.21761
 11
4.41248
 21
-2.35159
  0
LINE
  8
0
 10
4.41248
 20
-2.35159
 11
4.80498
 21
-1.38281
  0
LINE
  8
0
 10
4.80498
 20
-1.38281
 11
8.3093
 21
7.26671
  0
LINE
  8
0
 10
8.3093
 20
7.26671
 11
8.7018
 21
8.2355
  0
LINE
  8
0
 10
8.7018
 20
8.2355
 11
8.88429
 21
9.26472
  0
LINE
  8
0
 10
8.88429
 20
9.26472
 11
8.84883
 21
10.3094
  0
LINE
  8
0
 10
8.84883
 20
10.3094
 11
8.59692
 21
11.3239
  0
LINE
  8
0
 10
8.59692
 20
11.3239
 11
8.13962
 21
12.2638
  0
LINE
  8
0
 10
8.13962
 20
12.2638
 11
7.49686
 21
13.0882
  0
LINE
  8
0
 10
7.49686
 20
13.0882
 11
6.69678
 21
13.7608
  0
LINE
  8
0
 10
6.69678
 20
13.7608
 11
5.77431
 21
14.2524
  0
LINE
  8
0
 10
5.77431
 20
14.2524
 11
4.76981
 21
14.5415
  0
LINE
  8
0
 10
4.76981
 20
14.5415
 11
3.72714
 21
14.6154
  0
LINE
  8
0
 10
3.72714
 20
14.6154
 11
2.69188
 21
14.4709
  0
LINE
  8
0
 10
2.69188
 20
14.4709
 11
1.70929
 21
14.1144
  0
LINE
  8
0
 10
1.70929
 20
14.1144
 11
0.822311
 21
13.5613
  0
LINE
  8
0
 10
0.822311
 20
13.5613
 11
0.0696869
 21
12.8359
  0
LINE
  8
0
 10
0.0696869
 20
12.8359
 11
-0.51564
 21
11.9699
  0
LINE
  8
0
 10
-0.51564
 20
11.9699
 11
-4.80498
 21
1.38281
  0
LINE
  8
0
 10
-4.80498
 20
1.38281
 11
-4.98747
 21
0.353577
  0
ENDSEC
  0
SECTION
  2
OBJECTS
  0
DICTIONARY
  0
ENDSEC
  0
EOF
