  0
SECTION
  2
BLOCKS
  0
ENDSEC
  0
SECTION
  2
ENTITIES
  0
LINE
  8
0
 10
-4.99731
 20
-0.163422
 11
-4.85414
 21
-1.19885
  0
LINE
  8
0
 10
-4.85414
 20
-1.19885
 11
22.4241
 21
-198.462
  0
LINE
  8
0
 10
22.4241
 20
-198.462
 11
22.5672
 21
-199.498
  0
LINE
  8
0
 10
22.5672
 20
-199.498
 11
22.9226
 21
-200.481
  0
LINE
  8
0
 10
22.9226
 20
-200.481
 11
23.4745
 21
-201.368
  0
LINE
  8
0
 10
23.4745
 20
-201.368
 11
24.199
 21
-202.122
  0
LINE
  8
0
 10
24.199
 20
-202.122
 11
25.0643
 21
-202.708
  0
LINE
  8
0
 10
25.0643
 20
-202.708
 11
26.0326
 21
-203.102
  0
LINE
  8
0
 10
26.0326
 20
-203.102
 11
27.0616
 21
-203.286
  0
LINE
  8
0
 10
27.0616
 20
-203.286
 11
28.1063
 21
-203.252
  0
LINE
  8
0
 10
28.1063
 20
-203.252
 11
29.1211
 21
-203.001
  0
LINE
  8
0
 10
29.1211
 20
-203.001
 11
30.0616
 21
-202.545
  0
LINE
  8
0
 10
30.0616
 20
-202.545
 11
30.8867
 21
-201.903
  0
LINE
  8
0
 10
30.8867
 20
-201.903
 11
31.5604
 21
-201.104
  0
LINE
  8
0
 10
31.5604
 20
-201.104
 11
32.0532
 21
-200.182
  0
LINE
  8
0
 10
32.0532
 20
-200.182
 11
32.3435
 21
-199.178
  0
LINE
  8
0
 10
32.3435
 20
-199.178
 11
32.4187
 21
-198.135
  0
LINE
  8
0
 10
32.4187
 20
-198.135
 11
32.2755
 21
-197.1
  0
LINE
  8
0
 10
32.2755
 20
-197.1
 11
4.85414
 21
1.19885
  0
LINE
  8
0
 10
4.85414
 20
1.19885
 11
4.49881
 21
2.18188
  0
LINE
  8
0
 10
4.49881
 20
2.18188
 11
3.94685
 21
3.06956
  0
LINE
  8
0
 10
3.94685
 20
3.06956
 11
3.2224
 21
3.82309
  0
LINE
  8
0
 10
3.2224
 20
3.82309
 11
2.35713
 21
4.40952
  0
LINE
  8
0
 10
2.35713
 20
4.40952
 11
1.38881
 21
4.80324
  0
LINE
  8
0
 10
1.38881
 20
4.80324
 11
0.359818
 21
4.98703
  0
LINE
  8
0
 10
0.359818
 20
4.98703
 11
-0.684891
 21
4.95287
  0
LINE
  8
0
 10
-0.684891
 20
4.95287
 11
-1.69969
 21
4.70224
  0
LINE
  8
0
 10
-1.69969
 20
4.70224
 11
-2.64018
 21
4.24609
  0
LINE
  8
0
 10
-2.64018
 20
4.24609
 11
-3.46532
 21
3.60437
  0
LINE
  8
0
 10
-3.46532
 20
3.60437
 11
-4.13898
 21
2.80513
  0
LINE
  8
0
 10
-4.13898
 20
2.80513
 11
-4.63176
 21
1.88329
  0
LINE
  8
0
 10
-4.63176
 20
1.88329
 11
-4.92209
 21
0.879135
  0
LINE
  8
0
 10
-4.92209
 20
0.879135
 11
-4.99731
 21
-0.163422
  0
ENDSEC
  0
SECTION
  2
OBJECTS
  0
DICTIONARY
  0
ENDSEC
  0
EOF
