  0
SECTION
  2
BLOCKS
  0
ENDSEC
  0
SECTION
  2
ENTITIES
  0
LINE
  8
0
 10
-4.99995
 20
0.0185547
 11
-4.89456
 21
-1.02139
  0
LINE
  8
0
 10
-4.89456
 20
-1.02139
 11
-4.57523
 21
-2.01671
  0
LINE
  8
0
 10
-4.57523
 20
-2.01671
 11
-4.05595
 21
-2.92389
  0
LINE
  8
0
 10
-4.05595
 20
-2.92389
 11
-3.35942
 21
-3.70328
  0
LINE
  8
0
 10
-3.35942
 20
-3.70328
 11
354.621
 21
-404.261
  0
LINE
  8
0
 10
354.621
 20
-404.261
 11
355.318
 21
-405.041
  0
LINE
  8
0
 10
355.318
 20
-405.041
 11
356.161
 21
-405.658
  0
LINE
  8
0
 10
356.161
 20
-405.658
 11
357.114
 21
-406.087
  0
LINE
  8
0
 10
357.114
 20
-406.087
 11
358.136
 21
-406.308
  0
LINE
  8
0
 10
358.136
 20
-406.308
 11
359.181
 21
-406.312
  0
LINE
  8
0
 10
359.181
 20
-406.312
 11
360.204
 21
-406.099
  0
LINE
  8
0
 10
360.204
 20
-406.099
 11
361.161
 21
-405.677
  0
LINE
  8
0
 10
361.161
 20
-405.677
 11
362.009
 21
-405.066
  0
LINE
  8
0
 10
362.009
 20
-405.066
 11
362.711
 21
-404.292
  0
LINE
  8
0
 10
362.711
 20
-404.292
 11
363.237
 21
-403.388
  0
LINE
  8
0
 10
363.237
 20
-403.388
 11
363.564
 21
-402.395
  0
LINE
  8
0
 10
363.564
 20
-402.395
 11
363.677
 21
-401.356
  0
LINE
  8
0
 10
363.677
 20
-401.356
 11
363.572
 21
-400.316
  0
LINE
  8
0
 10
363.572
 20
-400.316
 11
363.252
 21
-399.321
  0
LINE
  8
0
 10
363.252
 20
-399.321
 11
362.733
 21
-398.414
  0
LINE
  8
0
 10
362.733
 20
-398.414
 11
3.35942
 21
3.70328
  0
LINE
  8
0
 10
3.35942
 20
3.70328
 11
2.51605
 21
4.3208
  0
LINE
  8
0
 10
2.51605
 20
4.3208
 11
1.56273
 21
4.74951
  0
LINE
  8
0
 10
1.56273
 20
4.74951
 11
0.541092
 21
4.97063
  0
LINE
  8
0
 10
0.541092
 20
4.97063
 11
-0.504166
 21
4.9745
  0
LINE
  8
0
 10
-0.504166
 20
4.9745
 11
-1.52742
 21
4.76097
  0
LINE
  8
0
 10
-1.52742
 20
4.76097
 11
-2.4839
 21
4.33937
  0
LINE
  8
0
 10
-2.4839
 20
4.33937
 11
-3.33183
 21
3.72812
  0
LINE
  8
0
 10
-3.33183
 20
3.72812
 11
-4.03413
 21
2.95392
  0
LINE
  8
0
 10
-4.03413
 20
2.95392
 11
-4.56013
 21
2.05063
  0
LINE
  8
0
 10
-4.56013
 20
2.05063
 11
-4.88684
 21
1.05769
  0
LINE
  8
0
 10
-4.88684
 20
1.05769
 11
-4.99995
 21
0.0185547
  0
ENDSEC
  0
SECTION
  2
OBJECTS
  0
DICTIONARY
  0
ENDSEC
  0
EOF
