  0
SECTION
  2
BLOCKS
  0
ENDSEC
  0
SECTION
  2
ENTITIES
  0
LINE
  8
0
 10
-30.0475
 20
-76.0887
 11
-29.9422
 21
-77.1287
  0
LINE
  8
0
 10
-29.9422
 20
-77.1287
 11
-29.6229
 21
-78.124
  0
LINE
  8
0
 10
-29.6229
 20
-78.124
 11
-29.1037
 21
-79.0312
  0
LINE
  8
0
 10
-29.1037
 20
-79.0312
 11
-28.4072
 21
-79.8107
  0
LINE
  8
0
 10
-28.4072
 20
-79.8107
 11
-27.5639
 21
-80.4283
  0
LINE
  8
0
 10
-27.5639
 20
-80.4283
 11
-26.6106
 21
-80.857
  0
LINE
  8
0
 10
-26.6106
 20
-80.857
 11
-25.589
 21
-81.0782
  0
LINE
  8
0
 10
-25.589
 20
-81.0782
 11
-24.5437
 21
-81.0822
  0
LINE
  8
0
 10
-24.5437
 20
-81.0822
 11
-23.5205
 21
-80.8687
  0
LINE
  8
0
 10
-23.5205
 20
-80.8687
 11
-22.5639
 21
-80.4472
  0
LINE
  8
0
 10
-22.5639
 20
-80.4472
 11
-21.716
 21
-79.836
  0
LINE
  8
0
 10
-21.716
 20
-79.836
 11
-21.0136
 21
-79.0618
  0
LINE
  8
0
 10
-21.0136
 20
-79.0618
 11
-20.4875
 21
-78.1586
  0
LINE
  8
0
 10
-20.4875
 20
-78.1586
 11
-20.1608
 21
-77.1657
  0
LINE
  8
0
 10
-20.1608
 20
-77.1657
 11
4.88676
 21
-1.05804
  0
LINE
  8
0
 10
4.88676
 20
-1.05804
 11
4.99995
 21
-0.0189056
  0
LINE
  8
0
 10
4.99995
 20
-0.0189056
 11
4.89464
 21
1.02104
  0
LINE
  8
0
 10
4.89464
 20
1.02104
 11
4.57538
 21
2.01639
  0
LINE
  8
0
 10
4.57538
 20
2.01639
 11
4.05617
 21
2.92358
  0
LINE
  8
0
 10
4.05617
 20
2.92358
 11
3.35968
 21
3.70303
  0
LINE
  8
0
 10
3.35968
 20
3.70303
 11
2.51636
 21
4.32063
  0
LINE
  8
0
 10
2.51636
 20
4.32063
 11
1.56305
 21
4.74939
  0
LINE
  8
0
 10
1.56305
 20
4.74939
 11
0.541443
 21
4.9706
  0
LINE
  8
0
 10
0.541443
 20
4.9706
 11
-0.503815
 21
4.97455
  0
LINE
  8
0
 10
-0.503815
 20
4.97455
 11
-1.52708
 21
4.76108
  0
LINE
  8
0
 10
-1.52708
 20
4.76108
 11
-2.4836
 21
4.33954
  0
LINE
  8
0
 10
-2.4836
 20
4.33954
 11
-3.33157
 21
3.72835
  0
LINE
  8
0
 10
-3.33157
 20
3.72835
 11
-4.03394
 21
2.95419
  0
LINE
  8
0
 10
-4.03394
 20
2.95419
 11
-4.56
 21
2.05093
  0
LINE
  8
0
 10
-4.56
 20
2.05093
 11
-29.6076
 21
-74.0567
  0
LINE
  8
0
 10
-29.6076
 20
-74.0567
 11
-29.9343
 21
-75.0496
  0
LINE
  8
0
 10
-29.9343
 20
-75.0496
 11
-30.0475
 21
-76.0887
  0
ENDSEC
  0
SECTION
  2
OBJECTS
  0
DICTIONARY
  0
ENDSEC
  0
EOF
