  0
SECTION
  2
BLOCKS
  0
ENDSEC
  0
SECTION
  2
ENTITIES
  0
LINE
  8
0
 10
-4.99042
 20
0.309219
 11
-4.94566
 21
-0.735092
  0
LINE
  8
0
 10
-4.94566
 20
-0.735092
 11
-4.68475
 21
-1.74728
  0
LINE
  8
0
 10
-4.68475
 20
-1.74728
 11
-4.21909
 21
-2.68312
  0
LINE
  8
0
 10
-4.21909
 20
-2.68312
 11
-3.56905
 21
-3.50168
  0
LINE
  8
0
 10
-3.56905
 20
-3.50168
 11
-2.763
 21
-4.16722
  0
LINE
  8
0
 10
-2.763
 20
-4.16722
 11
-1.83621
 21
-4.65062
  0
LINE
  8
0
 10
-1.83621
 20
-4.65062
 11
-0.829163
 21
-4.93076
  0
LINE
  8
0
 10
-0.829163
 20
-4.93076
 11
0.214096
 21
-4.99541
  0
LINE
  8
0
 10
0.214096
 20
-4.99541
 11
1.24802
 21
-4.84174
  0
LINE
  8
0
 10
1.24802
 20
-4.84174
 11
2.22742
 21
-4.47644
  0
LINE
  8
0
 10
2.22742
 20
-4.47644
 11
3.10944
 21
-3.91551
  0
LINE
  8
0
 10
3.10944
 20
-3.91551
 11
3.85558
 21
-3.18347
  0
LINE
  8
0
 10
3.85558
 20
-3.18347
 11
4.4332
 21
-2.31227
  0
LINE
  8
0
 10
4.4332
 20
-2.31227
 11
4.81708
 21
-1.34003
  0
LINE
  8
0
 10
4.81708
 20
-1.34003
 11
27.3999
 21
132.951
  0
LINE
  8
0
 10
27.3999
 20
132.951
 11
27.3552
 21
133.995
  0
LINE
  8
0
 10
27.3552
 20
133.995
 11
27.0943
 21
135.007
  0
LINE
  8
0
 10
27.0943
 20
135.007
 11
26.6286
 21
135.943
  0
LINE
  8
0
 10
26.6286
 20
135.943
 11
25.9786
 21
136.762
  0
LINE
  8
0
 10
25.9786
 20
136.762
 11
25.1725
 21
137.427
  0
LINE
  8
0
 10
25.1725
 20
137.427
 11
24.2457
 21
137.911
  0
LINE
  8
0
 10
24.2457
 20
137.911
 11
23.2387
 21
138.191
  0
LINE
  8
0
 10
23.2387
 20
138.191
 11
22.1954
 21
138.255
  0
LINE
  8
0
 10
22.1954
 20
138.255
 11
21.1615
 21
138.102
  0
LINE
  8
0
 10
21.1615
 20
138.102
 11
20.1821
 21
137.736
  0
LINE
  8
0
 10
20.1821
 20
137.736
 11
19.3001
 21
137.176
  0
LINE
  8
0
 10
19.3001
 20
137.176
 11
18.5539
 21
136.443
  0
LINE
  8
0
 10
18.5539
 20
136.443
 11
17.9763
 21
135.572
  0
LINE
  8
0
 10
17.9763
 20
135.572
 11
17.5924
 21
134.6
  0
LINE
  8
0
 10
17.5924
 20
134.6
 11
-4.81708
 21
1.34003
  0
LINE
  8
0
 10
-4.81708
 20
1.34003
 11
-4.99042
 21
0.309219
  0
ENDSEC
  0
SECTION
  2
OBJECTS
  0
DICTIONARY
  0
ENDSEC
  0
EOF
