  0
SECTION
  2
BLOCKS
  0
ENDSEC
  0
SECTION
  2
ENTITIES
  0
LINE
  8
0
 10
-66.6062
 20
-26.745
 11
-66.497
 21
-27.7846
  0
LINE
  8
0
 10
-66.497
 20
-27.7846
 11
-66.1739
 21
-28.7787
  0
LINE
  8
0
 10
-66.1739
 20
-28.7787
 11
-65.6513
 21
-29.6839
  0
LINE
  8
0
 10
-65.6513
 20
-29.6839
 11
-64.9519
 21
-30.4607
  0
LINE
  8
0
 10
-64.9519
 20
-30.4607
 11
-64.1062
 21
-31.0751
  0
LINE
  8
0
 10
-64.1062
 20
-31.0751
 11
-63.1513
 21
-31.5003
  0
LINE
  8
0
 10
-63.1513
 20
-31.5003
 11
-62.1289
 21
-31.7176
  0
LINE
  8
0
 10
-62.1289
 20
-31.7176
 11
-61.0836
 21
-31.7176
  0
LINE
  8
0
 10
-61.0836
 20
-31.7176
 11
-60.0611
 21
-31.5003
  0
LINE
  8
0
 10
-60.0611
 20
-31.5003
 11
1.54508
 21
-4.75528
  0
LINE
  8
0
 10
1.54508
 20
-4.75528
 11
2.5
 21
-4.33013
  0
LINE
  8
0
 10
2.5
 20
-4.33013
 11
3.34565
 21
-3.71572
  0
LINE
  8
0
 10
3.34565
 20
-3.71572
 11
4.04508
 21
-2.93893
  0
LINE
  8
0
 10
4.04508
 20
-2.93893
 11
4.56773
 21
-2.03368
  0
LINE
  8
0
 10
4.56773
 20
-2.03368
 11
4.89074
 21
-1.03956
  0
LINE
  8
0
 10
4.89074
 20
-1.03956
 11
5
 21
0
  0
LINE
  8
0
 10
5
 20
0
 11
4.89074
 21
1.03956
  0
LINE
  8
0
 10
4.89074
 20
1.03956
 11
4.56773
 21
2.03368
  0
LINE
  8
0
 10
4.56773
 20
2.03368
 11
4.04508
 21
2.93893
  0
LINE
  8
0
 10
4.04508
 20
2.93893
 11
3.34565
 21
3.71572
  0
LINE
  8
0
 10
3.34565
 20
3.71572
 11
2.5
 21
4.33013
  0
LINE
  8
0
 10
2.5
 20
4.33013
 11
1.54508
 21
4.75528
  0
LINE
  8
0
 10
1.54508
 20
4.75528
 11
0.522642
 21
4.97261
  0
LINE
  8
0
 10
0.522642
 20
4.97261
 11
-0.522642
 21
4.97261
  0
LINE
  8
0
 10
-0.522642
 20
4.97261
 11
-1.54508
 21
4.75528
  0
LINE
  8
0
 10
-1.54508
 20
4.75528
 11
-63.1513
 21
-21.9897
  0
LINE
  8
0
 10
-63.1513
 20
-21.9897
 11
-64.1062
 21
-22.4149
  0
LINE
  8
0
 10
-64.1062
 20
-22.4149
 11
-64.9519
 21
-23.0293
  0
LINE
  8
0
 10
-64.9519
 20
-23.0293
 11
-65.6513
 21
-23.8061
  0
LINE
  8
0
 10
-65.6513
 20
-23.8061
 11
-66.1739
 21
-24.7113
  0
LINE
  8
0
 10
-66.1739
 20
-24.7113
 11
-66.497
 21
-25.7055
  0
LINE
  8
0
 10
-66.497
 20
-25.7055
 11
-66.6062
 21
-26.745
  0
ENDSEC
  0
SECTION
  2
OBJECTS
  0
DICTIONARY
  0
ENDSEC
  0
EOF
