  0
SECTION
  2
BLOCKS
  0
ENDSEC
  0
SECTION
  2
ENTITIES
  0
LINE
  8
0
 10
-31.5
 20
135.3
 11
-31.3907
 21
134.26
  0
LINE
  8
0
 10
-31.3907
 20
134.26
 11
-4.89074
 21
-1.03956
  0
LINE
  8
0
 10
-4.89074
 20
-1.03956
 11
-4.56773
 21
-2.03368
  0
LINE
  8
0
 10
-4.56773
 20
-2.03368
 11
-4.04508
 21
-2.93893
  0
LINE
  8
0
 10
-4.04508
 20
-2.93893
 11
-3.34565
 21
-3.71572
  0
LINE
  8
0
 10
-3.34565
 20
-3.71572
 11
-2.5
 21
-4.33013
  0
LINE
  8
0
 10
-2.5
 20
-4.33013
 11
-1.54508
 21
-4.75528
  0
LINE
  8
0
 10
-1.54508
 20
-4.75528
 11
-0.522642
 21
-4.97261
  0
LINE
  8
0
 10
-0.522642
 20
-4.97261
 11
0.522642
 21
-4.97261
  0
LINE
  8
0
 10
0.522642
 20
-4.97261
 11
1.54508
 21
-4.75528
  0
LINE
  8
0
 10
1.54508
 20
-4.75528
 11
2.5
 21
-4.33013
  0
LINE
  8
0
 10
2.5
 20
-4.33013
 11
3.34565
 21
-3.71572
  0
LINE
  8
0
 10
3.34565
 20
-3.71572
 11
4.04508
 21
-2.93893
  0
LINE
  8
0
 10
4.04508
 20
-2.93893
 11
58.8466
 21
75.0317
  0
LINE
  8
0
 10
58.8466
 20
75.0317
 11
59.3692
 21
75.9369
  0
LINE
  8
0
 10
59.3692
 20
75.9369
 11
59.6922
 21
76.9311
  0
LINE
  8
0
 10
59.6922
 20
76.9311
 11
59.8015
 21
77.9706
  0
LINE
  8
0
 10
59.8015
 20
77.9706
 11
59.6922
 21
79.0102
  0
LINE
  8
0
 10
59.6922
 20
79.0102
 11
59.3692
 21
80.0043
  0
LINE
  8
0
 10
59.3692
 20
80.0043
 11
58.8466
 21
80.9096
  0
LINE
  8
0
 10
58.8466
 20
80.9096
 11
58.1471
 21
81.6864
  0
LINE
  8
0
 10
58.1471
 20
81.6864
 11
57.3015
 21
82.3008
  0
LINE
  8
0
 10
57.3015
 20
82.3008
 11
-24
 21
139.63
  0
LINE
  8
0
 10
-24
 20
139.63
 11
-24.9549
 21
140.055
  0
LINE
  8
0
 10
-24.9549
 20
140.055
 11
-25.9774
 21
140.273
  0
LINE
  8
0
 10
-25.9774
 20
140.273
 11
-27.0226
 21
140.273
  0
LINE
  8
0
 10
-27.0226
 20
140.273
 11
-28.0451
 21
140.055
  0
LINE
  8
0
 10
-28.0451
 20
140.055
 11
-29
 21
139.63
  0
LINE
  8
0
 10
-29
 20
139.63
 11
-29.8457
 21
139.016
  0
LINE
  8
0
 10
-29.8457
 20
139.016
 11
-30.5451
 21
138.239
  0
LINE
  8
0
 10
-30.5451
 20
138.239
 11
-31.0677
 21
137.334
  0
LINE
  8
0
 10
-31.0677
 20
137.334
 11
-31.3907
 21
136.34
  0
LINE
  8
0
 10
-31.3907
 20
136.34
 11
-31.5
 21
135.3
  0
ENDSEC
  0
SECTION
  2
OBJECTS
  0
DICTIONARY
  0
ENDSEC
  0
EOF
