  0
SECTION
  2
BLOCKS
  0
ENDSEC
  0
SECTION
  2
ENTITIES
  0
LINE
  8
0
 10
-31.5
 20
135.3
 11
-31.3907
 21
134.26
  0
LINE
  8
0
 10
-31.3907
 20
134.26
 11
-4.89074
 21
-1.03956
  0
LINE
  8
0
 10
-4.89074
 20
-1.03956
 11
-4.56773
 21
-2.03368
  0
LINE
  8
0
 10
-4.56773
 20
-2.03368
 11
-4.04508
 21
-2.93893
  0
LINE
  8
0
 10
-4.04508
 20
-2.93893
 11
-3.34565
 21
-3.71572
  0
LINE
  8
0
 10
-3.34565
 20
-3.71572
 11
-2.5
 21
-4.33013
  0
LINE
  8
0
 10
-2.5
 20
-4.33013
 11
-1.54508
 21
-4.75528
  0
LINE
  8
0
 10
-1.54508
 20
-4.75528
 11
-0.522642
 21
-4.97261
  0
LINE
  8
0
 10
-0.522642
 20
-4.97261
 11
0.522642
 21
-4.97261
  0
LINE
  8
0
 10
0.522642
 20
-4.97261
 11
1.54508
 21
-4.75528
  0
LINE
  8
0
 10
1.54508
 20
-4.75528
 11
2.5
 21
-4.33013
  0
LINE
  8
0
 10
2.5
 20
-4.33013
 11
3.34565
 21
-3.71572
  0
LINE
  8
0
 10
3.34565
 20
-3.71572
 11
133.578
 21
137.853
  0
LINE
  8
0
 10
133.578
 20
137.853
 11
134.277
 21
138.63
  0
LINE
  8
0
 10
134.277
 20
138.63
 11
134.8
 21
139.536
  0
LINE
  8
0
 10
134.8
 20
139.536
 11
135.123
 21
140.53
  0
LINE
  8
0
 10
135.123
 20
140.53
 11
135.232
 21
141.569
  0
LINE
  8
0
 10
135.232
 20
141.569
 11
135.123
 21
142.609
  0
LINE
  8
0
 10
135.123
 20
142.609
 11
134.8
 21
143.603
  0
LINE
  8
0
 10
134.8
 20
143.603
 11
134.277
 21
144.508
  0
LINE
  8
0
 10
134.277
 20
144.508
 11
133.578
 21
145.285
  0
LINE
  8
0
 10
133.578
 20
145.285
 11
132.732
 21
145.899
  0
LINE
  8
0
 10
132.732
 20
145.899
 11
131.777
 21
146.324
  0
LINE
  8
0
 10
131.777
 20
146.324
 11
130.755
 21
146.542
  0
LINE
  8
0
 10
130.755
 20
146.542
 11
129.709
 21
146.542
  0
LINE
  8
0
 10
129.709
 20
146.542
 11
-27.0226
 21
140.273
  0
LINE
  8
0
 10
-27.0226
 20
140.273
 11
-28.0451
 21
140.055
  0
LINE
  8
0
 10
-28.0451
 20
140.055
 11
-29
 21
139.63
  0
LINE
  8
0
 10
-29
 20
139.63
 11
-29.8457
 21
139.016
  0
LINE
  8
0
 10
-29.8457
 20
139.016
 11
-30.5451
 21
138.239
  0
LINE
  8
0
 10
-30.5451
 20
138.239
 11
-31.0677
 21
137.334
  0
LINE
  8
0
 10
-31.0677
 20
137.334
 11
-31.3907
 21
136.34
  0
LINE
  8
0
 10
-31.3907
 20
136.34
 11
-31.5
 21
135.3
  0
ENDSEC
  0
SECTION
  2
OBJECTS
  0
DICTIONARY
  0
ENDSEC
  0
EOF
