  0
SECTION
  2
BLOCKS
  0
ENDSEC
  0
SECTION
  2
ENTITIES
  0
LINE
  8
0
 10
-9.17455
 20
7.05823
 11
-9.05693
 21
6.01958
  0
LINE
  8
0
 10
-9.05693
 20
6.01958
 11
-8.72594
 21
5.02808
  0
LINE
  8
0
 10
-8.72594
 20
5.02808
 11
-8.19604
 21
4.12708
  0
LINE
  8
0
 10
-8.19604
 20
4.12708
 11
-4.55122
 21
-2.07033
  0
LINE
  8
0
 10
-4.55122
 20
-2.07033
 11
-4.02132
 21
-2.97134
  0
LINE
  8
0
 10
-4.02132
 20
-2.97134
 11
-3.31567
 21
-3.74249
  0
LINE
  8
0
 10
-3.31567
 20
-3.74249
 11
-2.4651
 21
-4.35008
  0
LINE
  8
0
 10
-2.4651
 20
-4.35008
 11
-1.50681
 21
-4.76753
  0
LINE
  8
0
 10
-1.50681
 20
-4.76753
 11
-0.482651
 21
-4.97664
  0
LINE
  8
0
 10
-0.482651
 20
-4.97664
 11
0.562592
 21
-4.96825
  0
LINE
  8
0
 10
0.562592
 20
-4.96825
 11
1.58325
 21
-4.74271
  0
LINE
  8
0
 10
1.58325
 20
-4.74271
 11
2.53471
 21
-4.30988
  0
LINE
  8
0
 10
2.53471
 20
-4.30988
 11
3.37541
 21
-3.68871
  0
LINE
  8
0
 10
3.37541
 20
-3.68871
 11
4.06857
 21
-2.90631
  0
LINE
  8
0
 10
4.06857
 20
-2.90631
 11
4.58392
 21
-1.99689
  0
LINE
  8
0
 10
4.58392
 20
-1.99689
 11
4.89893
 21
-1.0002
  0
LINE
  8
0
 10
4.89893
 20
-1.0002
 11
4.99983
 21
0.0401917
  0
LINE
  8
0
 10
4.99983
 20
0.0401917
 11
4.88222
 21
1.07884
  0
LINE
  8
0
 10
4.88222
 20
1.07884
 11
4.55122
 21
2.07033
  0
LINE
  8
0
 10
4.55122
 20
2.07033
 11
-0.153381
 21
10.0698
  0
LINE
  8
0
 10
-0.153381
 20
10.0698
 11
-0.859039
 21
10.8409
  0
LINE
  8
0
 10
-0.859039
 20
10.8409
 11
-1.70959
 21
11.4485
  0
LINE
  8
0
 10
-1.70959
 20
11.4485
 11
-2.66791
 21
11.866
  0
LINE
  8
0
 10
-2.66791
 20
11.866
 11
-3.69205
 21
12.0751
  0
LINE
  8
0
 10
-3.69205
 20
12.0751
 11
-4.73732
 21
12.0667
  0
LINE
  8
0
 10
-4.73732
 20
12.0667
 11
-5.75797
 21
11.8411
  0
LINE
  8
0
 10
-5.75797
 20
11.8411
 11
-6.70944
 21
11.4083
  0
LINE
  8
0
 10
-6.70944
 20
11.4083
 11
-7.55013
 21
10.7871
  0
LINE
  8
0
 10
-7.55013
 20
10.7871
 11
-8.24329
 21
10.0047
  0
LINE
  8
0
 10
-8.24329
 20
10.0047
 11
-8.75864
 21
9.09531
  0
LINE
  8
0
 10
-8.75864
 20
9.09531
 11
-9.07364
 21
8.09863
  0
LINE
  8
0
 10
-9.07364
 20
8.09863
 11
-9.17455
 21
7.05823
  0
ENDSEC
  0
SECTION
  2
OBJECTS
  0
DICTIONARY
  0
ENDSEC
  0
EOF
