  0
SECTION
  2
BLOCKS
  0
ENDSEC
  0
SECTION
  2
ENTITIES
  0
LINE
  8
0
 10
-4.99994
 20
-0.0246429
 11
-4.88554
 21
-1.06366
  0
LINE
  8
0
 10
-4.88554
 20
-1.06366
 11
-4.55763
 21
-2.05618
  0
LINE
  8
0
 10
-4.55763
 20
-2.05618
 11
-4.03053
 21
-2.95883
  0
LINE
  8
0
 10
-4.03053
 20
-2.95883
 11
-3.32727
 21
-3.73218
  0
LINE
  8
0
 10
-3.32727
 20
-3.73218
 11
-2.47861
 21
-4.34239
  0
LINE
  8
0
 10
-2.47861
 20
-4.34239
 11
-1.52161
 21
-4.76283
  0
LINE
  8
0
 10
-1.52161
 20
-4.76283
 11
-0.498108
 21
-4.97511
  0
LINE
  8
0
 10
-0.498108
 20
-4.97511
 11
0.54715
 21
-4.96997
  0
LINE
  8
0
 10
0.54715
 20
-4.96997
 11
1.56851
 21
-4.7476
  0
LINE
  8
0
 10
1.56851
 20
-4.7476
 11
2464.3
 21
531.43
  0
LINE
  8
0
 10
2464.3
 20
531.43
 11
2465.25
 21
531.86
  0
LINE
  8
0
 10
2465.25
 20
531.86
 11
2466.1
 21
532.478
  0
LINE
  8
0
 10
2466.1
 20
532.478
 11
2466.79
 21
533.258
  0
LINE
  8
0
 10
2466.79
 20
533.258
 11
2467.31
 21
534.166
  0
LINE
  8
0
 10
2467.31
 20
534.166
 11
2467.63
 21
535.162
  0
LINE
  8
0
 10
2467.63
 20
535.162
 11
2467.73
 21
536.202
  0
LINE
  8
0
 10
2467.73
 20
536.202
 11
2467.62
 21
537.241
  0
LINE
  8
0
 10
2467.62
 20
537.241
 11
2467.29
 21
538.234
  0
LINE
  8
0
 10
2467.29
 20
538.234
 11
2466.76
 21
539.136
  0
LINE
  8
0
 10
2466.76
 20
539.136
 11
2466.06
 21
539.91
  0
LINE
  8
0
 10
2466.06
 20
539.91
 11
2465.21
 21
540.52
  0
LINE
  8
0
 10
2465.21
 20
540.52
 11
2464.25
 21
540.94
  0
LINE
  8
0
 10
2464.25
 20
540.94
 11
2463.23
 21
541.153
  0
LINE
  8
0
 10
2463.23
 20
541.153
 11
2462.19
 21
541.147
  0
LINE
  8
0
 10
2462.19
 20
541.147
 11
2461.16
 21
540.925
  0
LINE
  8
0
 10
2461.16
 20
540.925
 11
-1.56851
 21
4.7476
  0
LINE
  8
0
 10
-1.56851
 20
4.7476
 11
-2.52132
 21
4.31773
  0
LINE
  8
0
 10
-2.52132
 20
4.31773
 11
-3.36394
 21
3.69917
  0
LINE
  8
0
 10
-3.36394
 20
3.69917
 11
-4.05952
 21
2.91893
  0
LINE
  8
0
 10
-4.05952
 20
2.91893
 11
-4.57768
 21
2.01112
  0
LINE
  8
0
 10
-4.57768
 20
2.01112
 11
-4.8958
 21
1.01541
  0
LINE
  8
0
 10
-4.8958
 20
1.01541
 11
-4.99994
 21
-0.0246429
  0
ENDSEC
  0
SECTION
  2
OBJECTS
  0
DICTIONARY
  0
ENDSEC
  0
EOF
